<svg width="392" height="90" fill="none" xmlns="http://www.w3.org/2000/svg"><mask id="a" style="mask-type:luminance" maskUnits="userSpaceOnUse" x="149" y="10" width="2" height="69"><path d="M150.94 10.943h-1.128v67.763h1.128V10.943Z" fill="#fff"/></mask><g mask="url(#a)"><path d="M154.481 7.39h-8.212v74.866h8.212V7.391Z" fill="#FFFDFB"/></g><mask id="b" style="mask-type:luminance" maskUnits="userSpaceOnUse" x="173" y="16" width="18" height="25"><path fill-rule="evenodd" clip-rule="evenodd" d="M179.914 28.12h3.07a5.259 5.259 0 0 0 3.889-1.006 7.616 7.616 0 0 0 .876-4.514 6.529 6.529 0 0 0-.915-4.174 4.591 4.591 0 0 0-3.398-.983h-3.516l-.006 10.676Zm0 11.334h3.168v.615h-9.086v-.615h3.179v-22.01h-3.168v-.616h9.634a7.438 7.438 0 0 1 5.133 1.768 5.803 5.803 0 0 1 1.998 4.562 4.91 4.91 0 0 1-1.869 4.165 8.989 8.989 0 0 1-5.496 1.42h-3.479l-.014 10.71Z" fill="#fff"/></mask><g mask="url(#b)"><path d="M194.304 13.274h-23.851v30.351h23.851V13.274Z" fill="#FFFDFB"/></g><mask id="c" style="mask-type:luminance" maskUnits="userSpaceOnUse" x="192" y="16" width="21" height="25"><path fill-rule="evenodd" clip-rule="evenodd" d="M206.986 26.697v-9.254h-3.168v-.616h9.083v.616h-3.203v22.01h3.203v.616h-9.083v-.615h3.168V27.32h-8.738v12.133h3.171v.615h-9.086v-.615h3.173v-22.01h-3.173v-.616h9.088v.615h-3.173v9.254h8.738Z" fill="#fff"/></mask><g mask="url(#c)"><path d="M216.444 13.272h-27.656v30.353h27.656V13.272Z" fill="#FFFDFB"/></g><mask id="d" style="mask-type:luminance" maskUnits="userSpaceOnUse" x="214" y="16" width="10" height="25"><path fill-rule="evenodd" clip-rule="evenodd" d="M220.752 39.452h3.169v.615h-9.082v-.615h3.167V17.443h-3.167v-.616h9.082v.616h-3.169v22.009Z" fill="#fff"/></mask><g mask="url(#d)"><path d="M227.464 13.274h-16.166v30.351h16.166V13.274Z" fill="#FFFDFB"/></g><mask id="e" style="mask-type:luminance" maskUnits="userSpaceOnUse" x="225" y="16" width="18" height="25"><path fill-rule="evenodd" clip-rule="evenodd" d="M234.945 16.823v.616h-3.169v22.015h2.866a5.901 5.901 0 0 0 5.004-2.346 15.924 15.924 0 0 0 2.429-7.46h.363v10.421h-16.579v-.615h3.168V17.445h-3.168v-.616l9.086-.006Z" fill="#fff"/></mask><g mask="url(#e)"><path d="M245.987 13.272H222.32v30.351h23.667V13.272Z" fill="#FFFDFB"/></g><mask id="f" style="mask-type:luminance" maskUnits="userSpaceOnUse" x="244" y="16" width="10" height="25"><path fill-rule="evenodd" clip-rule="evenodd" d="M250.676 39.452h3.164v.615h-9.081v-.615h3.168V17.443h-3.168v-.616h9.081v.616h-3.164v22.009Z" fill="#fff"/></mask><g mask="url(#f)"><path d="M257.379 13.274h-16.165v30.351h16.165V13.274Z" fill="#FFFDFB"/></g><mask id="g" style="mask-type:luminance" maskUnits="userSpaceOnUse" x="255" y="16" width="18" height="25"><path fill-rule="evenodd" clip-rule="evenodd" d="M261.694 28.12h3.07a5.258 5.258 0 0 0 3.889-1.006 7.631 7.631 0 0 0 .876-4.515 6.516 6.516 0 0 0-.917-4.173 4.577 4.577 0 0 0-3.396-.983h-3.518l-.004 10.676Zm0 11.334h3.17v.615h-9.086v-.615h3.171v-22.01h-3.171v-.616h9.632a7.438 7.438 0 0 1 5.134 1.768 5.805 5.805 0 0 1 1.997 4.562 4.894 4.894 0 0 1-1.87 4.165 8.976 8.976 0 0 1-5.494 1.42h-3.479l-.004 10.71Z" fill="#fff"/></mask><g mask="url(#g)"><path d="M276.084 13.274h-23.848v30.351h23.848V13.274Z" fill="#FFFDFB"/></g><mask id="h" style="mask-type:luminance" maskUnits="userSpaceOnUse" x="282" y="16" width="23" height="25"><path fill-rule="evenodd" clip-rule="evenodd" d="m292.254 40.07-5.926-22.863v18.816c-.072.914.125 1.83.565 2.633a2.079 2.079 0 0 0 1.824.798h1.033v.615h-7.425v-.615h.555a2.706 2.706 0 0 0 2.132-.798 3.58 3.58 0 0 0 .698-2.411V19.6a2.143 2.143 0 0 0-.589-1.662 3.064 3.064 0 0 0-1.971-.495h-.819v-.616h6.48l4.726 18.182 4.953-18.181h6.122v.615h-3.138v22.01h3.148v.616h-8.918v-.615h3.187l.125-22.245-6.236 22.86h-.526Z" fill="#fff"/></mask><g mask="url(#h)"><path d="M308.153 13.272H278.79v30.351h29.363V13.272Z" fill="#FFFDFB"/></g><mask id="i" style="mask-type:luminance" maskUnits="userSpaceOnUse" x="307" y="16" width="17" height="25"><path fill-rule="evenodd" clip-rule="evenodd" d="M315.327 39.856a3.882 3.882 0 0 0 2.294-.743 6.026 6.026 0 0 0 1.775-2.181 8.04 8.04 0 0 0 .691-2.559 52.01 52.01 0 0 0 .223-5.907 43.765 43.765 0 0 0-.317-6.624 6.869 6.869 0 0 0-1.083-2.772 4.816 4.816 0 0 0-1.637-1.49 3.95 3.95 0 0 0-1.944-.537 4.018 4.018 0 0 0-1.982.538 4.827 4.827 0 0 0-1.637 1.49 7.55 7.55 0 0 0-1.099 2.829 23.5 23.5 0 0 0-.221 2.499 86.73 86.73 0 0 0-.076 4.065v.749c-.033 1.77.036 3.541.205 5.304a6.89 6.89 0 0 0 .708 2.413 5.917 5.917 0 0 0 1.791 2.173c.673.49 1.483.753 2.315.75m0-23.39a5.757 5.757 0 0 1 2.636.643 7.285 7.285 0 0 1 2.286 1.878 13.195 13.195 0 0 1 2.358 4.377 17.64 17.64 0 0 1 .819 5.46 16.369 16.369 0 0 1-.633 4.72 12.488 12.488 0 0 1-1.922 3.863 7.964 7.964 0 0 1-2.54 2.257 6.059 6.059 0 0 1-3 .82 6.13 6.13 0 0 1-2.993-.82 8.114 8.114 0 0 1-2.58-2.257 12.403 12.403 0 0 1-1.918-3.85 15.326 15.326 0 0 1-.477-2.242 17.954 17.954 0 0 1-.158-2.485 18.717 18.717 0 0 1 .379-3.792 15.522 15.522 0 0 1 1.117-3.427 10.361 10.361 0 0 1 2.899-3.806 5.974 5.974 0 0 1 3.731-1.334" fill="#fff"/></mask><g mask="url(#i)"><path d="M326.964 12.908h-23.306v31.12h23.306v-31.12Z" fill="#FFFDFB"/></g><mask id="j" style="mask-type:luminance" maskUnits="userSpaceOnUse" x="325" y="16" width="21" height="25"><path fill-rule="evenodd" clip-rule="evenodd" d="M335.129 17.445h-3.455v10.549h3.005a4.693 4.693 0 0 0 3.698-1.116 7.397 7.397 0 0 0 .925-4.436 6.292 6.292 0 0 0-.9-3.922 4.119 4.119 0 0 0-3.273-1.075Zm-9.372 22.624v-.615h3.166V17.445h-3.166v-.616h10.438a6.44 6.44 0 0 1 4.503 1.451 5.256 5.256 0 0 1 1.597 4.104 5.398 5.398 0 0 1-1.597 4.104 7.34 7.34 0 0 1-4.533 1.82 6.604 6.604 0 0 1 1.944.269c.554.17 1.08.424 1.558.753a4.447 4.447 0 0 1 1.705 2.575c.046.158.083.32.112.482.019.137.059.382.113.734.054.543.081 1.087.08 1.632v1.627c-.005.19.004.378.026.566.023.16.043.285.059.374.018.105.042.21.072.312.114.616.39 1.19.8 1.664.39.34.897.512 1.413.48h.299c.117-.033.235-.058.356-.076a1.56 1.56 0 0 0 .268-.064 4.44 4.44 0 0 0 .444-.174v.615a3.71 3.71 0 0 1-.89.296 9.424 9.424 0 0 1-.49.084 4.14 4.14 0 0 1-.526.033 4.231 4.231 0 0 1-3.684-1.449 9.959 9.959 0 0 1-1.054-5.476 6.815 6.815 0 0 0-.8-3.991 3.544 3.544 0 0 0-2.866-.983h-3.454v10.875h3.166v.616l-9.059-.013Z" fill="#fff"/></mask><g mask="url(#j)"><path d="M348.971 13.272h-26.753v30.755h26.753V13.272Z" fill="#FFFDFB"/></g><mask id="k" style="mask-type:luminance" maskUnits="userSpaceOnUse" x="346" y="16" width="20" height="25"><path fill-rule="evenodd" clip-rule="evenodd" d="M355.455 17.445h-3.453v10.549h3.007a4.703 4.703 0 0 0 3.694-1.116 7.43 7.43 0 0 0 .928-4.436 6.301 6.301 0 0 0-.905-3.922 4.104 4.104 0 0 0-3.271-1.075Zm-9.374 22.624v-.615h3.166V17.445h-3.166v-.616h10.439a6.465 6.465 0 0 1 4.502 1.451 5.293 5.293 0 0 1 1.591 4.104 5.448 5.448 0 0 1-1.591 4.104 7.357 7.357 0 0 1-4.537 1.82 6.561 6.561 0 0 1 1.938.269 5.53 5.53 0 0 1 1.562.753 4.458 4.458 0 0 1 1.709 2.575c.051.184.088.343.112.482.025.14.06.382.109.735.047.48.078 1.026.078 1.63v1.628a5.595 5.595 0 0 0 .086.94c.016.088.047.205.071.312.116.615.392 1.19.801 1.664.39.339.898.511 1.414.48h.309a2.35 2.35 0 0 1 .35-.076 1.43 1.43 0 0 0 .262-.064c.153-.05.303-.108.45-.174v.615a3.816 3.816 0 0 1-.892.296 8.624 8.624 0 0 1-.491.084 5.247 5.247 0 0 1-4.202-1.416 10.003 10.003 0 0 1-1.05-5.476 6.808 6.808 0 0 0-.805-3.991 3.537 3.537 0 0 0-2.865-.983h-3.453v10.875h3.168v.616l-9.065-.013Z" fill="#fff"/></mask><g mask="url(#k)"><path d="M369.297 13.272h-26.755v30.755h26.755V13.272Z" fill="#FFFDFB"/></g><mask id="l" style="mask-type:luminance" maskUnits="userSpaceOnUse" x="366" y="16" width="10" height="25"><path fill-rule="evenodd" clip-rule="evenodd" d="M372.325 39.452h3.168v.615h-9.088v-.615h3.167V17.443h-3.167v-.616h9.084v.616h-3.168l.004 22.009Z" fill="#fff"/></mask><g mask="url(#l)"><path d="M379.034 13.274h-16.167v30.351h16.167V13.274Z" fill="#FFFDFB"/></g><mask id="m" style="mask-type:luminance" maskUnits="userSpaceOnUse" x="377" y="16" width="15" height="25"><path d="M391.996 16.46h-13.998v24.018h13.998V16.46Z" fill="#fff"/></mask><g mask="url(#m)"><mask id="n" style="mask-type:luminance" maskUnits="userSpaceOnUse" x="377" y="16" width="16" height="25"><path d="M392.481 16.335h-14.878v24.149h14.878V16.335Z" fill="#fff"/></mask><g mask="url(#n)"><mask id="o" style="mask-type:luminance" maskUnits="userSpaceOnUse" x="377" y="16" width="15" height="25"><path fill-rule="evenodd" clip-rule="evenodd" d="M377.998 40.237v-9.9h.487a14.5 14.5 0 0 0 2.569 7.028 5.883 5.883 0 0 0 4.812 2.493 4.33 4.33 0 0 0 3.203-1.295 4.438 4.438 0 0 0 1.29-3.256 4.589 4.589 0 0 0-.934-2.852 11.963 11.963 0 0 0-3.469-2.737c-.506-.322-1.264-.743-2.272-1.265a17.524 17.524 0 0 1-3.598-2.3 5.169 5.169 0 0 1-1.12-1.699 5.386 5.386 0 0 1-.409-2.035 6.115 6.115 0 0 1 1.527-4.282 5.062 5.062 0 0 1 3.917-1.675 5.47 5.47 0 0 1 2.794.716 8.989 8.989 0 0 1 2.491 2.364l1.797-3.078h.192v8.924h-.489a13.934 13.934 0 0 0-2.497-6.156 5.214 5.214 0 0 0-4.189-2.15 4.624 4.624 0 0 0-3.126 1.071 3.42 3.42 0 0 0-1.238 2.7c0 1.368 1.66 2.96 4.982 4.773l1.502.82a15.098 15.098 0 0 1 4.489 3.43 6.052 6.052 0 0 1 1.287 3.84 6.877 6.877 0 0 1-1.777 4.851 6.012 6.012 0 0 1-7.515 1.055 8.802 8.802 0 0 1-2.626-2.565l-1.72 3.19-.36-.01Z" fill="#fff"/></mask><g mask="url(#o)"><mask id="p" style="mask-type:luminance" maskUnits="userSpaceOnUse" x="377" y="16" width="16" height="25"><path d="M392.481 16.335h-14.878v24.149h14.878V16.335Z" fill="#fff"/></mask><g mask="url(#p)"><path d="M395.539 12.91h-21.084v31.12h21.084V12.91Z" fill="#FFFDFB"/></g></g></g></g><mask id="q" style="mask-type:luminance" maskUnits="userSpaceOnUse" x="173" y="49" width="11" height="24"><path fill-rule="evenodd" clip-rule="evenodd" d="M179.914 72.159h3.168v.615h-9.088v-.615h3.181v-22.01h-3.17v-.616h9.087v.615h-3.168l-.01 22.01Z" fill="#fff"/></mask><g mask="url(#q)"><path d="M186.625 45.977h-16.172v30.351h16.172V45.977Z" fill="#FFFDFB"/></g><mask id="r" style="mask-type:luminance" maskUnits="userSpaceOnUse" x="184" y="49" width="19" height="25"><path fill-rule="evenodd" clip-rule="evenodd" d="M188.056 52.12v15.637a6.167 6.167 0 0 0 .718 3.298 2.42 2.42 0 0 0 2.182 1.11h.522v.615h-7.426v-.615h.557a2.352 2.352 0 0 0 2.143-1.063 6.17 6.17 0 0 0 .683-3.283V51.548a2.112 2.112 0 0 0-.857-1.08 3.503 3.503 0 0 0-1.719-.324h-.809v-.615h5.655l9.159 17.646V54.59a6.098 6.098 0 0 0-.732-3.322 2.461 2.461 0 0 0-2.199-1.119h-.526v-.615h7.463v.615h-.575a2.383 2.383 0 0 0-2.137 1.075 6.088 6.088 0 0 0-.698 3.267V73.18H199l-10.944-21.06Z" fill="#fff"/></mask><g mask="url(#r)"><path d="M206.415 45.977h-25.906v30.756h25.906V45.977Z" fill="#FFFDFB"/></g><mask id="s" style="mask-type:luminance" maskUnits="userSpaceOnUse" x="203" y="49" width="17" height="24"><path fill-rule="evenodd" clip-rule="evenodd" d="M207.164 72.778v-.615h3.148V50.13l-.235-.017h-.254a4.669 4.669 0 0 0-4.145 2.159 9.62 9.62 0 0 0-1.212 2.766 15.35 15.35 0 0 0-.507 4.075h-.365v-9.584h16.387v9.584h-.383a14.922 14.922 0 0 0-1.842-7.075 5.326 5.326 0 0 0-4.624-1.925h-.063v22.044h3.17v.615l-9.075.006Z" fill="#fff"/></mask><g mask="url(#s)"><path d="M223.522 45.977h-23.47v30.351h23.47V45.977Z" fill="#FFFDFB"/></g><mask id="t" style="mask-type:luminance" maskUnits="userSpaceOnUse" x="221" y="49" width="17" height="24"><path fill-rule="evenodd" clip-rule="evenodd" d="M221.078 72.778v-.615h3.168v-22.01h-3.168v-.616h16.151v7.902h-.348a12.071 12.071 0 0 0-1.881-5.66 4.782 4.782 0 0 0-3.963-1.62h-4.042v9.834h1.242a3.363 3.363 0 0 0 2.8-1.354 5.363 5.363 0 0 0 .819-1.658 7.456 7.456 0 0 0 .297-2.167h.329v10.602h-.329a7.733 7.733 0 0 0-.272-2.166 4.485 4.485 0 0 0-.762-1.552 3.209 3.209 0 0 0-2.685-1.12h-1.433v11.59h3.983a4.904 4.904 0 0 0 4.202-2.084 13.926 13.926 0 0 0 2.018-6.475h.367v9.18l-16.493-.01Z" fill="#fff"/></mask><g mask="url(#t)"><path d="M241.105 45.977h-23.57v30.351h23.57V45.977Z" fill="#FFFDFB"/></g><mask id="u" style="mask-type:luminance" maskUnits="userSpaceOnUse" x="240" y="49" width="20" height="25"><path fill-rule="evenodd" clip-rule="evenodd" d="M249.691 50.152h-3.455V60.7h3.011a4.694 4.694 0 0 0 3.684-1.116 7.405 7.405 0 0 0 .924-4.436 6.334 6.334 0 0 0-.899-3.922 4.117 4.117 0 0 0-3.265-1.073Zm-9.374 22.629v-.616h3.171V50.152h-3.171v-.615h10.451a6.472 6.472 0 0 1 4.503 1.45 5.285 5.285 0 0 1 1.59 4.104 5.444 5.444 0 0 1-1.586 4.104 7.39 7.39 0 0 1-4.542 1.82 6.563 6.563 0 0 1 1.943.27 5.45 5.45 0 0 1 1.557.754 4.42 4.42 0 0 1 1.711 2.575c.047.157.084.318.111.48.02.14.055.384.11.737a15 15 0 0 1 .078 1.641V69.1c-.001.189.01.378.033.566.02.158.041.283.053.373.019.105.043.21.074.312a3.53 3.53 0 0 0 .798 1.664c.392.34.901.511 1.418.478h.301c.115-.03.231-.054.348-.072.093-.015.184-.037.272-.067a4.55 4.55 0 0 0 .451-.173v.616a3.816 3.816 0 0 1-.895.296 8.76 8.76 0 0 1-.491.086 4.108 4.108 0 0 1-.528.03 4.243 4.243 0 0 1-3.684-1.448 10.022 10.022 0 0 1-1.046-5.475 6.822 6.822 0 0 0-.804-3.993 3.546 3.546 0 0 0-2.866-.98h-3.455v10.875h3.169v.615l-9.074-.022Z" fill="#fff"/></mask><g mask="url(#u)"><path d="M263.536 45.977h-26.762v30.756h26.762V45.977Z" fill="#FFFDFB"/></g><mask id="v" style="mask-type:luminance" maskUnits="userSpaceOnUse" x="259" y="49" width="20" height="25"><path fill-rule="evenodd" clip-rule="evenodd" d="M263.685 52.12v15.637a6.1 6.1 0 0 0 .716 3.298 2.419 2.419 0 0 0 2.178 1.11h.528v.615h-7.427v-.615h.554a2.36 2.36 0 0 0 2.149-1.063 6.19 6.19 0 0 0 .682-3.283V51.548a2.09 2.09 0 0 0-.862-1.08 3.47 3.47 0 0 0-1.715-.324h-.819v-.615h5.653l9.164 17.646V54.59a6.126 6.126 0 0 0-.731-3.322 2.454 2.454 0 0 0-2.206-1.119h-.514v-.615h7.466v.615h-.591a2.365 2.365 0 0 0-2.131 1.075 6.068 6.068 0 0 0-.698 3.267V73.18h-.462l-10.934-21.06Z" fill="#fff"/></mask><g mask="url(#v)"><path d="M282.044 45.977h-25.907v30.756h25.907V45.977Z" fill="#FFFDFB"/></g><mask id="w" style="mask-type:luminance" maskUnits="userSpaceOnUse" x="276" y="49" width="20" height="24"><path fill-rule="evenodd" clip-rule="evenodd" d="M282.235 64.77h6.664l-3.297-11.285-3.367 11.285Zm-.989 3.236c-.059.205-.104.338-.116.41-.013.072-.043.22-.074.431l-.066.845a2.507 2.507 0 0 0 .629 1.816 2.293 2.293 0 0 0 1.715.647h.661v.615h-7.045v-.615a3.312 3.312 0 0 0 2.196-1.117 10.617 10.617 0 0 0 1.627-3.529l5.477-18.348h.713l6.914 22.998h2.087v.615h-7.618v-.615h2.739l-1.992-6.804h-7.065l-.782 2.65Z" fill="#fff"/></mask><g mask="url(#w)"><path d="M299.503 45.611h-26.098v30.72h26.098V45.61Z" fill="#FFFDFB"/></g><mask id="x" style="mask-type:luminance" maskUnits="userSpaceOnUse" x="293" y="49" width="18" height="24"><path fill-rule="evenodd" clip-rule="evenodd" d="M297.475 72.778v-.615h3.148V50.13l-.24-.017h-.253a4.666 4.666 0 0 0-4.141 2.159 9.687 9.687 0 0 0-1.214 2.766c-.349 1.33-.519 2.7-.505 4.075h-.365v-9.584h16.387v9.584h-.383a14.994 14.994 0 0 0-1.842-7.075 5.342 5.342 0 0 0-4.626-1.925h-.061v22.044h3.166v.615l-9.071.006Z" fill="#fff"/></mask><g mask="url(#x)"><path d="M313.833 45.977h-23.471v30.351h23.471V45.977Z" fill="#FFFDFB"/></g><mask id="y" style="mask-type:luminance" maskUnits="userSpaceOnUse" x="311" y="49" width="10" height="24"><path fill-rule="evenodd" clip-rule="evenodd" d="M317.308 72.159h3.162v.615h-9.079v-.615h3.166v-22.01h-3.166v-.616h9.079v.615h-3.162v22.01Z" fill="#fff"/></mask><g mask="url(#y)"><path d="M324.013 45.977H307.85v30.351h16.163V45.977Z" fill="#FFFDFB"/></g><mask id="z" style="mask-type:luminance" maskUnits="userSpaceOnUse" x="322" y="49" width="17" height="25"><path fill-rule="evenodd" clip-rule="evenodd" d="M330.192 72.559a3.81 3.81 0 0 0 2.282-.743 5.956 5.956 0 0 0 1.789-2.181 8.122 8.122 0 0 0 .684-2.555 52.3 52.3 0 0 0 .223-5.911 44.292 44.292 0 0 0-.317-6.624 7.087 7.087 0 0 0-1.081-2.772 4.876 4.876 0 0 0-1.637-1.491 3.959 3.959 0 0 0-1.945-.536 4.065 4.065 0 0 0-1.987.536 4.847 4.847 0 0 0-1.627 1.491 7.424 7.424 0 0 0-1.1 2.828 23.02 23.02 0 0 0-.221 2.501 88.586 88.586 0 0 0-.083 4.065v.749c-.034 1.77.035 3.541.204 5.304a6.87 6.87 0 0 0 .713 2.413 5.873 5.873 0 0 0 1.788 2.175c.674.49 1.485.752 2.317.749m0-23.392a5.737 5.737 0 0 1 2.63.647 7.414 7.414 0 0 1 2.291 1.877 13.35 13.35 0 0 1 2.357 4.375c.559 1.766.835 3.61.819 5.462a16.544 16.544 0 0 1-.626 4.72 12.52 12.52 0 0 1-1.924 3.863 8.023 8.023 0 0 1-2.536 2.257 6.085 6.085 0 0 1-3.003.82 6.164 6.164 0 0 1-2.996-.82 8.195 8.195 0 0 1-2.589-2.267 12.624 12.624 0 0 1-1.908-3.848 16.214 16.214 0 0 1-.477-2.244 17.926 17.926 0 0 1-.161-2.483c0-1.274.129-2.545.382-3.794a15.75 15.75 0 0 1 1.114-3.425 10.326 10.326 0 0 1 2.904-3.806 5.983 5.983 0 0 1 3.731-1.334" fill="#fff"/></mask><g mask="url(#z)"><path d="M341.822 45.611h-23.304v31.12h23.304V45.61Z" fill="#FFFDFB"/></g><mask id="A" style="mask-type:luminance" maskUnits="userSpaceOnUse" x="339" y="49" width="20" height="25"><path fill-rule="evenodd" clip-rule="evenodd" d="M343.652 52.12v15.637a6.187 6.187 0 0 0 .718 3.298 2.425 2.425 0 0 0 2.184 1.11h.522v.615h-7.424v-.615h.557a2.349 2.349 0 0 0 2.143-1.063 6.188 6.188 0 0 0 .679-3.283V51.548a2.08 2.08 0 0 0-.849-1.08 3.523 3.523 0 0 0-1.723-.324h-.807v-.615h5.658l9.155 17.646V54.59a6.07 6.07 0 0 0-.731-3.322 2.46 2.46 0 0 0-2.196-1.119h-.526v-.615h7.462v.615h-.589a2.374 2.374 0 0 0-2.133 1.075 6.137 6.137 0 0 0-.7 3.267V73.18h-.458l-10.942-21.06Z" fill="#fff"/></mask><g mask="url(#A)"><path d="M362.013 45.977h-25.906v30.756h25.906V45.977Z" fill="#FFFDFB"/></g><mask id="B" style="mask-type:luminance" maskUnits="userSpaceOnUse" x="356" y="49" width="20" height="24"><path fill-rule="evenodd" clip-rule="evenodd" d="M362.203 64.77h6.667l-3.298-11.285-3.369 11.285Zm-.986 3.236a9.418 9.418 0 0 0-.119.41 8.88 8.88 0 0 0-.074.431l-.061.845a2.472 2.472 0 0 0 .635 1.816 2.286 2.286 0 0 0 1.715.647h.651v.615h-7.045v-.615a3.33 3.33 0 0 0 2.198-1.117 10.582 10.582 0 0 0 1.621-3.529l5.483-18.348h.725l6.908 22.998h2.085v.615h-7.626v-.615h2.749l-1.994-6.804h-7.067l-.784 2.65Z" fill="#fff"/></mask><g mask="url(#B)"><path d="M379.478 45.611h-26.104v30.72h26.104V45.61Z" fill="#FFFDFB"/></g><mask id="C" style="mask-type:luminance" maskUnits="userSpaceOnUse" x="375" y="49" width="17" height="24"><path fill-rule="evenodd" clip-rule="evenodd" d="M384.218 49.529v.615h-3.168v22.007h2.865a5.926 5.926 0 0 0 5.015-2.346 15.985 15.985 0 0 0 2.427-7.46h.359V72.77h-16.579v-.615h3.168V50.152h-3.168v-.615l9.081-.008Z" fill="#fff"/></mask><g mask="url(#C)"><path d="M395.25 45.977h-23.662v30.351h23.662V45.977Z" fill="#FFFDFB"/></g><mask id="D" style="mask-type:luminance" maskUnits="userSpaceOnUse" x="54" y="32" width="4" height="15"><path fill-rule="evenodd" clip-rule="evenodd" d="M54.52 46c.276.176.701-.02 1.15-.255.94-.49 1.127-1.33 1.449-6.394.262-4.13-.717-5.645-1.148-6.104a1.168 1.168 0 0 0-.82-.431c-.7.05-.76.833-.76 1.565 0 .887-.089 8.413-.175 10.155-.047.848.047 1.303.305 1.463" fill="#fff"/></mask><g mask="url(#D)"><path d="M60.703 29.266H50.659v20.355h10.044V29.266Z" fill="#FFFDFB"/></g><mask id="E" style="mask-type:luminance" maskUnits="userSpaceOnUse" x="33" y="81" width="3" height="5"><path d="m34.64 81.696-.81.244 1.164 3.873.81-.245-1.164-3.872Z" fill="#fff"/></mask><g mask="url(#E)"><path d="M39.339 78.144h-9.04v11.222h9.04V78.144Z" fill="#FFFDFB"/></g><mask id="F" style="mask-type:luminance" maskUnits="userSpaceOnUse" x="36" y="80" width="5" height="6"><path fill-rule="evenodd" clip-rule="evenodd" d="m36.37 81.195.856-.22 2.213 2.338-.686-2.72.76-.19.99 3.917-.819.206-2.27-2.364.705 2.762-.758.205-.99-3.934Z" fill="#fff"/></mask><g mask="url(#F)"><path d="M44.044 76.847H32.828v11.825h11.216V76.847Z" fill="#FFFDFB"/></g><mask id="G" style="mask-type:luminance" maskUnits="userSpaceOnUse" x="41" y="79" width="4" height="5"><path fill-rule="evenodd" clip-rule="evenodd" d="m44.202 79.414.137.694-1.183.236.65 3.273-.818.17-.653-3.283-1.187.238-.137-.684 3.19-.644Z" fill="#fff"/></mask><g mask="url(#G)"><path d="M47.882 75.862H37.464v11.475h10.418V75.862Z" fill="#FFFDFB"/></g><mask id="H" style="mask-type:luminance" maskUnits="userSpaceOnUse" x="45" y="78" width="5" height="6"><path fill-rule="evenodd" clip-rule="evenodd" d="m48.75 79.429-2.07.316.121.837 1.901-.283.103.691-1.895.287.153 1.026 2.172-.326.106.716-2.988.452-.604-4 2.89-.437.11.72Z" fill="#fff"/></mask><g mask="url(#H)"><path d="M52.884 75.159H42.208v11.537h10.676V75.16Z" fill="#FFFDFB"/></g><mask id="I" style="mask-type:luminance" maskUnits="userSpaceOnUse" x="50" y="78" width="5" height="5"><path fill-rule="evenodd" clip-rule="evenodd" d="M52.992 78.34a.939.939 0 0 1 .41.243c.09.095.167.201.23.316.063.132.104.275.118.42.016.198-.016.396-.094.578a.804.804 0 0 1-.434.44c.164.043.31.141.41.28.108.187.17.398.18.615l.024.265c.008.126.028.251.06.373a.344.344 0 0 0 .175.206v.1l-.92.09a1.876 1.876 0 0 1-.077-.205 2.082 2.082 0 0 1-.065-.336l-.043-.376a.773.773 0 0 0-.18-.494.65.65 0 0 0-.498-.08l-.818.08.151 1.575-.819.083-.39-4.03 1.915-.187c.223-.027.448-.013.666.043Zm-1.674.769.107 1.079.904-.088a.91.91 0 0 0 .391-.107.454.454 0 0 0 .205-.474.511.511 0 0 0-.28-.47.817.817 0 0 0-.396-.035l-.93.095Z" fill="#fff"/></mask><g mask="url(#I)"><path d="M57.628 74.736H46.89v11.328h10.74V74.736Z" fill="#FFFDFB"/></g><mask id="J" style="mask-type:luminance" maskUnits="userSpaceOnUse" x="55" y="77" width="4" height="6"><path fill-rule="evenodd" clip-rule="evenodd" d="m55.43 78.044.882-.048 1.7 2.732-.13-2.797.786-.037.184 4.04-.843.037-1.746-2.776.131 2.85-.782.035-.182-4.036Z" fill="#fff"/></mask><g mask="url(#J)"><path d="M62.397 74.342h-10.51v11.287h10.51V74.342Z" fill="#FFFDFB"/></g><mask id="K" style="mask-type:luminance" maskUnits="userSpaceOnUse" x="60" y="77" width="4" height="5"><path fill-rule="evenodd" clip-rule="evenodd" d="M61.628 77.865h.962l1.402 4.05h-.917l-.256-.83-1.49-.01-.274.82h-.883l1.456-4.03Zm-.062 2.51h1.024l-.496-1.59-.528 1.59Z" fill="#fff"/></mask><g mask="url(#K)"><path d="M67.533 74.313h-10.91v11.163h10.91V74.313Z" fill="#FFFDFB"/></g><mask id="L" style="mask-type:luminance" maskUnits="userSpaceOnUse" x="64" y="77" width="5" height="6"><path fill-rule="evenodd" clip-rule="evenodd" d="m68.03 78.074-.037.702-1.203-.066-.17 3.339-.844-.037.17-3.343-1.21-.057.037-.702 3.257.164Z" fill="#fff"/></mask><g mask="url(#L)"><path d="M71.57 74.358H61.195v11.243H71.57V74.358Z" fill="#FFFDFB"/></g><mask id="M" style="mask-type:luminance" maskUnits="userSpaceOnUse" x="69" y="78" width="2" height="5"><path d="m69.425 78.187-.364 4.028.84.076.364-4.028-.84-.076Z" fill="#fff"/></mask><g mask="url(#M)"><path d="M73.796 74.638h-8.27v11.207h8.27V74.638Z" fill="#FFFDFB"/></g><mask id="N" style="mask-type:luminance" maskUnits="userSpaceOnUse" x="71" y="78" width="5" height="5"><path fill-rule="evenodd" clip-rule="evenodd" d="M74.639 82.472a2.09 2.09 0 0 1-2.62-.339 2.19 2.19 0 0 1-.395-1.73 2.15 2.15 0 0 1 .819-1.57 2.059 2.059 0 0 1 2.615.335 2.19 2.19 0 0 1 .391 1.732 2.222 2.222 0 0 1-.818 1.572m-.447-.688c.251-.275.4-.627.422-1a1.67 1.67 0 0 0-.153-1.07 1.04 1.04 0 0 0-1.572-.205c-.25.275-.398.628-.422.999-.072.364-.017.742.158 1.069a1.026 1.026 0 0 0 1.181.433 1.01 1.01 0 0 0 .386-.228" fill="#fff"/></mask><g mask="url(#N)"><path d="M79.021 74.953H68.055v11.388H79.02V74.953Z" fill="#FFFDFB"/></g><mask id="O" style="mask-type:luminance" maskUnits="userSpaceOnUse" x="76" y="79" width="5" height="5"><path fill-rule="evenodd" clip-rule="evenodd" d="m77.365 79.166.868.164 1.04 3.039.51-2.752.767.14-.73 3.977-.82-.15-1.07-3.099-.522 2.8-.767-.138.724-3.981Z" fill="#fff"/></mask><g mask="url(#O)"><path d="M84.09 75.614H73.093v11.67H84.09v-11.67Z" fill="#FFFDFB"/></g><mask id="P" style="mask-type:luminance" maskUnits="userSpaceOnUse" x="81" y="80" width="4" height="5"><path fill-rule="evenodd" clip-rule="evenodd" d="m83.48 80.413.936.222.442 4.27-.892-.215-.066-.866-1.445-.347-.452.739-.868-.206 2.346-3.597Zm-.63 2.432.995.244-.117-1.66-.877 1.416Z" fill="#fff"/></mask><g mask="url(#P)"><path d="M88.393 76.862H77.584v11.593h10.81V76.862Z" fill="#FFFDFB"/></g><mask id="Q" style="mask-type:luminance" maskUnits="userSpaceOnUse" x="86" y="81" width="4" height="6"><path fill-rule="evenodd" clip-rule="evenodd" d="m87.257 81.38.819.238-.94 3.189 1.928.572-.204.69-2.743-.807 1.14-3.882Z" fill="#fff"/></mask><g mask="url(#Q)"><path d="M92.601 77.828H82.578V89.62h10.023V77.828Z" fill="#FFFDFB"/></g><mask id="R" style="mask-type:luminance" maskUnits="userSpaceOnUse" x="32" y="76" width="4" height="5"><path fill-rule="evenodd" clip-rule="evenodd" d="M35.663 78.292a1.5 1.5 0 0 1-.88.562l-.799.236.41 1.39-.82.24-1.133-3.883 1.66-.484a1.372 1.372 0 0 1 1 .033 1.243 1.243 0 0 1 .615.82 1.27 1.27 0 0 1-.053 1.076m-1.036-1.22a.673.673 0 0 0-.459 0l-.716.206.334 1.139.714-.205a.661.661 0 0 0 .385-.267.593.593 0 0 0 .018-.48.572.572 0 0 0-.276-.39" fill="#fff"/></mask><g mask="url(#R)"><path d="M39.347 72.727H28.9v11.546h10.447V72.727Z" fill="#FFFDFB"/></g><mask id="S" style="mask-type:luminance" maskUnits="userSpaceOnUse" x="37" y="74" width="5" height="6"><path fill-rule="evenodd" clip-rule="evenodd" d="m38.448 79.349-.915-3.938.819-.19.348 1.503 1.504-.355-.343-1.502.818-.193.909 3.936-.819.205-.41-1.754-1.512.35.41 1.755-.809.183Z" fill="#fff"/></mask><g mask="url(#S)"><path d="M45.141 71.125H33.988V82.9h11.153V71.125Z" fill="#FFFDFB"/></g><mask id="T" style="mask-type:luminance" maskUnits="userSpaceOnUse" x="42" y="74" width="3" height="5"><path d="m43.81 74.071-.83.15.714 3.978.83-.15-.714-3.978Z" fill="#fff"/></mask><g mask="url(#T)"><path d="M48.076 70.52h-8.65v11.227h8.65V70.52Z" fill="#FFFDFB"/></g><mask id="U" style="mask-type:luminance" maskUnits="userSpaceOnUse" x="46" y="73" width="4" height="5"><path fill-rule="evenodd" clip-rule="evenodd" d="m46.115 73.673.84-.13.47 3.284 1.984-.287.11.718-2.828.41-.576-3.995Z" fill="#fff"/></mask><g mask="url(#U)"><path d="M53.062 69.992h-10.49v11.236h10.49V69.992Z" fill="#FFFDFB"/></g><mask id="V" style="mask-type:luminance" maskUnits="userSpaceOnUse" x="51" y="72" width="2" height="6"><path fill-rule="evenodd" clip-rule="evenodd" d="m52.264 76.975-.84.084-.409-4.022.841-.086.408 4.024Z" fill="#fff"/></mask><g mask="url(#V)"><path d="M55.805 69.395h-8.337v11.21h8.337v-11.21Z" fill="#FFFDFB"/></g><mask id="W" style="mask-type:luminance" maskUnits="userSpaceOnUse" x="54" y="72" width="4" height="5"><path fill-rule="evenodd" clip-rule="evenodd" d="M57.047 74.873a1.508 1.508 0 0 1-.984.353l-.83.05.085 1.436-.848.053-.235-4.042 1.73-.096c.342-.04.687.05.965.254a1.232 1.232 0 0 1 .41.95 1.268 1.268 0 0 1-.293 1.026m-.735-1.418a.625.625 0 0 0-.446-.109l-.745.04.07 1.194.743-.048a.595.595 0 0 0 .427-.174.58.58 0 0 0 .131-.468.56.56 0 0 0-.18-.435Z" fill="#fff"/></mask><g mask="url(#W)"><path d="M60.885 69.079H50.69v11.244h10.195V69.08Z" fill="#FFFDFB"/></g><mask id="X" style="mask-type:luminance" maskUnits="userSpaceOnUse" x="62" y="72" width="5" height="5"><path fill-rule="evenodd" clip-rule="evenodd" d="m65.23 72.544 1.21.035-.123 4.047-.782-.023.082-2.737c0-.076 0-.185.014-.33.014-.146 0-.249 0-.327l-.86 3.372-.818-.025-.653-3.418c0 .08-.01.188-.01.33v.328l-.08 2.733-.788-.016.125-4.046 1.228.037.638 3.204.817-3.163Z" fill="#fff"/></mask><g mask="url(#X)"><path d="M69.98 68.917H58.884v11.26h11.098v-11.26Z" fill="#FFFDFB"/></g><mask id="Y" style="mask-type:luminance" maskUnits="userSpaceOnUse" x="68" y="72" width="5" height="6"><path fill-rule="evenodd" clip-rule="evenodd" d="M71.573 76.68a2.07 2.07 0 0 1-2.624-.243 2.196 2.196 0 0 1-.46-1.713 2.17 2.17 0 0 1 .763-1.605 1.773 1.773 0 0 1 1.355-.35 1.752 1.752 0 0 1 1.269.596 2.134 2.134 0 0 1 .458 1.708 2.19 2.19 0 0 1-.761 1.604m-.467-.667a2.025 2.025 0 0 0 .189-2.078.968.968 0 0 0-.75-.44.975.975 0 0 0-.818.296c-.244.287-.382.65-.391 1.026a1.63 1.63 0 0 0 .204 1.065 1.025 1.025 0 0 0 1.198.384c.142-.052.27-.135.376-.243" fill="#fff"/></mask><g mask="url(#Y)"><path d="M75.891 69.21h-10.96v11.384h10.96V69.21Z" fill="#FFFDFB"/></g><mask id="Z" style="mask-type:luminance" maskUnits="userSpaceOnUse" x="74" y="73" width="4" height="5"><path fill-rule="evenodd" clip-rule="evenodd" d="M77.281 73.852a.94.94 0 0 1 .332.334 1.174 1.174 0 0 1 .168.8 1.29 1.29 0 0 1-.23.54.818.818 0 0 1-.534.318.737.737 0 0 1 .34.376c.06.208.068.43.02.642l-.038.269a2.07 2.07 0 0 0-.035.373.332.332 0 0 0 .118.248l-.014.1-.915-.137a1.926 1.926 0 0 1-.004-.57l.05-.373a.781.781 0 0 0-.056-.53.689.689 0 0 0-.456-.205l-.82-.121-.232 1.567-.82-.127.615-3.997 1.901.292c.214.028.421.096.61.2Zm-1.81.33-.16 1.08.894.13a.99.99 0 0 0 .409 0 .444.444 0 0 0 .307-.41.536.536 0 0 0-.151-.523.895.895 0 0 0-.381-.127l-.917-.15Z" fill="#fff"/></mask><g mask="url(#Z)"><path d="M81.336 69.811H70.617v11.592h10.719V69.81Z" fill="#FFFDFB"/></g><mask id="aa" style="mask-type:luminance" maskUnits="userSpaceOnUse" x="79" y="74" width="5" height="5"><path fill-rule="evenodd" clip-rule="evenodd" d="M82.828 74.91c.13.093.237.216.311.357.065.118.109.245.129.378a1.18 1.18 0 0 1-.274.95.79.79 0 0 1-.55.287.767.767 0 0 1 .32.398 1.29 1.29 0 0 1-.018.645l-.055.262c-.03.123-.049.248-.058.374a.356.356 0 0 0 .1.254l-.016.099-.906-.193c0-.095-.013-.162-.013-.222.001-.117.016-.233.043-.347l.068-.371a.749.749 0 0 0-.025-.527.648.648 0 0 0-.444-.228l-.8-.17-.328 1.547-.808-.17.835-3.955 1.887.394c.212.047.415.127.602.238Zm-1.826.228-.22 1.061.881.189a1 1 0 0 0 .41.018.447.447 0 0 0 .325-.396.51.51 0 0 0-.12-.53.771.771 0 0 0-.365-.151l-.91-.19Z" fill="#fff"/></mask><g mask="url(#aa)"><path d="M86.823 70.729H75.965v11.736h10.858V70.73Z" fill="#FFFDFB"/></g><mask id="ab" style="mask-type:luminance" maskUnits="userSpaceOnUse" x="84" y="75" width="3" height="5"><path fill-rule="evenodd" clip-rule="evenodd" d="m85.534 79.63-.819-.218 1.011-3.915.819.205-1.011 3.928Z" fill="#fff"/></mask><g mask="url(#ab)"><path d="M90.082 71.945h-8.914v11.237h8.914V71.945Z" fill="#FFFDFB"/></g><mask id="ac" style="mask-type:luminance" maskUnits="userSpaceOnUse" x="87" y="76" width="5" height="5"><path fill-rule="evenodd" clip-rule="evenodd" d="M88.581 79.186a.855.855 0 0 0 .027.438.892.892 0 0 0 .6.449c.156.048.319.073.483.076a.472.472 0 0 0 .47-.351.345.345 0 0 0-.075-.345 1.888 1.888 0 0 0-.473-.338l-.383-.22a2.95 2.95 0 0 1-.747-.55 1 1 0 0 1-.143-.958 1.171 1.171 0 0 1 .642-.75c.396-.15.833-.15 1.229 0 .38.104.716.33.955.645a1.22 1.22 0 0 1 .166 1.08l-.78-.24a.584.584 0 0 0-.155-.591 1.227 1.227 0 0 0-.446-.24.918.918 0 0 0-.539-.02.41.41 0 0 0-.296.288.355.355 0 0 0 .09.368c.14.121.295.226.46.311l.614.368c.224.118.421.282.577.482a.991.991 0 0 1 .107.897 1.155 1.155 0 0 1-.671.757 1.77 1.77 0 0 1-1.255 0 1.952 1.952 0 0 1-1.087-.706 1.206 1.206 0 0 1-.143-1.081l.773.231Z" fill="#fff"/></mask><g mask="url(#ac)"><path d="M94.924 72.965H84.195v11.431h10.73v-11.43Z" fill="#FFFDFB"/></g><mask id="ad" style="mask-type:luminance" maskUnits="userSpaceOnUse" x="45" y="25" width="33" height="41"><path fill-rule="evenodd" clip-rule="evenodd" d="M61.515 65.012h.01c8.971 0 16.26-8.798 16.26-19.598 0-10.799-7.29-19.597-16.26-19.601h-.01c-8.969 0-16.265 8.794-16.265 19.601 0 10.808 7.294 19.592 16.265 19.598Zm0-38.253c8.451 0 15.326 8.37 15.326 18.655 0 10.286-6.875 18.652-15.326 18.652-8.45 0-15.326-8.37-15.326-18.652 0-10.282 6.875-18.655 15.326-18.655Z" fill="#fff"/></mask><g mask="url(#ad)"><path d="M81.328 22.27H41.707v46.302h39.62V22.27Z" fill="#FFFDFB"/></g><mask id="ae" style="mask-type:luminance" maskUnits="userSpaceOnUse" x="46" y="26" width="31" height="39"><path fill-rule="evenodd" clip-rule="evenodd" d="M50.938 55.932c-.183.117-.314.144-.394.072a.206.206 0 0 1-.059-.162c.007-.097.028-.193.062-.285a70.317 70.317 0 0 0 1.088-14.673c0-2.226-.053-4.077-.139-5.005a5.901 5.901 0 0 1-.026-.531c0-.714.22-.835.669-1.008l.047-.016a1.7 1.7 0 0 0 1.093-.708 2.424 2.424 0 0 1 2.174-1.631c.917 0 4.34 1.23 4.34 7.309a7.424 7.424 0 0 1-1.05 4.646 7.395 7.395 0 0 1-3.657 3.044l-.098.037c-.41.156-.454.521-.481.84l-.016.094c-.645 5.718-2.866 7.55-3.547 7.982m10.815-22.132c-.051-.255-.043-.345.02-.37.064-.024.15.064.293.314l.063.11a52.694 52.694 0 0 1 3.512 9.181.586.586 0 0 0 .066.179.741.741 0 0 0 .076-.179 54.416 54.416 0 0 1 3.766-9.477c.292-.41.39-.474.466-.442.076.033.062.183.02.4l-.024.13a63.711 63.711 0 0 0 2.047 22.05c.109.328.094.41.035.457-.06.047-.205-.062-.322-.183 0 0-.026-.034-.016-.028-2.996-1.999-4.525-8.329-4.57-8.823-.019-.222-.068-.271-.076-.282a.31.31 0 0 0-.024.044c-.244.82-.936 4.005-1.398 6.116-.205.987-.369 1.703-.41 1.83l-.049.206c-.033.143-.045.205-.115.205s-.088-.053-.204-.41c-.117-.358-.715-2.686-1.198-4.578a166.195 166.195 0 0 0-.681-2.61 1.13 1.13 0 0 0-.096-.259c-.015.023-.041.078-.041.078l-.375 1.172a11.909 11.909 0 0 1-3.79 6.695c-.533.396-.614.39-.674.34-.06-.048 0-.204.193-.485a43.308 43.308 0 0 0 3.48-21.383m-.24 30.267c8.45 0 15.326-8.37 15.326-18.651 0-10.282-6.875-18.658-15.326-18.658s-15.327 8.37-15.327 18.658c0 10.288 6.876 18.651 15.327 18.651Z" fill="#fff"/></mask><g mask="url(#ae)"><path d="M80.388 23.217H42.65v44.411h37.738v-44.41Z" fill="#FFFDFB"/></g><mask id="af" style="mask-type:luminance" maskUnits="userSpaceOnUse" x="59" y="3" width="5" height="5"><path fill-rule="evenodd" clip-rule="evenodd" d="M60.623 5.587a.782.782 0 0 1 .48-.72.776.776 0 0 1 1.06.568.782.782 0 0 1-.762.932.779.779 0 0 1-.778-.78Zm2.493 0a1.725 1.725 0 0 0-1.057-1.593 1.713 1.713 0 0 0-1.873.37 1.723 1.723 0 0 0 1.212 2.94 1.72 1.72 0 0 0 1.212-.503c.322-.322.504-.758.506-1.214Z" fill="#fff"/></mask><g mask="url(#af)"><path d="M66.659.312H56.142v10.543H66.66V.312Z" fill="#FFFDFB"/></g><mask id="ag" style="mask-type:luminance" maskUnits="userSpaceOnUse" x="0" y="-1" width="123" height="91"><path d="M122.811-.002H0v90h122.811v-90Z" fill="#fff"/></mask><g mask="url(#ag)"><mask id="ah" style="mask-type:luminance" maskUnits="userSpaceOnUse" x="0" y="-1" width="124" height="92"><path d="M123.27-.002H0v90.199h123.27V-.002Z" fill="#fff"/></mask><g mask="url(#ah)"><mask id="ai" style="mask-type:luminance" maskUnits="userSpaceOnUse" x="0" y="-1" width="123" height="91"><path fill-rule="evenodd" clip-rule="evenodd" d="M121.626 32.662a.492.492 0 0 1 .129.265.109.109 0 0 1-.01.047c-.031.115-.192.277-.547.41a1.673 1.673 0 0 1-1.346-.108l-.062-.03-.137-.049c-1.733-.66-1.091-.5-1.332 1.137-.041.205-.07.448-.101.696a20.035 20.035 0 0 1-.794 3.488l-.137.53a.714.714 0 0 1-.02.102 5.774 5.774 0 0 1-.676-.63l-.331-.349a8.43 8.43 0 0 1-2.942-4.793 2.508 2.508 0 0 1 .694-1.705 1.117 1.117 0 0 0 .528-.847.212.212 0 0 0 0-.062c-.039-.54-.587-.808-.984-1.003l-.184-.099a5.987 5.987 0 0 0-4.636-.07 4.993 4.993 0 0 0-2.567 4.014v.033a7.085 7.085 0 0 0 2.64 7.013 3.593 3.593 0 0 0-.347 1.008 6.13 6.13 0 0 1-.205.765c-.096.324-.205.673-.274 1.007-.942-1.436-2.238-3.632-2.635-4.37a9.41 9.41 0 0 1-.345-8.115 5.85 5.85 0 0 1 2.984-2.748 5.414 5.414 0 0 1 4.067-.205c.687.317 1.411.55 2.155.691a6.433 6.433 0 0 0 2.315-.316c.396-.131.81-.205 1.228-.217.588.135 1.16.33 1.709.58.348.155.707.284 1.074.386.182.027.366.033.549.019.264-.027.53-.007.788.057-.035.246-.132.48-.283.677h-.012v.013a3.133 3.133 0 0 0-.387 1.456c-.013.478.14.946.434 1.322Zm-1.379 4.568a10.73 10.73 0 0 0-1.108 4.017 1.816 1.816 0 0 0 .909 1.465c.084.05.078.132-.018.191-.064.035-.326.187-.326.187a3.656 3.656 0 0 1-1.351.439 1.11 1.11 0 0 1-.91-.318 6.199 6.199 0 0 1-1.273-3.786c.65.644 1.06.85 1.451.733.45-.138.532-.616.591-.955l.08-.332c.4-1.214.688-2.462.86-3.728.029-.36.098-.715.204-1.06.024.004.046.01.068.02l.057.028c.094.037.205.086.334.132.344.687.542 1.439.579 2.207a1.82 1.82 0 0 1-.147.76Zm-11.088 5.453c.103-.344.144-.57.23-.882a5.023 5.023 0 0 1 1.25-2.074c0-.015.017-.02.021-.033.02.072.067.256.067.256l.101.337a30 30 0 0 0 .528 1.625c.493 1.307.313 1.467 1.772.835l.391-.16a.76.76 0 0 1 .088-.05c.025.105.042.212.051.319v.065c.033.335.579 2.477.71 2.99.471 1.826-.024 1.68 1.488 1.07 1.05-.43 1.648-.317 1.691-.229.373.616-1.433 3.548-2.264 4.293a8.853 8.853 0 0 0-1.377 2.16l-.049.117a10.475 10.475 0 0 1-1.361 2.487 5.582 5.582 0 0 1-7.182 1.424l-.109-.045a6.532 6.532 0 0 0 .459-1.957 4.265 4.265 0 0 0 2.89.978 4.68 4.68 0 0 0 3.066-1.49 4.7 4.7 0 0 0 1.25-3.178 3.64 3.64 0 0 0-1.046-2.48 3.625 3.625 0 0 0-2.462-1.078 3.883 3.883 0 0 0-2.129.41c0-.08-.02-.243-.02-.45 0-.682.127-1.868.958-2.204.125-.047.344-.136.464-.169 1.411-.369 1.364-.383.41-1.067-.058-.04-.094-.055-.143-.096a1.024 1.024 0 0 0-.039-.039.349.349 0 0 1-.041-.205c.058-.504.172-1 .337-1.48Zm-2.21 18.262.252.187c.536.398 1.647 1.231 1.555 2.013-.069.59-.069 3.152-.069 3.178.057.622.157 1.239.296 1.847.119.597.236 1.219.266 1.52a10.766 10.766 0 0 1-.509 3.622.825.825 0 0 1-.614.382.868.868 0 0 1-.686-.138l-.123-.127c-.534-1.5-.755-.696-1.254.14l-.205.137c-.528.336-1.023-.168-1.156-.332a.55.55 0 0 1-.176-.392.843.843 0 0 0 0-.123c.241-1.353.184-1.221-.878-.628a.925.925 0 0 0-.17.096c-.119.074-.576.242-.67.174-.247-.205-.335-.324-.335-.802a4.92 4.92 0 0 1 2.251-2.712 3.08 3.08 0 0 0 1.453-2.873c0-.154-.01-.312-.024-.48a2.799 2.799 0 0 0-1.447-2.257 15.146 15.146 0 0 0-2.661-.446 9.22 9.22 0 0 1-4.49-2.1 11.794 11.794 0 0 1-3.435-5.494 2.078 2.078 0 0 1-.05-.519 12.75 12.75 0 0 1 .858-4.02 4.638 4.638 0 0 0 .485-2.123v-.25a16.3 16.3 0 0 1 1.558 1.342c1.703 1.674 1.404.904.514-.329a8.17 8.17 0 0 0-1.842-2.015 10.277 10.277 0 0 0-3.496-1.5 7.561 7.561 0 0 1-3.058-1.196c.115-.068.223-.125.307-.178.084-.054.819-.536 1.504-1.039.252.375.623.654 1.052.79a2.332 2.332 0 0 0 2.195-.755c.23-.361.423-.745.577-1.145 0 0 .204-.451.204-.472.592-.52 1.231-.983 1.91-1.383.434-.205.321-.293-.106-.232-.508.078-2.29.569-2.61 1.135l-.274.591a5.194 5.194 0 0 1-.477.966 1.453 1.453 0 0 1-1.198.38 1.094 1.094 0 0 1-.53-.46c.114-.099.218-.21.31-.33a.465.465 0 0 0-.51-.689.483.483 0 0 0-.295.203l.01-.019a19.222 19.222 0 0 1-2.274 1.669c-.599.402-1.231.75-1.89 1.042l-.529.263-.258.108a1.656 1.656 0 0 0-1.228 1.605c-.098.985-.473 1.705-.765 1.734a1.269 1.269 0 0 1-.921-.448 1.948 1.948 0 0 1-.205-.268c-.297-.821-.436-.821-.933-.206-.156.191-.75 0-.94-.059-.19-.06-.456-.248-.383-.564.326-1.642.326-1.726-.884-1.387-.182.028-.307-.084-.41-.28-.102-.194.048-.642.277-1.356l.023-.07a4.164 4.164 0 0 1 1.291-1.565c.258-.252.614-.548.856-.796a6.281 6.281 0 0 1 2.251-.979 8.165 8.165 0 0 0 2.712-1.453 15.599 15.599 0 0 1 3.07-2.052c.49-.227.459-.398-.331-.172a13.196 13.196 0 0 0-3.398 1.57 2.757 2.757 0 0 1-.176.152 5.378 5.378 0 0 1 .397-5.233l.039-.057h.092l.254-.019.866-.051a1.012 1.012 0 0 0 .299.76 2.019 2.019 0 0 0 1.917.227c.027-.01 2.661-1.122 3.162-1.467.173-.113.353-.214.539-.302.067.58.204 1.586.36 2.317a1.682 1.682 0 0 0 .894 1.305 1.085 1.085 0 0 0 1.007-.082l.115-.05a3.85 3.85 0 0 0 1.879-2.082c.067-.148.131-.271.18-.374.019.04.025.068.05.12l.147.307.16.337a28.43 28.43 0 0 1 3.274 10.425l.178 1.767a5.346 5.346 0 0 0 1.637 3.583c.114.097.215.21.299.334.418.854.69 1.772.803 2.717v.055c.002.208.029.414.079.616a7.097 7.097 0 0 1-.315 2.872 40.51 40.51 0 0 1-.54-.802c-1.095-1.678-3.32-3.11-.794.499a22.992 22.992 0 0 0 3.86 4.65l-.002-.005Zm2.929 11.918h11.14c-.614 1.077-2.927 5.097-2.927 5.097s2.211 4.308 2.755 5.373H93.518l2.215-7.592-.393-.158a88.26 88.26 0 0 0-3.869-1.319c.84-.67 1.687-1.35 1.746-1.395h8.652c.121.162.265.305.428.424a1.52 1.52 0 0 0 1.34 0c.057.26.174.503.342.708a1.812 1.812 0 0 0 2.38.522l.41-.284a1.773 1.773 0 0 0 1.48.396 1.737 1.737 0 0 0 1.312-.86 3.64 3.64 0 0 0 .317-.908v-.004ZM90.939 88.785a92.152 92.152 0 0 0-29.364-5.008h-.056a91.96 91.96 0 0 0-29.367 5.014L28.517 76.31a100.219 100.219 0 0 1 33-5.772h.057a100.444 100.444 0 0 1 33.033 5.784l-3.668 12.463ZM1.803 83.333c.545-1.067 2.757-5.373 2.757-5.373s-2.309-4.018-2.933-5.097h9.127c0 .039-.01.08-.01.123-.003.207.05.412.15.593a1.32 1.32 0 0 0 .99.615 7.835 7.835 0 0 0 1.59.111h.204c1.12-.037 2.364-.082 2.745-1.436h13.4c.062.045.96.714 1.86 1.377a91.81 91.81 0 0 0-3.927 1.335l-.39.144 2.23 7.613-27.793-.005Zm8.662-12.721-.876-.052a.27.27 0 0 1-.164-.055c-.088-.127.041-.683.11-.979.067-.301.11-.607.128-.915a7.92 7.92 0 0 1 .118-.909c.239-1.05.358-2.123.354-3.199 0-.396-.01-.83-.043-1.305-.026-.41-.04-.74-.04-1.013 0-.873.116-1.11.171-1.178.035-.037.146-.045.322-.058l.315-.026.283-.03a5.55 5.55 0 0 0 4.502-2.388c.921-1.475 1.149-2.938 1.347-6.566a9.742 9.742 0 0 1 3.854-6.839l.64-.357c.85-.467 1.878-1.134 2.74-1.655.44-.193.793-.544.99-.983.187-.528.402-1.046.643-1.551.423-.914.773-1.86 1.043-2.83a10.34 10.34 0 0 0-.36-6.09c.115.032.233.055.352.068a1.176 1.176 0 0 0 1.265-.616c.324.267.698.466 1.1.587 1.092.41 2.455.753 3.117.172.034.04.067.08.098.123a32.988 32.988 0 0 0 4.707 3.39c1.842 1.231 3.754 2.497 4.587 3.201.459.386.639.566.639 1.067-.002.155-.015.31-.04.464-.048.39-.16.948-.282 1.53a22.688 22.688 0 0 0-.372 3.058c-.025 1.072.01 2.145.104 3.213l.041.492c.026.183.04.368.041.552a.67.67 0 0 1-.317.676c-.86.395-1.743.738-2.645 1.026-.624.205-.988.336-1.162.422a.73.73 0 0 1-.639.017c-.204-.132-.25-.485-.26-.755l-.032-.673c-.062-.93-.066-.983.614-1.232a.539.539 0 0 1 .458.017c.35.133.736.133 1.085 0a2.548 2.548 0 0 0 1.523-1.502c.343-.632.151-1.408.235-2.811l.055-.963c.066-.705.447-1.709-1.41-2.304-3.14-1.01-4.976-1.55-5.61-1.654a5.537 5.537 0 0 1-2.012-.708.449.449 0 0 0-.493-.1.475.475 0 0 0-.146.763c.748.52 1.608.855 2.51.977.399.07 1.666.435 5.487 1.631.092.026.18.065.262.115-.15.308-.305.616-.473.944A18.601 18.601 0 0 1 35.9 46.8a8.044 8.044 0 0 1-4.409 2.157 8.42 8.42 0 0 0-4.208 1.461 8.45 8.45 0 0 0-2.88 3.406 31.086 31.086 0 0 0-1.397 3.135 9.463 9.463 0 0 1-.985 2.081c-.614.72-2.237 1.578-3.046 1.231a2.356 2.356 0 0 0-2.384-.115c-.379.218-.248.511-.983.452-.264-.023-1.19-.078-1.21.184-.018.263.64.497.891.517 1.447.121 1.28-.05 1.769-.328.258-.148.47-.27 1.275.045a1.827 1.827 0 0 1-1.169 1.273 5.978 5.978 0 0 1-2.532.071c-.906-.098-2.23.154-2.354.905l-.084.38c-.119.486-.212.979-.278 1.475a4.5 4.5 0 0 0 .592 2.852c.204.205.753.667 1.295 1.125l.874.74.148.126c.397.336.802.685.765 2.068-.039 1.215-.497 1.28-1.953 1.332h-.204a2.412 2.412 0 0 1-1.638-.368c-.28-.184.177-.786.24-.978a1.21 1.21 0 0 0 .067-.296c.26-1.085.97-1.053-1.005-1.073-.178-.029-.399-.03-.632-.037v-.01Zm-.688-18.3c-.97-1.97-.122-4.979 2.252-8.049l.64-.863.285-.34a5.582 5.582 0 0 0 1.28-3.011 2 2 0 0 0-.07-.538 1.598 1.598 0 0 0-1.07-1.081 1.636 1.636 0 0 1-.46-.22c.16-.163.336-.308.527-.433l.23-.156a2.07 2.07 0 0 1 1.49-.318l.242.062a1.202 1.202 0 0 0 1.024-.02c.41-.239.673-.77.898-1.798a6.547 6.547 0 0 0-1.009-4.816 5.328 5.328 0 0 0-4.388-2.462 2.194 2.194 0 0 0-1.797 1.847 3.52 3.52 0 0 0-.176 1.003 4.246 4.246 0 0 0 1.228 3.004c.022.02.045.04.07.057-.058.015-.17.037-.185.037a1.436 1.436 0 0 1-.245-.018c-.571-.062-2.399-.466-2.614.97v.113a4.034 4.034 0 0 1-.8 2.052c-.193.37-.442.707-.737 1.001-.061-.137-.123-.36-.16-.471l-.063-.226a5.479 5.479 0 0 1-.205-1.553v-.134c0-.188.027-.375.078-.556.089-.182.142-.38.158-.583a.53.53 0 0 0-.221-.437c-.41-.301-.762.082-1.658.67-.743.483-.977.483-1.415.42a5.728 5.728 0 0 1-.933-.265c-.178-.053-.313-.06-.41-.092.937-.82 1.73-1.791 2.348-2.873a.98.98 0 0 0-.067-.472 3.626 3.626 0 0 0-1.754-1.346 21.445 21.445 0 0 1 2.489-.714 9.672 9.672 0 0 0 3.815-1.55 12.151 12.151 0 0 1 3.573-1.526c1.896-.433 3.562.6 5.613 3.5a6.657 6.657 0 0 1 .998 3.914 10.74 10.74 0 0 1-.745 4.022l-.118.227c-.235.38-.375.81-.41 1.254a1.45 1.45 0 0 0 .74 1.209c.431.293.644.498.644.785a1.663 1.663 0 0 1-.313.788l-.692 1.096a17.14 17.14 0 0 0-1.077 1.806c-.043.098-.335.582-.372.468l-.088-.36-.16-.687c-.243-1.459-.477-1.756-.866-1.814a.596.596 0 0 0-.626.361l-.41.725-.409.67-.425.557-.457.628c-1.228 1.674-3.094 4.202-1.15 6.613a3.912 3.912 0 0 0 4.323.693c-.043.69-.099 1.275-.162 1.775-2.97.006-5.221-.882-6.03-2.534l.002-.01ZM7.681 39.527l-.47.728c-.704 1.178-1.277 2.329-1.697 3.174l-.18.372c-.34.732-.41.759-.614.718.018-.167.05-.333.096-.495.087-.284.137-.577.15-.874a.645.645 0 0 0 0-.133 10.702 10.702 0 0 0-1.796-3.503l-.129-.205a3.008 3.008 0 0 1-.329-1.582c0-.453.04-.909.074-1.26v-.012a2.683 2.683 0 0 0 2.124-.54v.1c.014.666.124 1.325.328 1.958l.049.173c.12.445.317 1.188.976 1.272.567.078 1.1-.39 1.779-1.552a4.807 4.807 0 0 0 .943-2.634v-.051l.027-.033c.014-.017.065-.02.143-.023a7.163 7.163 0 0 1-1.476 4.412l.002-.01Zm18.325-9.187a10.223 10.223 0 0 0-1.023-1.721v-.015a1.98 1.98 0 0 0-.152-.174c-1.83-2.296-1.406-1.41-1.62.32a5.623 5.623 0 0 0-.048.41c-.013.198-.04.395-.078.59a.707.707 0 0 1-.16.356c-.038.02-.15.037-.536-.084a3.51 3.51 0 0 1-2.456-2.511l-.016-.04a4.53 4.53 0 0 0-.205-.516c-.89-2.303-.632-1.375-1.369-.548a1.337 1.337 0 0 0-.205.22l-.067.077a.651.651 0 0 1-.176.177.408.408 0 0 1-.078-.072 8.303 8.303 0 0 1-1.183-1.943 1.63 1.63 0 0 1-.082-.579 9.434 9.434 0 0 1 .205-1.586l.039-.222.028-.147c.22-.77.324-1.184.019-1.488-.305-.304-.682-.187-1.374 0l-.137.037c-.124.039-.25.07-.378.094.134-.66.21-1.33.225-2.002a2.612 2.612 0 0 0-1.402-2.682 2.692 2.692 0 0 1-.41-.222 12.136 12.136 0 0 0 5.615-2.848l.376-.396a4.197 4.197 0 0 1 1.654-1.286 1.71 1.71 0 0 1 1.206.41c.124.086.386.329.556.478.293.263.594.534.92.228a.497.497 0 0 0 0-.696c-.58-.712-.928-1.545-.803-1.725 0 0 .176-.158 1.208.039h-.04c.834.205 3.14 1.272 1.873.205.273-.062.553-.16.84-.236l.409-.082c.212-.03.428-.03.64 0 .574.098.98.154 1.271.228l.085.018h.376a9.915 9.915 0 0 1-.068.187.412.412 0 0 0-.077.178c-.082.569 1.177 1.675 1.185 1.687.241.205 1.154 1.102 2.116 2.052 1.418 1.4 3.031 2.991 3.635 3.5.856.727.733 1.396.614 1.589-.155.262-.446.5-.68.435l-.27-.117c-.376-.175-.888-.41-1.262-.072a.744.744 0 0 0-.226.572c.015.314.085.623.205.913.04.114.073.23.098.35-.155.276-.749.29-1.131.067a11.95 11.95 0 0 1-1.214-.985l-.813-.681a7.026 7.026 0 0 0-2.787-1.125 3.468 3.468 0 0 1-.563-.188 6.403 6.403 0 0 0-.426-.156 2.963 2.963 0 0 1-1.191-1.974c-.06-.263-.23-.382-.264-.031a4.049 4.049 0 0 0 .675 2.834c.23.394.504.76.819 1.091l.41.515a11.844 11.844 0 0 0 3.86 3.505l1.316.691c2.456 1.231 6.005 2.578 7.433 6.464a9.533 9.533 0 0 1 .193 5.23c-.968-.69-2.233-1.533-3.48-2.36-.724-.48-1.512-1.005-2.23-1.493l.474-.243a2.58 2.58 0 0 0 1.355-1.602c.166-.843-.473-1.59-1.05-2.526-1.359-2.185-4.583-2.667-6.654-2.938l-1.398-.22a14.284 14.284 0 0 1-6.396-2.872c-2.229-1.993-1.924-5.807-1.695-6.944.047-.26 0-.82-.204-.226-.31 1.254-1.337 5.54 1.273 7.875a15.78 15.78 0 0 0 6.977 3.128l1.329.205c1.899.242 4.9.777 6.025 2.579.485.78.96 1.328.878 1.773-.057.295-.372.615-.935.974l-.882.41a9.08 9.08 0 0 1-1.351-1.062 2.386 2.386 0 0 0-.465-.499c-1.518-1.215-.833-.47-.956.253-.172.131-.89.151-2.192-.347-.75-.291-.796-.326-1.113-.772-.94-1.216-.76-.73-.976.3-.078.37-.134.482-.492.443a2.01 2.01 0 0 1-.976-.433ZM23.1 9.272h-.088a1.021 1.021 0 0 0-.876.41 1.276 1.276 0 0 0-.066.112 15.363 15.363 0 0 1-1.776-1.334 2.32 2.32 0 0 1-.527-.591 4.722 4.722 0 0 1 2.236.41l.032.015h.029c.251.06.506.102.763.127l.273.851Zm3.545-.467-.02.028-.02.041a1.287 1.287 0 0 1-.409.468l-.585-1.846a5.36 5.36 0 0 0 .456-.497l.017-.02.014-.017a4.81 4.81 0 0 1 1.57-1.658c0 .047.01.082.01.138-.003.22-.034.44-.09.652-.193.945-.51 1.859-.945 2.719l.002-.008Zm-7.352.843a2.676 2.676 0 0 1-1.167-2.157 1.235 1.235 0 0 1 .708-.948 4.615 4.615 0 0 1 3.53.224c.23.065.468.098.707.097h.205l-.457-1.437c.205-.061.856-.273 1.052-.342l.469 1.454.168-.145c.188-.169.354-.362.491-.575a4.565 4.565 0 0 1 2.66-2.134 1.225 1.225 0 0 1 1.125.353c.316.399.475.9.446 1.41a4.126 4.126 0 0 1-.135 1.026 15.8 15.8 0 0 1-.915 2.762c-.078 0-.162-.033-.25-.048a2.191 2.191 0 0 0-.47-.03.838.838 0 0 0-.138.014 11.81 11.81 0 0 0 1.007-2.891 3.48 3.48 0 0 0 .11-.841 1.31 1.31 0 0 0-.253-.852.427.427 0 0 0-.41-.105c-.667.115-1.445.797-2.308 2.052-.22.275-.473.52-.753.73.092.28.595 1.753.595 1.753s.109.316.205.585h-.082a28.74 28.74 0 0 0-1.334-.238l-.058-.205-.487-1.613h-.112a4.492 4.492 0 0 1-1.147-.132h-.016a4.368 4.368 0 0 0-3.15-.29.548.548 0 0 0-.352.436v.09a2.312 2.312 0 0 0 .947 1.504 17.446 17.446 0 0 0 1.927 1.437.282.282 0 0 1-.097.018 1.706 1.706 0 0 0-.698-.01c-.079.02-.157.045-.233.074a13.945 13.945 0 0 1-1.332-1.016l.002-.01Zm28.67 58.719c-.364.022-.802.09-1.266.168-.973.15-2.299.368-2.755 0a.522.522 0 0 1-.168-.443 7.556 7.556 0 0 1 2.456-5.706 20.393 20.393 0 0 0 10.301 7.34h.41a98.054 98.054 0 0 0-5.414.428c-.108-.107-.221-.226-.242-.242l-.081-.072a4.546 4.546 0 0 0-3.242-1.463l.002-.01Zm-7.35 1.88c.252.005.5-.062.715-.193a1.337 1.337 0 0 0 .55-.942 5.418 5.418 0 0 0-1.575-4.014 11.904 11.904 0 0 1 3.79-5.92l.04-.034c.463.85.977 1.672 1.536 2.462a8.49 8.49 0 0 0-2.828 6.523 1.438 1.438 0 0 0 .507 1.118c.778.644 2.225.41 3.5.205.438-.067.852-.133 1.167-.151a4.22 4.22 0 0 1 2.194.978c-2.745.333-5.496.768-8.214 1.31a3.95 3.95 0 0 1-1.023-.782 2.928 2.928 0 0 1-.36-.552l.002-.009Zm-7.288-18.184a1.49 1.49 0 0 1 1.78.64l.451.786a9.17 9.17 0 0 1 .866 1.715c.108.691-1.842 2.778-3.04 3.418-.78.435-1.533.922-2.25 1.455a1.952 1.952 0 0 0-.382 1.063c.001.119.017.236.047.351a1.9 1.9 0 0 0 1.149 1.112 14.585 14.585 0 0 0 3.643 1.26c.92.157 1.78.568 2.48 1.186.391.342.843.606 1.333.778l.479.12a5.729 5.729 0 0 1 1.089 2.785c0 .069-.007.138-.019.205a.483.483 0 0 1-.137.314c-.161.105-.579.015-.92-.072l-.347-.082-.292-.065-.41-.06c-.845-.108-1.447-.217-1.51-.695a6.507 6.507 0 0 0-.105-.643c-.409-1.641-.347-.93-1.058-.67l-.155.036c-.365.09-.7.035-1.832-.566a6.257 6.257 0 0 1-1.259-.921 5.204 5.204 0 0 0-1.35-.932l-1.255-.48a16.562 16.562 0 0 1-2.096-.864l-.103-.053c-.583-.308-1.369-.73-1.492-1.28a1.39 1.39 0 0 1 .391-1.084 6.131 6.131 0 0 1 1.433-1.57c.176-.084.802-.615.65-1.056-.122-.374-.503-.788-1.794-.57a5.02 5.02 0 0 1-3.187-.596l-.129-.053a29.23 29.23 0 0 1 1.238-2.744 9.654 9.654 0 0 1 1.046-1.602l.266-.296c2.258.305 4.552.216 6.78-.262l.001-.008Zm6.4-5.606c-.366.679-.466.864-1.033 1.069a.612.612 0 0 1-.504-.013 1.466 1.466 0 0 0-1.023 0c-1.34.49-1.3 1.205-1.228 2.19l.037.642c0 .356.083.707.241 1.026.123.192.277.362.457.503a1.576 1.576 0 0 0 1.477.037c.144-.068.602-.228 1.079-.39.64-.224 1.386-.474 1.987-.722a28.09 28.09 0 0 0 2.47 7.477l-.226.221a12.635 12.635 0 0 0-4.049 6.312 3.334 3.334 0 0 1-.724-.48 5.981 5.981 0 0 0-2.948-1.395 14.67 14.67 0 0 1-3.397-1.189c-.352-.16-.573-.342-.627-.515a.8.8 0 0 1 .205-.615 9.709 9.709 0 0 1 1.924-1.133c.968-.527 3.768-2.922 3.53-4.416a7.972 7.972 0 0 0-.982-2.051l-.444-.772a2.396 2.396 0 0 0-2.826-1.108c-1.886.38-3.812.512-5.731.392a7.315 7.315 0 0 1 4.173-1.642 8.899 8.899 0 0 0 4.955-2.39 19.237 19.237 0 0 0 3.238-4.247c.039-.068.068-.132.106-.206 0 .111-.016.222-.022.35l-.02.276c.096.932.064 1.873-.095 2.797v-.008ZM15.432 69.233l-.14-.113-.889-.753c-.5-.427-1.064-.903-1.228-1.071a3.93 3.93 0 0 1-.346-1.716c0-.117.006-.235.018-.352.062-.465.15-.926.263-1.381 0 0 .049-.232.071-.351a2.246 2.246 0 0 1 1.345-.206 6.401 6.401 0 0 0 2.988-.13 2.76 2.76 0 0 0 1.723-1.888 4.905 4.905 0 0 0 3.502-1.642c.383-.541.69-1.133.91-1.759l.093.041a5.886 5.886 0 0 0 3.723.657 2.97 2.97 0 0 1 .36-.04 7.86 7.86 0 0 0-1.555 1.733 2.539 2.539 0 0 0-.6 1.502c0 .12.014.24.041.357.205.983 1.228 1.516 1.963 1.912l.109.056c.714.36 1.454.666 2.214.917l1.202.466c.409.196.783.458 1.107.775.435.401.916.75 1.433 1.037 1.134.603 1.764.839 2.503.648l.088-.012c.033.166.063.41.076.502.161 1.231 1.459 1.394 2.316 1.506l.377.05.41.096c.162.49.408.948.726 1.354l.549.43a98.241 98.241 0 0 0-8.024 2.051l-2.638-1.986H16.52v-.072a2.864 2.864 0 0 0-1.086-2.606v-.012ZM93.22 55.59c0 .057.037.123.053.205a4.936 4.936 0 0 0-.46.41c-.761.345-1.887-.453-2.456-.85l-.07-.048c-1.211-.936-2.308-1.137-.544.529l.072.05c.672.568 1.45.998 2.288 1.265a3.106 3.106 0 0 0 .313 3.019l.098.172c.113.202.258.385.43.54.323.33.479.486.272 1.01-.299.75-2.173.736-2.865.732h-.205a14.08 14.08 0 0 0-3.966 1.065 6.592 6.592 0 0 0-2.295 2.441 9.329 9.329 0 0 1-.845 1.1.368.368 0 0 1-.287.06.476.476 0 0 1-.331-.294l-.23-.77c-.167-.773-.024-1.185-.95-.525a.494.494 0 0 1-.486 0c-.225-.143-.473-.387-.365-.599.019-.03.205-.394.205-.394.577-1.058.174-1.026-.735-.931a1.387 1.387 0 0 0-.215.029c-.114.022-.489-.206-.636-.632-.184-.51.057-.96.683-1.303.397-.213.82-.37 1.26-.468a7.294 7.294 0 0 1 1.039-.175 19.404 19.404 0 0 1 2.785-.043l.78.025a3.287 3.287 0 0 0 2.52-.856 1.343 1.343 0 0 0 .205-1.23 5.255 5.255 0 0 0-1.396-2.02c-.426-.43-.818-.892-1.173-1.383a5.222 5.222 0 0 1-.107-4.976c.136-.442.42-.825.803-1.083.225-.09.48 0 .843.168l.256.109c2.24.555 4.584.52 6.805-.103a2.493 2.493 0 0 1-.204.53 11.228 11.228 0 0 0-.889 5.236v-.012ZM74.981 69.305c.323.018.74.084 1.172.151 1.282.206 2.723.438 3.502-.205a1.436 1.436 0 0 0 .51-1.118 6.854 6.854 0 0 0-.104-1.802 1.363 1.363 0 0 0 1.283.302c.047.133.09.312.127.447l.035.136a1.387 1.387 0 0 0 1.052.974c.13.032.265.037.397.015a5.52 5.52 0 0 1-.923 2.608c-.319.29-.668.543-1.042.757a109.947 109.947 0 0 0-8.144-1.29 3.842 3.842 0 0 1 2.133-.955l.002-.02Zm2.327-7.72a25.39 25.39 0 0 0 1.535-2.462l.076.076c.421.41.906.862 1.39 1.418-.371.108-.73.253-1.071.435a2.167 2.167 0 0 0-1.167 1.38c-.284-.342-.558-.623-.763-.847Zm1.928 6.509a.54.54 0 0 1-.174.443c-.45.376-1.78.16-2.75 0a12.793 12.793 0 0 0-1.266-.168 4.545 4.545 0 0 0-3.256 1.459 5.493 5.493 0 0 0-.313.303c-1.8-.184-3.6-.33-5.375-.41h.317a20.39 20.39 0 0 0 10.324-7.36 7.593 7.593 0 0 1 2.487 5.733h.006Zm22.332 3.833h-8.652l-2.521 2a101.07 101.07 0 0 0-8.111-2.072c.168-.129.325-.27.47-.425a7.039 7.039 0 0 0 1.208-3.808.28.28 0 0 0 .037-.037l.565-.808a6.78 6.78 0 0 1 1.975-2.233 13.575 13.575 0 0 1 3.598-.989h.205c1.043 0 3.221.029 3.76-1.325a1.66 1.66 0 0 0-.477-2.017 1.549 1.549 0 0 1-.254-.304l-.123-.224a2 2 0 0 1 .151-2.737c.023-.016.052-.026.078-.047a.41.41 0 0 0 .148-.16 11.901 11.901 0 0 0 3.383 4.85 10.016 10.016 0 0 0 4.978 2.292c.821.07 1.635.207 2.433.41a2.043 2.043 0 0 1 .819 1.437 2.364 2.364 0 0 1-.972 2.462 5.535 5.535 0 0 0-2.71 3.53c-.015.065.002.133.006.203l.006.002Zm-13.34-26.705.012.014a7.782 7.782 0 0 0 3.714 1.641c.84.186 1.651.487 2.41.895.093.345.133.702.118 1.059a13.04 13.04 0 0 1-6.646.228l-.204-.087a1.965 1.965 0 0 0-1.564-.18 2.694 2.694 0 0 0-1.328 1.594 6.145 6.145 0 0 0 .204 5.879c.381.53.803 1.03 1.263 1.494a4.638 4.638 0 0 1 1.173 1.623.429.429 0 0 1-.047.41 2.485 2.485 0 0 1-1.777.484l-.743-.022a17.855 17.855 0 0 0-3.48.12 20.495 20.495 0 0 0-1.78-1.846l-.264-.256a28.617 28.617 0 0 0 2.771-9.62c.136-.01.27-.043.395-.096.054.08.109.15.109.15a2.2 2.2 0 0 0 1.744.788c.845-.09 1.492-1.408 1.6-2.586.058-.589.236-.66.639-.82l.336-.148.52-.253c.753-.392-.115.02.816-.468l.008.003Zm-45.615-.483c.05-.98.167-1.954.355-2.917.126-.616.243-1.176.296-1.615a2.125 2.125 0 0 0-.647-2.126 26.896 26.896 0 0 1 4.503-9.307 17.41 17.41 0 0 1 6.243-5.585 17.362 17.362 0 0 1 16.243 0 17.41 17.41 0 0 1 6.243 5.585 27.458 27.458 0 0 1 5.147 12.391l-.485.458a4.861 4.861 0 0 0-1.562 1.984l-.02.072a5.59 5.59 0 0 0-.352 1.5c-.006.21.047.418.153.6a1.409 1.409 0 0 0 1.048.74c.076 0 .133.254.133.443v.078a.618.618 0 0 0-.014.143c0 .372.176.913 1.072 1.276.056.021.117.033.172.056-1.285 11.806-9.62 20.983-19.648 20.983-9.518 0-17.484-8.225-19.393-19.118a1.997 1.997 0 0 0 .665-2.116l-.04-.373a28.428 28.428 0 0 1-.12-3.154l.008.002Zm8.955-27.823a4.509 4.509 0 0 0-.301-.41 1.719 1.719 0 0 0-1.013-1.977 1.708 1.708 0 0 0-.657-.129c-.114 0-.228.01-.34.03.14-.28.21-.589.205-.902a2.013 2.013 0 0 0-.587-1.415 2.003 2.003 0 0 0-1.41-.59c-.062 0-.124.003-.185.01.276-.398.424-.872.424-1.358a2.393 2.393 0 0 1-1.692-2.084 2.404 2.404 0 0 1 1.299-2.35 2.455 2.455 0 0 0-.115-.722c.377.205.8.31 1.228.306a2.597 2.597 0 0 0 2.556-2.187 1.995 1.995 0 0 0 1.638.857 2.01 2.01 0 0 0 1.6-.802 1.715 1.715 0 0 0 1.526 1.423 1.706 1.706 0 0 0 1.764-1.113h.01l.67 3.603a10.199 10.199 0 0 0-6.244-1.78 3.625 3.625 0 0 0-2.865 1.78 4.576 4.576 0 0 0 .856 4.82 19.85 19.85 0 0 0 3.719 4.118l.034.035a32.19 32.19 0 0 0-2.128.837h.008Zm-1.971 0a.778.778 0 0 1-.765-.934.782.782 0 0 1 1.062-.57.78.78 0 0 1-.305 1.498l.008.006Zm-2.125-2.305a1.058 1.058 0 0 1-.976-.658 1.066 1.066 0 0 1 .773-1.447 1.059 1.059 0 0 1 1.185 1.448 1.067 1.067 0 0 1-.99.653l.008.004Zm-2.155-2.96a1.455 1.455 0 0 1-1.348-.901 1.465 1.465 0 0 1 1.062-1.993 1.454 1.454 0 0 1 1.497.622c.16.24.245.524.244.813a1.465 1.465 0 0 1-1.463 1.452l.008.007Zm-1.854-5.893a1.463 1.463 0 0 1 .9-1.348 1.454 1.454 0 0 1 1.986 1.062 1.464 1.464 0 0 1-.615 1.5 1.455 1.455 0 0 1-1.37.14 1.464 1.464 0 0 1-.91-1.359l.009.005Zm4.973-4.673a1.655 1.655 0 0 1 1.53 1.028 1.666 1.666 0 0 1-1.209 2.265 1.654 1.654 0 0 1-1.701-.707 1.666 1.666 0 0 1 1.372-2.591l.008.005Zm4.194-.14a1.058 1.058 0 0 1 .978.658 1.064 1.064 0 0 1-.774 1.448 1.058 1.058 0 0 1-1.266-1.042 1.06 1.06 0 0 1 1.054-1.07l.008.007Zm3.287 1.193a.774.774 0 0 1 .776.778.779.779 0 0 1-.776.777.775.775 0 0 1-.776-.777.78.78 0 0 1 .776-.778Zm4.094-.9c0-.235.286-.274.456-.274h2.078c.165 0 .454.04.454.273a1.902 1.902 0 0 0 1.67 1.775l-2.198 11.846v.012a25.7 25.7 0 0 0-.964-.02c-.323 0-.614 0-.935.02v-.012L58.377 3.006A1.89 1.89 0 0 0 60 1.233l.01.004Zm3.393 13.681h.013l1.228-6.64a10.245 10.245 0 0 1 6.318-2.123 2.695 2.695 0 0 1 2.143 1.313 3.908 3.908 0 0 1-.796 4.058 17.058 17.058 0 0 1-3.996 4.236l-.02.024a24.711 24.711 0 0 0-4.904-.874l.014.006Zm-8.653.831a16.742 16.742 0 0 1-3.996-4.229 3.901 3.901 0 0 1-.802-4.058 2.712 2.712 0 0 1 2.15-1.314 10.24 10.24 0 0 1 6.315 2.124l1.229 6.64c-1.65.123-3.282.41-4.874.856l-.022-.019Zm15.964 7.092A17.64 17.64 0 0 0 52.33 22.8a8.858 8.858 0 0 0 .279-2.208 20.694 20.694 0 0 1 17.858.055 8.11 8.11 0 0 0 .237 2.188l.012.006Zm-.151-3.19a21.564 21.564 0 0 0-18.024-.06 5.64 5.64 0 0 0-.559-1.823 24.047 24.047 0 0 1 19.195.048 5.342 5.342 0 0 0-.622 1.83l.01.006ZM65.533 3.528l.02-.018a1.715 1.715 0 0 0 1.764 1.127A1.71 1.71 0 0 0 68.85 3.21a2.005 2.005 0 0 0 1.598.802 1.973 1.973 0 0 0 1.638-.857c.099.61.41 1.164.88 1.564a2.598 2.598 0 0 0 2.908.317 2.333 2.333 0 0 0-.112.723 2.4 2.4 0 0 1 1.29 2.35 2.406 2.406 0 0 1-1.685 2.084c-.002.485.146.96.423 1.358a1.992 1.992 0 0 0-1.885.942 2.004 2.004 0 0 0-.08 1.953 1.88 1.88 0 0 0-.343-.03 1.71 1.71 0 0 0-1.585 1.058 1.723 1.723 0 0 0-.071 1.11c-.086.084-.24.24-.342.351a22.71 22.71 0 0 0-2.13-.82l.036-.046a19.961 19.961 0 0 0 3.715-4.118 4.537 4.537 0 0 0 .853-4.82 3.632 3.632 0 0 0-2.865-1.779 10.186 10.186 0 0 0-6.24 1.78l.679-3.606Zm1.637-1.389a.775.775 0 0 1 .761.928.778.778 0 0 1-1.055.57.776.776 0 0 1-.481-.716.78.78 0 0 1 .753-.788l.022.006ZM70.457.946a1.059 1.059 0 0 1 .981.655 1.066 1.066 0 0 1-.771 1.45 1.058 1.058 0 0 1-1.089-.452 1.065 1.065 0 0 1 .123-1.336c.194-.2.458-.316.736-.323l.02.006Zm4.194.14a1.655 1.655 0 0 1 1.535 1.023 1.666 1.666 0 0 1-.357 1.812 1.657 1.657 0 0 1-2.832-1.174A1.67 1.67 0 0 1 74.63 1.08l.022.006Zm3.52 3.209a1.457 1.457 0 0 1 1.349.902 1.465 1.465 0 0 1-1.062 1.995 1.456 1.456 0 0 1-1.499-.62 1.465 1.465 0 0 1-.247-.812 1.47 1.47 0 0 1 1.437-1.48l.023.015Zm1.06 5.899a1.466 1.466 0 0 1-.901 1.352 1.457 1.457 0 0 1-1.99-1.07 1.466 1.466 0 0 1 .625-1.5c.24-.16.523-.246.812-.245a1.456 1.456 0 0 1 1.432 1.457l.023.006Zm-3.612 4.42a1.06 1.06 0 0 1-1.042-1.268 1.063 1.063 0 0 1 1.443-.779 1.061 1.061 0 0 1 .573 1.39 1.067 1.067 0 0 1-.996.65l.022.007Zm-2.126 2.304a.779.779 0 0 1-.765-.934.782.782 0 0 1 1.062-.57.78.78 0 0 1 .244 1.277.78.78 0 0 1-.564.219l.023.008ZM85.307 39.1c-.425.223-.867.41-1.323.558a9.204 9.204 0 0 0-2.14.82 29.844 29.844 0 0 0-1.208-4.663l4.124.264c.036 1.025.215 2.04.53 3.015l.017.006Zm-6.362-9.152a3.3 3.3 0 0 0 .953 1.869 3.286 3.286 0 0 0 1.884.914 2.932 2.932 0 0 0 2.13-1.09 1.755 1.755 0 0 0 1.55 1.642 4.833 4.833 0 0 0-.639 1.846l-4.537-.285a27.623 27.623 0 0 0-2.477-4.91c.37.036.743.038 1.114.006l.022.008Zm6.511-4.389 1.981-.123a7.282 7.282 0 0 0 4.26-1.394 7.312 7.312 0 0 0 2.642-3.627l.035-.104c.16-.713.191-1.45.09-2.173l-.072-.616-.567.226c-1.011.35-2.052.61-3.109.777a5.927 5.927 0 0 0-3.178 1.096l-.066.05-.047.065a.219.219 0 0 1-.143.099c-.068 0-.205-.078-.369-.308-.319-.445-.66-.873-1.023-1.283 0 0-.05-.057-.086-.108.014-.11.153-.337.761-.497l.676-.15c.784-.154 1.598-.314 1.637-1.584v-.045a1.233 1.233 0 0 0-.497-.98 4.479 4.479 0 0 0-3.228-.45h-.02l-.02.012a.615.615 0 0 1-.124.029 1.027 1.027 0 0 1-.188-.41 1.817 1.817 0 0 1-.086-.51c0-.204.063-.254.104-.284a1.082 1.082 0 0 0 .387-.846 2.638 2.638 0 0 0-.323-1.091l-.094-.206a1.717 1.717 0 0 1-.15-.543.3.3 0 0 1 .027-.138.614.614 0 0 1 .422-.205 6.715 6.715 0 0 1 1.743-.068c.387.043.778.043 1.165 0 .43-.102.845-.267 1.228-.488.349-.214.734-.36 1.136-.433.47-.027 1.513 0 2.346.018l1.203.02a9.35 9.35 0 0 0 4.427-1.79.831.831 0 0 1 .328-.23.21.21 0 0 0 .024.029c.168.392.278.807.33 1.23.088.675.287 1.33.59 1.94.373.572.82 1.092 1.328 1.549.296.275.575.57.835.88a8.82 8.82 0 0 1 .749 1.543c.297.89.75 1.718 1.338 2.448.614.587 2.141 2.035 3.717 1.715a.693.693 0 0 1-.047.084l-.454.41c-.569.483-1.155.98-1.155 1.558v.062c.024.444.157.875.387 1.256l.035.06c.063.078.1.175.106.276a.995.995 0 0 1-.354.626c-.599.628-.796 1.026-.796 1.422.008.214.05.426.123.628l.025.067c.069.178.117.363.143.553v.05l-.023.015-.155.084a2.28 2.28 0 0 1-.614.273l-.082.017c-1.066.233-1.603.82-1.603 1.75a1.652 1.652 0 0 0 0 .172l.021.337c.014.205.028.41.028.558a.457.457 0 0 1 0 .117 1.37 1.37 0 0 1-.204.08l-.264.06c-.627.151-1.582.373-1.666 2.13l-.027.695c-.041 1.35-.108 1.988-.526 2.04a1.594 1.594 0 0 1-1.433-.768c-.073-.179-.225-.772-.252-.856-.587-1.805-.392-1.377-1.24.218-.125.22-.254.515-.444.87a3.545 3.545 0 0 1-1.39 1.641l-.204.109a.23.23 0 0 1-.205.01c-.102-.039-.244-.236-.342-.652a18.577 18.577 0 0 1-.376-2.508c-.05-1.268 1.291-2.591-1.433-.424 0 0-.342.227-.532.349-.359.219-2.424 1.134-3.01 1.378-.204.085-.891.136-.9-.04a.843.843 0 0 1 .033-.224.625.625 0 0 1 .016-.078c.322-1.141.852-.899-1.023-.716l-.894.049-.28.018a2.104 2.104 0 0 1-1.476-.205 1.057 1.057 0 0 1-.277-.804 2.729 2.729 0 0 1 2.112-2.785c1.145-.23 5.574-.708 7.535-.88a7.614 7.614 0 0 0 6.064-3.37 14.196 14.196 0 0 0 .741-7.066c-.158-.72-.901-1.836-.45.205a12.569 12.569 0 0 1-1.101 6.375 6.76 6.76 0 0 1-5.338 2.908c-1.934.174-6.421.646-7.639.889a3.635 3.635 0 0 0-2.589 2.193c-.428.616-1.406 1.992-2.364 1.966-1.117-.029-1.99-1.373-1.99-2.504-.098-3.414 1.579-3.504 5.64-3.728l.024.008Zm36.676 5.805c.008-.36.103-.711.276-1.026a2.34 2.34 0 0 0 .409-1.149.93.93 0 0 0-.127-.48c-.331-.564-1.082-.54-1.637-.52h-.334a7.561 7.561 0 0 1-.898-.33 9.144 9.144 0 0 0-1.949-.646 4.415 4.415 0 0 0-1.586.248 5.834 5.834 0 0 1-1.963.288 8.763 8.763 0 0 1-1.915-.63 6.262 6.262 0 0 0-4.577.12 6.925 6.925 0 0 0-3.66 3.263 10.261 10.261 0 0 0 .355 8.993c.505.939 2.298 3.973 3.242 5.268a.499.499 0 0 0 .098.094.122.122 0 0 1-.033.015 3.114 3.114 0 0 0-1.547 3.06c-.001.205.01.41.033.615.061.504.229.82.495.933a.554.554 0 0 0 .555-.072 3.004 3.004 0 0 1 1.921-.492 2.742 2.742 0 0 1 2.661 2.618 3.729 3.729 0 0 1-.964 2.523 3.71 3.71 0 0 1-2.413 1.203 2.726 2.726 0 0 1-2.89-1.703 10.15 10.15 0 0 0-1.003-3.736 3.281 3.281 0 0 0-.436-.5c-.54-.514-1.347-1.296-1.543-4.72a27.042 27.042 0 0 0-2.865-9.74c.245.058.498.074.749.045 1.262-.156 1.307-1.574 1.35-2.945l.027-.683c.055-1.046.387-1.122.939-1.256l.334-.084c.716-.221.866-.556.866-1.122 0-.173-.012-.374-.027-.593l-.026-.333v-.106c0-.534.307-.71.861-.835l.109-.023a2.91 2.91 0 0 0 .841-.36l.154-.085a.925.925 0 0 0 .507-.872 2.82 2.82 0 0 0-.184-.87l-.021-.066a1 1 0 0 1-.075-.314c0-.183.123-.353.53-.786.364-.33.584-.79.614-1.282a1.381 1.381 0 0 0-.258-.78l-.02-.033a1.847 1.847 0 0 1-.254-.82c.039-.206.567-.64.818-.862l.545-.49c.233-.271.362-.616.366-.973a1.028 1.028 0 0 0-.186-.626.562.562 0 0 0-.731-.136l.037-.014c-1.04.503-2.251-.466-3.203-1.367a7.609 7.609 0 0 1-1.124-2.136 8.408 8.408 0 0 0-.882-1.76 9.852 9.852 0 0 0-.913-.973 6.933 6.933 0 0 1-1.172-1.348 5.608 5.608 0 0 1-.475-1.641 4.837 4.837 0 0 0-.457-1.556.956.956 0 0 0-.726-.482 1.5 1.5 0 0 0-1.106.536 8.684 8.684 0 0 1-3.743 1.493l-1.181-.02c-.89-.02-1.908-.047-2.423-.018a4.003 4.003 0 0 0-1.513.537 3.54 3.54 0 0 1-.944.39 4.32 4.32 0 0 1-.964 0 7.407 7.407 0 0 0-1.98.082 1.455 1.455 0 0 0-1.063.685 1.762 1.762 0 0 0 .074 1.476l.122.275c.205.422.303.691.172.804a1.658 1.658 0 0 0-.307 1.781 1.51 1.51 0 0 0 .67.977 1.053 1.053 0 0 0 .867.012l-.04.014a3.561 3.561 0 0 1 2.396.275.3.3 0 0 1 .143.259c-.022.505-.081.531-.884.691l-.732.158a1.828 1.828 0 0 0-1.4 1.026.967.967 0 0 0 .043.85l.204.256c.344.383.666.785.964 1.205a1.375 1.375 0 0 0 1.144.708 1.104 1.104 0 0 0 .831-.425 4.984 4.984 0 0 1 2.661-.895 17.66 17.66 0 0 0 2.792-.63v.284c.013.298-.02.596-.098.884l-.04.115a6.292 6.292 0 0 1-2.313 3.197 6.266 6.266 0 0 1-3.759 1.186l-1.969.12c-3.911.206-6.527.356-6.527 4.386a5.34 5.34 0 0 1-1.738-.15l-.065-.02c-.156-.206-.31-.425-.467-.633a22.148 22.148 0 0 0-4.587-4.514 5.687 5.687 0 0 1 .557-6.117c.274.177.593.27.92.27a1.717 1.717 0 0 0 1.716-1.722 1.783 1.783 0 0 0-.13-.657c.175.05.357.078.54.08a2.005 2.005 0 0 0 1.413-.59c.375-.376.587-.885.588-1.417 0-.348-.09-.69-.264-.99a12.182 12.182 0 0 1 3.21-6.797 2.404 2.404 0 0 0-1.14-2.05 2.388 2.388 0 0 0-2.34-.094 2.602 2.602 0 0 0-.389-2.46A2.591 2.591 0 0 0 73.594.31a2.593 2.593 0 0 0-1.243 1.132 2.002 2.002 0 0 0-2.088-1.474 1.995 1.995 0 0 0-1.828 1.788 1.687 1.687 0 0 0-1.3-.615 1.728 1.728 0 0 0-1.582 1.054h-.452a1.084 1.084 0 0 1-1.177-1.011c0-.632-.58-1.077-1.4-1.077H60.46c-.819 0-1.4.443-1.4 1.077a1.097 1.097 0 0 1-1.177 1.011h-.39a1.729 1.729 0 0 0-1.583-1.054 1.68 1.68 0 0 0-1.295.615A2.005 2.005 0 0 0 52.77 0a1.994 1.994 0 0 0-2.07 1.482 2.595 2.595 0 0 0-2.919-1.26 2.593 2.593 0 0 0-1.944 2.52c0 .295.05.588.15.866a2.353 2.353 0 0 0-1.065-.256 9.116 9.116 0 0 1-2.008 6.837c.001.637.255 1.249.705 1.7a2.4 2.4 0 0 0 1.696.704c.14-.001.281-.015.42-.04a1.94 1.94 0 0 0-.264.99 2.008 2.008 0 0 0 1.999 2.008c.183-.004.365-.03.54-.08a1.724 1.724 0 0 0 .522 2.004 1.712 1.712 0 0 0 2.066.047c1.214.917 1.433 3.888.434 6.125a21.861 21.861 0 0 0-4.665 4.557 27.547 27.547 0 0 0-4.059 7.676 8.82 8.82 0 0 0-.497-4.545c-1.738-4.142-5.424-5.706-7.874-6.94l-1.273-.664a11.001 11.001 0 0 1-3.576-3.258l-.446-.565-.055-.071c.047.014.102.037.147.043a6.157 6.157 0 0 1 2.368.941l.764.64c.42.395.871.756 1.347 1.082a2.342 2.342 0 0 0 2.294-.094.82.82 0 0 0 .276-.667 2.317 2.317 0 0 0-.17-.786 4.324 4.324 0 0 1-.087-.285l.087.043.41.17a1.611 1.611 0 0 0 1.74-.851 2.217 2.217 0 0 0-.809-2.793c-.583-.495-2.251-2.136-3.582-3.455-1.058-1.051-1.897-1.876-2.157-2.104a6.424 6.424 0 0 1-.819-.898 1.13 1.13 0 0 0 0-1.119.9.9 0 0 0-.9-.25h-.133a.237.237 0 0 0-.053 0c-.04-.014-.078-.018-.125-.033l-.041.019a.204.204 0 0 0-.064-.015c.367-.876.66-1.781.876-2.706a3.518 3.518 0 0 0-.526-3.283 2.134 2.134 0 0 0-1.94-.638 4.928 4.928 0 0 0-2.8 1.914l-.25-.757-.483.156-2.302.743.268.82a5.027 5.027 0 0 0-3.506.06 2.142 2.142 0 0 0-1.204 1.654 3.543 3.543 0 0 0 1.484 2.963c.391.332.741.599 1.044.82a2.033 2.033 0 0 1-.168.128c-.321.275-.614.589-.892.868l-.352.377a10.882 10.882 0 0 1-5.674 2.696.583.583 0 0 0-.528.489c-.078.49.438 1.065 1.283 1.436.846.371 1.024 1.49.614 3.755l-.018.086a.783.783 0 0 0 .15.786c.286.267.707.205 1.444.01l.138-.037.292-.082c-.033.12-.067.288-.1.41l-.043.222-.041.226a9.931 9.931 0 0 0-.217 1.75c-.008.32.042.637.147.938a9.14 9.14 0 0 0 1.392 2.257 1.046 1.046 0 0 0 .782.35 1.238 1.238 0 0 0 .876-.547c.077.16.145.322.205.488l.014.044a4.424 4.424 0 0 0 3.07 3.104 1.595 1.595 0 0 0 1.273 0 1.407 1.407 0 0 0 .614-.946 5.6 5.6 0 0 0 .105-.732 1.59 1.59 0 0 1 .016-.19c.041.046.084.087.133.148a11.332 11.332 0 0 1 2.016 6.191c0 .706-.09 1.408-.268 2.09a17.232 17.232 0 0 1-.999 2.695c-.237.534-.41 1.044-.6 1.543a17.437 17.437 0 0 1-3.364 2.204l-.651.357a10.66 10.66 0 0 0-2.976 3.339 10.691 10.691 0 0 0-1.347 4.27 2.067 2.067 0 0 0-.012.204c-1.814.616-3.013.534-3.66-.27-1.381-1.712-.333-3.413 1.17-5.469l.47-.646.47-.632s.41-.513.449-.568c.018.108.038.205.057.338l.192.807.158.644a.775.775 0 0 0 .636.695c.205.027.561.394 1.499-1.354.204-.377.577-1.026 1.009-1.68l.706-1.112a1.807 1.807 0 0 0-.6-2.842c-.456-.32-.43-.485-.027-1.256l.117-.236a10.65 10.65 0 0 0-.309-8.89c-1.527-2.359-3.684-4.556-6.595-3.89a13.007 13.007 0 0 0-3.837 1.63 9.235 9.235 0 0 1-3.48 1.393 28.683 28.683 0 0 0-3.246.907c-.292.095-.7.23-.722.663v.039c0 .466.505.694 1.142.987.462.174.881.446 1.228.798A16.06 16.06 0 0 1 .835 34.46a.846.846 0 0 0-.434.716c0 .046.005.091.012.136.09.476.574.782 1.448.931h.014l-.014.152a5.662 5.662 0 0 0 .409 3.443l.13.206a12.955 12.955 0 0 1 1.638 3.077c-.002.238-.04.473-.114.698a1.625 1.625 0 0 0 0 1.231.89.89 0 0 0 .585.396c1.007.236 1.39-.578 1.693-1.23l.17-.354c.409-.82.974-1.957 1.655-3.104l.45-.69a8.106 8.106 0 0 0 1.638-4.924l.338.016c.197.039.4.039.597 0l.183-.037c.348-.072.818-.166.93-.615.113-.45-.271-.807-.654-1.108a3.608 3.608 0 0 1-.747-2.965c.204-.735.55-1.135 1.066-1.22a4.495 4.495 0 0 1 3.465 2.071c.615.926.945 2.013.95 3.125.003.317-.029.632-.094.942-.24 1.077-.446 1.186-.455 1.186a1.194 1.194 0 0 1-.278-.064l-.35-.086a3.027 3.027 0 0 0-2.219.489l-.184.133c-.446.304-1.058.712-.976 1.336.076.558.675.82 1.118.978a.653.653 0 0 1 .47.458 4.032 4.032 0 0 1-1.023 2.696l-.276.333-.662.884c-2.66 3.41-3.51 6.708-2.366 9.045.694 1.413 2.426 3.088 6.734 3.098a5.856 5.856 0 0 1-.819 2.18 4.609 4.609 0 0 1-3.794 1.948l-.311.033-.246.013a1.264 1.264 0 0 0-.964.375c-.374.423-.48 1.231-.372 2.873.123 1.424.023 2.86-.295 4.253a9.308 9.308 0 0 0-.172 1.026 5.99 5.99 0 0 1-.141.764c-.094.34-.148.69-.162 1.042-.012.266.06.529.205.75a1.154 1.154 0 0 0 .868.487l.986.06c.205 0 .469.012.637.035a.166.166 0 0 0-.015.03c-.026.076-.053.15-.082.22H0l3.48 6.06c-.22.422-3.228 6.299-3.228 6.299h29.616L31.541 90a90.619 90.619 0 0 1 29.978-5.286h.056A90.842 90.842 0 0 1 91.58 89.98l1.664-5.705h29.144s-3.013-5.876-3.228-6.3c.229-.41 3.479-6.058 3.479-6.058h-12.583c.121-.768.167-1.545.137-2.321-.033-.34-.156-.958-.28-1.603a16.636 16.636 0 0 1-.283-1.674c0-.642.014-2.637.068-3.078.151-1.317-1.253-2.37-1.924-2.872l-.223-.169a12.992 12.992 0 0 1-1.75-1.791 6.315 6.315 0 0 0 7.431-2.013 11.176 11.176 0 0 0 1.501-2.725l.053-.113a8.547 8.547 0 0 1 1.132-1.828c.634-.568 3.301-4.073 2.456-5.487-.579-.96-2.112-.41-2.614-.217-.282.098-.426-.088-.614-.82-.164-.616-.514-2.178-.54-2.406v-.055c-.033-.281-.086-.872-.557-1.104a1.005 1.005 0 0 0-1.023.133.576.576 0 0 1-.467.117.659.659 0 0 1-.334-.363c-.131-.316-.358-1.073-.491-1.526l-.11-.35-.058-.237c-.071-.314-.165-.75-.591-.862-.426-.113-.749.205-1.042.53-.225.25-.426.496-.614.738a6.074 6.074 0 0 1-2.223-6.078 4.14 4.14 0 0 1 2.047-3.32 5.044 5.044 0 0 1 3.784.041l.232.123c.143.063.28.14.409.228a.926.926 0 0 1-.139.121l-.047.027-.035.041a3.362 3.362 0 0 0-.948 2.32 8.505 8.505 0 0 0 2.819 5.07v.03a8.43 8.43 0 0 0 1.604 5.468 2.159 2.159 0 0 0 1.664.556 9.304 9.304 0 0 0 2.714-1.087c.25-.113.979-.842-.194-1.147-1.173-.306-.87-1.371-.819-1.905a9.782 9.782 0 0 1 .925-2.706c.158-.361.234-.753.224-1.147a6.047 6.047 0 0 0-.426-2.07 2.7 2.7 0 0 0 .614-.14 1.637 1.637 0 0 0 1.136-1.042 1.04 1.04 0 0 0 .041-.294 1.37 1.37 0 0 0-.344-.87 1.083 1.083 0 0 1-.225-.675Z" fill="#fff"/></mask><g mask="url(#ai)"><mask id="aj" style="mask-type:luminance" maskUnits="userSpaceOnUse" x="0" y="-1" width="124" height="92"><path d="M123.27-.002H0v90.199h123.27v-90.2Z" fill="#fff"/></mask><g mask="url(#aj)"><path d="M126.354-3.554H-3.543V93.55h129.897V-3.554Z" fill="#FFFDFB"/></g></g></g></g><mask id="ak" style="mask-type:luminance" maskUnits="userSpaceOnUse" x="90" y="10" width="4" height="3"><path fill-rule="evenodd" clip-rule="evenodd" d="M93.027 10.953a2.737 2.737 0 0 0-2.065-.375.49.49 0 0 0-.41.422c0 .246.516.716.82.911a1.401 1.401 0 0 0 1.133.1c.295-.124.6-.223.913-.295.389-.098.315-.295.219-.367a7.145 7.145 0 0 1-.596-.396" fill="#fff"/></mask><g mask="url(#ak)"><path d="M97.241 6.964h-10.24v8.671h10.24v-8.67Z" fill="#FFFDFB"/></g><mask id="al" style="mask-type:luminance" maskUnits="userSpaceOnUse" x="27" y="13" width="4" height="2"><path fill-rule="evenodd" clip-rule="evenodd" d="M27.887 14.107c.375.247.767.465 1.175.652.665.271.755-.018.954-.67.198-.653-.205-.65-.45-.65-.246 0-.92.042-1.388.091-.973.11-.508.49-.293.579" fill="#fff"/></mask><g mask="url(#al)"><path d="M33.61 9.886h-9.567v8.524h9.567V9.886Z" fill="#FFFDFB"/></g></svg>