<svg width="590" height="136" fill="none" xmlns="http://www.w3.org/2000/svg"><mask id="a" style="mask-type:luminance" maskUnits="userSpaceOnUse" x="225" y="16" width="3" height="103"><path d="M227.18 16.536h-1.698v102.399h1.698V16.536Z" fill="#fff"/></mask><g mask="url(#a)"><path d="M232.509 11.169H220.15v113.13h12.359V11.169Z" fill="#287BAF"/></g><mask id="b" style="mask-type:luminance" maskUnits="userSpaceOnUse" x="261" y="25" width="27" height="36"><path fill-rule="evenodd" clip-rule="evenodd" d="M270.788 42.492h4.621a7.89 7.89 0 0 0 5.853-1.52 11.538 11.538 0 0 0 1.319-6.821 9.89 9.89 0 0 0-1.377-6.307 6.881 6.881 0 0 0-5.114-1.485h-5.292l-.01 16.133Zm0 17.128h4.769v.93h-13.675v-.93h4.784V26.36h-4.768v-.931h14.5a11.168 11.168 0 0 1 7.726 2.673 8.75 8.75 0 0 1 2.277 3.104 8.817 8.817 0 0 1 .73 3.788 7.45 7.45 0 0 1-.633 3.498 7.389 7.389 0 0 1-2.18 2.797 13.485 13.485 0 0 1-8.271 2.145h-5.237l-.022 16.186Z" fill="#fff"/></mask><g mask="url(#b)"><path d="M292.448 20.059H256.55v45.864h35.898V20.06Z" fill="#287BAF"/></g><mask id="c" style="mask-type:luminance" maskUnits="userSpaceOnUse" x="289" y="25" width="32" height="36"><path fill-rule="evenodd" clip-rule="evenodd" d="M311.535 40.343V26.359h-4.769v-.93h13.672v.93h-4.821v33.26h4.821v.93h-13.672v-.93h4.769V41.285h-13.151V59.62h4.772v.93h-13.675v-.93h4.775V26.36h-4.775v-.93h13.678v.93h-4.775v13.984h13.151Z" fill="#fff"/></mask><g mask="url(#c)"><path d="M325.77 20.056h-41.624v45.867h41.624V20.056Z" fill="#287BAF"/></g><mask id="d" style="mask-type:luminance" maskUnits="userSpaceOnUse" x="323" y="25" width="15" height="36"><path fill-rule="evenodd" clip-rule="evenodd" d="M332.255 59.616h4.769v.93h-13.669v-.93h4.766V26.36h-4.766v-.93h13.669v.93h-4.769v33.257Z" fill="#fff"/></mask><g mask="url(#d)"><path d="M342.356 20.059h-24.33v45.864h24.33V20.06Z" fill="#287BAF"/></g><mask id="e" style="mask-type:luminance" maskUnits="userSpaceOnUse" x="339" y="25" width="26" height="36"><path fill-rule="evenodd" clip-rule="evenodd" d="M353.616 25.422v.93h-4.769v33.267h4.313a8.848 8.848 0 0 0 4.202-.833 8.91 8.91 0 0 0 3.33-2.711 24.144 24.144 0 0 0 3.656-11.274h.546v15.748h-24.953v-.93h4.769V26.36h-4.769v-.93l13.675-.01Z" fill="#fff"/></mask><g mask="url(#e)"><path d="M370.235 20.055h-35.62v45.864h35.62V20.055Z" fill="#287BAF"/></g><mask id="f" style="mask-type:luminance" maskUnits="userSpaceOnUse" x="368" y="25" width="15" height="36"><path fill-rule="evenodd" clip-rule="evenodd" d="M377.293 59.616h4.762v.93h-13.668v-.93h4.769V26.36h-4.769v-.93h13.668v.93h-4.762v33.257Z" fill="#fff"/></mask><g mask="url(#f)"><path d="M387.382 20.059h-24.331v45.864h24.331V20.06Z" fill="#287BAF"/></g><mask id="g" style="mask-type:luminance" maskUnits="userSpaceOnUse" x="384" y="25" width="27" height="36"><path fill-rule="evenodd" clip-rule="evenodd" d="M393.875 42.49h4.621a7.89 7.89 0 0 0 5.853-1.519 11.554 11.554 0 0 0 1.319-6.821 9.877 9.877 0 0 0-1.38-6.307 6.848 6.848 0 0 0-5.111-1.485h-5.295l-.007 16.133Zm0 17.129h4.772v.93h-13.674v-.93h4.771v-33.26h-4.771v-.931h14.497a11.165 11.165 0 0 1 7.726 2.673 8.764 8.764 0 0 1 2.276 3.104 8.82 8.82 0 0 1 .731 3.788 7.442 7.442 0 0 1-.634 3.498 7.397 7.397 0 0 1-2.182 2.797 13.462 13.462 0 0 1-8.268 2.145h-5.237l-.007 16.186Z" fill="#fff"/></mask><g mask="url(#g)"><path d="M415.535 20.058H379.64v45.864h35.895V20.058Z" fill="#287BAF"/></g><mask id="h" style="mask-type:luminance" maskUnits="userSpaceOnUse" x="424" y="25" width="35" height="36"><path fill-rule="evenodd" clip-rule="evenodd" d="m439.872 60.55-8.919-34.548v28.433a7.132 7.132 0 0 0 .851 3.978 3.128 3.128 0 0 0 2.744 1.206h1.556v.93h-11.176v-.93h.835a4.051 4.051 0 0 0 3.209-1.206 5.423 5.423 0 0 0 1.051-3.643V29.618a3.237 3.237 0 0 0-.887-2.512 4.597 4.597 0 0 0-2.967-.747h-1.232v-.93h9.753l7.113 27.475 7.455-27.475h9.214v.93h-4.722v33.26h4.737v.93h-13.422v-.93h4.797l.188-33.614-9.387 34.545h-.791Z" fill="#fff"/></mask><g mask="url(#h)"><path d="M463.801 20.056h-44.193V65.92h44.193V20.056Z" fill="#287BAF"/></g><mask id="i" style="mask-type:luminance" maskUnits="userSpaceOnUse" x="462" y="24" width="25" height="38"><path fill-rule="evenodd" clip-rule="evenodd" d="M474.599 60.226a5.827 5.827 0 0 0 3.453-1.122c1.137-.87 2.052-2 2.671-3.296.558-1.222.91-2.528 1.041-3.867a79.17 79.17 0 0 0 .336-8.926 66.423 66.423 0 0 0-.478-10.01 10.406 10.406 0 0 0-1.629-4.188 7.269 7.269 0 0 0-2.465-2.251 5.922 5.922 0 0 0-2.926-.813 6.025 6.025 0 0 0-2.982.813 7.28 7.28 0 0 0-2.465 2.25 11.459 11.459 0 0 0-1.654 4.277 36.18 36.18 0 0 0-.333 3.776c-.08 1.647-.114 3.693-.114 6.143v1.131a70.78 70.78 0 0 0 .308 8.015c.13 1.271.491 2.508 1.066 3.647a8.938 8.938 0 0 0 2.696 3.283 5.885 5.885 0 0 0 3.484 1.135m0-35.347a8.638 8.638 0 0 1 3.968.974 10.979 10.979 0 0 1 3.441 2.837 19.977 19.977 0 0 1 3.549 6.613 26.772 26.772 0 0 1 1.232 8.251 24.805 24.805 0 0 1-.952 7.131 18.91 18.91 0 0 1-2.893 5.839 12.01 12.01 0 0 1-3.823 3.41 9.094 9.094 0 0 1-4.516 1.241 9.196 9.196 0 0 1-4.504-1.24 12.216 12.216 0 0 1-3.884-3.411 18.78 18.78 0 0 1-2.887-5.817 23.588 23.588 0 0 1-.718-3.389 27.251 27.251 0 0 1-.237-3.755 28.486 28.486 0 0 1 .57-5.73 23.542 23.542 0 0 1 1.682-5.178 15.653 15.653 0 0 1 4.362-5.751 8.977 8.977 0 0 1 5.616-2.016" fill="#fff"/></mask><g mask="url(#i)"><path d="M492.115 19.506h-35.079V66.53h35.079V19.506Z" fill="#287BAF"/></g><mask id="j" style="mask-type:luminance" maskUnits="userSpaceOnUse" x="490" y="25" width="30" height="37"><path fill-rule="evenodd" clip-rule="evenodd" d="M504.403 26.362h-5.2v15.94h4.523a7.043 7.043 0 0 0 5.566-1.687 11.221 11.221 0 0 0 1.393-6.703 9.542 9.542 0 0 0-1.356-5.926 6.165 6.165 0 0 0-4.926-1.625Zm-14.106 34.187v-.93h4.766V26.362h-4.766v-.93h15.711a9.67 9.67 0 0 1 6.778 2.192 7.987 7.987 0 0 1 2.402 6.201 8.208 8.208 0 0 1-.544 3.358 8.163 8.163 0 0 1-1.858 2.843 11.03 11.03 0 0 1-6.824 2.75 9.915 9.915 0 0 1 2.927.406 8.557 8.557 0 0 1 2.344 1.139 6.713 6.713 0 0 1 2.566 3.89c.069.24.126.484.169.73.028.207.09.576.17 1.11.082.819.122 1.641.12 2.465v2.458a5.97 5.97 0 0 0 .04.856c.034.242.065.431.089.564.028.16.064.317.108.472.172.93.588 1.8 1.205 2.514.586.514 1.35.774 2.125.726h.45a4.26 4.26 0 0 1 .536-.115 2.34 2.34 0 0 0 .404-.096c.227-.076.45-.164.668-.264v.93a5.565 5.565 0 0 1-1.34.447 13.81 13.81 0 0 1-.736.127 6.17 6.17 0 0 1-.792.05 6.347 6.347 0 0 1-3.042-.404 6.386 6.386 0 0 1-2.503-1.785 15.098 15.098 0 0 1-1.586-8.276 10.338 10.338 0 0 0-1.205-6.03 5.326 5.326 0 0 0-4.313-1.486h-5.2v16.434h4.766v.93l-13.635-.019Z" fill="#fff"/></mask><g mask="url(#j)"><path d="M525.237 20.055h-40.266V66.53h40.266V20.055Z" fill="#287BAF"/></g><mask id="k" style="mask-type:luminance" maskUnits="userSpaceOnUse" x="520" y="25" width="31" height="37"><path fill-rule="evenodd" clip-rule="evenodd" d="M534.996 26.362H529.8v15.94h4.525a7.077 7.077 0 0 0 5.56-1.687 11.268 11.268 0 0 0 1.396-6.703 9.551 9.551 0 0 0-1.362-5.926 6.15 6.15 0 0 0-4.923-1.625Zm-14.109 34.187v-.93h4.766V26.362h-4.766v-.93h15.711a9.71 9.71 0 0 1 6.778 2.192 7.995 7.995 0 0 1 1.868 2.838 8.04 8.04 0 0 1 .525 3.363 8.222 8.222 0 0 1-2.393 6.201 11.054 11.054 0 0 1-6.83 2.75 9.84 9.84 0 0 1 2.917.407 8.323 8.323 0 0 1 2.351 1.138 6.737 6.737 0 0 1 2.572 3.89c.077.28.132.519.169.73.037.21.09.576.164 1.11.071.725.117 1.55.117 2.465v2.458a8.642 8.642 0 0 0 .129 1.42c.025.134.071.31.108.472.175.93.59 1.797 1.205 2.514a2.966 2.966 0 0 0 2.128.726h.465a3.67 3.67 0 0 1 .527-.115c.134-.02.266-.051.394-.096a6.84 6.84 0 0 0 .678-.264v.93a5.739 5.739 0 0 1-1.343.447 12.49 12.49 0 0 1-.739.127 7.867 7.867 0 0 1-6.325-2.14 15.17 15.17 0 0 1-1.58-8.275 10.307 10.307 0 0 0-1.211-6.03 5.326 5.326 0 0 0-4.313-1.486h-5.196v16.434h4.768v.93l-13.644-.019Z" fill="#fff"/></mask><g mask="url(#k)"><path d="M555.83 20.056h-40.269V66.53h40.269V20.056Z" fill="#287BAF"/></g><mask id="l" style="mask-type:luminance" maskUnits="userSpaceOnUse" x="551" y="25" width="15" height="36"><path fill-rule="evenodd" clip-rule="evenodd" d="M560.387 59.616h4.768v.93h-13.677v-.93h4.765V26.36h-4.765v-.93h13.671v.93h-4.769l.007 33.257Z" fill="#fff"/></mask><g mask="url(#l)"><path d="M570.485 20.059h-24.334v45.864h24.334V20.06Z" fill="#287BAF"/></g><mask id="m" style="mask-type:luminance" maskUnits="userSpaceOnUse" x="568" y="24" width="22" height="38"><path d="M589.994 24.873h-21.068v36.293h21.068V24.873Z" fill="#fff"/></mask><g mask="url(#m)"><mask id="n" style="mask-type:luminance" maskUnits="userSpaceOnUse" x="568" y="24" width="23" height="38"><path d="M590.724 24.684h-22.393v36.49h22.393v-36.49Z" fill="#fff"/></mask><g mask="url(#n)"><mask id="o" style="mask-type:luminance" maskUnits="userSpaceOnUse" x="568" y="24" width="22" height="38"><path fill-rule="evenodd" clip-rule="evenodd" d="M568.926 60.803v-14.96h.733a21.961 21.961 0 0 0 3.866 10.619 8.876 8.876 0 0 0 3.165 2.772 8.81 8.81 0 0 0 4.078.995 6.506 6.506 0 0 0 4.821-1.956 6.725 6.725 0 0 0 1.94-4.92 6.943 6.943 0 0 0-1.404-4.31 18.022 18.022 0 0 0-5.222-4.137c-.762-.486-1.902-1.123-3.419-1.91a26.38 26.38 0 0 1-5.416-3.476 7.82 7.82 0 0 1-1.685-2.567 8.173 8.173 0 0 1-.616-3.076 9.257 9.257 0 0 1 2.298-6.471 7.613 7.613 0 0 1 2.671-1.92 7.574 7.574 0 0 1 3.225-.61 8.205 8.205 0 0 1 4.205 1.082 13.552 13.552 0 0 1 3.749 3.572l2.705-4.651h.289v13.485h-.736a21.126 21.126 0 0 0-3.758-9.302 7.87 7.87 0 0 0-2.768-2.382 7.806 7.806 0 0 0-3.538-.868 6.94 6.94 0 0 0-4.704 1.619 5.185 5.185 0 0 0-1.864 4.08c0 2.067 2.5 4.471 7.498 7.212l2.261 1.24a22.72 22.72 0 0 1 6.756 5.182 9.166 9.166 0 0 1 1.938 5.804 10.42 10.42 0 0 1-2.674 7.33 9.016 9.016 0 0 1-11.312 1.594 13.28 13.28 0 0 1-3.952-3.876l-2.588 4.821-.542-.015Z" fill="#fff"/></mask><g mask="url(#o)"><mask id="p" style="mask-type:luminance" maskUnits="userSpaceOnUse" x="568" y="24" width="23" height="38"><path d="M590.724 24.684h-22.393v36.49h22.393v-36.49Z" fill="#fff"/></mask><g mask="url(#p)"><path d="M595.326 19.509h-31.733v47.024h31.733V19.509Z" fill="#287BAF"/></g></g></g></g><mask id="q" style="mask-type:luminance" maskUnits="userSpaceOnUse" x="261" y="74" width="15" height="36"><path fill-rule="evenodd" clip-rule="evenodd" d="M270.788 109.039h4.769v.931h-13.678v-.931h4.787v-33.26h-4.771v-.93h13.677v.93h-4.768l-.016 33.26Z" fill="#fff"/></mask><g mask="url(#q)"><path d="M280.889 69.476H256.55v45.864h24.339V69.476Z" fill="#287BAF"/></g><mask id="r" style="mask-type:luminance" maskUnits="userSpaceOnUse" x="277" y="74" width="29" height="37"><path fill-rule="evenodd" clip-rule="evenodd" d="M283.043 78.76v23.63a9.347 9.347 0 0 0 1.081 4.983 3.618 3.618 0 0 0 3.284 1.677h.785v.93h-11.176v-.93h.838a3.547 3.547 0 0 0 3.225-1.606 9.348 9.348 0 0 0 1.029-4.961V77.895a3.192 3.192 0 0 0-1.29-1.631 5.255 5.255 0 0 0-2.588-.49h-1.217v-.93h8.512l13.785 26.665V82.493a9.249 9.249 0 0 0-1.103-5.02 3.7 3.7 0 0 0-1.428-1.293 3.677 3.677 0 0 0-1.88-.397h-.792v-.93h11.232v.93h-.866a3.572 3.572 0 0 0-1.824.379 3.601 3.601 0 0 0-1.392 1.246 9.235 9.235 0 0 0-1.05 4.936v28.241h-.693L283.043 78.76Z" fill="#fff"/></mask><g mask="url(#r)"><path d="M310.676 69.477h-38.991v46.475h38.991V69.477Z" fill="#287BAF"/></g><mask id="s" style="mask-type:luminance" maskUnits="userSpaceOnUse" x="306" y="74" width="26" height="36"><path fill-rule="evenodd" clip-rule="evenodd" d="M311.803 109.977v-.93h4.738V75.752l-.354-.025h-.382a7 7 0 0 0-3.553.791 7.049 7.049 0 0 0-2.685 2.471 14.568 14.568 0 0 0-1.824 4.18 23.299 23.299 0 0 0-.764 6.158h-.548V74.844h24.663v14.483h-.577a22.624 22.624 0 0 0-2.772-10.691 8.017 8.017 0 0 0-3.118-2.33 7.966 7.966 0 0 0-3.841-.579h-.096v33.311h4.772v.93l-13.659.009Z" fill="#fff"/></mask><g mask="url(#s)"><path d="M336.423 69.477h-35.325v45.864h35.325V69.477Z" fill="#287BAF"/></g><mask id="t" style="mask-type:luminance" maskUnits="userSpaceOnUse" x="332" y="74" width="26" height="36"><path fill-rule="evenodd" clip-rule="evenodd" d="M332.745 109.976v-.93h4.768v-33.26h-4.768v-.93h24.308v11.94h-.523a18.277 18.277 0 0 0-2.831-8.552 7.195 7.195 0 0 0-2.695-1.934 7.147 7.147 0 0 0-3.269-.515h-6.084v14.861h1.87a5.038 5.038 0 0 0 2.356-.504 5.075 5.075 0 0 0 1.858-1.542 8.16 8.16 0 0 0 1.232-2.505c.308-1.064.459-2.167.447-3.275h.496v16.021h-.496a11.748 11.748 0 0 0-.41-3.274 6.778 6.778 0 0 0-1.146-2.344 4.833 4.833 0 0 0-1.82-1.334 4.803 4.803 0 0 0-2.222-.36h-2.156v17.513h5.995a7.343 7.343 0 0 0 3.559-.765 7.408 7.408 0 0 0 2.765-2.382 21.1 21.1 0 0 0 3.037-9.785h.552v13.872l-24.823-.016Z" fill="#fff"/></mask><g mask="url(#t)"><path d="M362.888 69.476h-35.476v45.864h35.476V69.476Z" fill="#287BAF"/></g><mask id="u" style="mask-type:luminance" maskUnits="userSpaceOnUse" x="361" y="74" width="31" height="37"><path fill-rule="evenodd" clip-rule="evenodd" d="M375.811 75.786h-5.2v15.937h4.532c.99.128 1.996.044 2.951-.246a7.07 7.07 0 0 0 2.594-1.44 11.227 11.227 0 0 0 1.389-6.704 9.596 9.596 0 0 0-1.352-5.925 6.17 6.17 0 0 0-4.914-1.622Zm-14.109 34.194v-.93h4.772V75.786h-4.772v-.93h15.729a9.72 9.72 0 0 1 6.778 2.192 7.977 7.977 0 0 1 1.87 2.838 8.024 8.024 0 0 1 .523 3.364 8.258 8.258 0 0 1-.542 3.354 8.207 8.207 0 0 1-1.845 2.847 11.102 11.102 0 0 1-6.836 2.75 9.846 9.846 0 0 1 2.924.41 8.176 8.176 0 0 1 2.344 1.137 6.679 6.679 0 0 1 2.575 3.891c.071.238.127.48.167.726.03.21.083.58.166 1.113.084.824.123 1.652.117 2.481v2.458a6.62 6.62 0 0 0 .049.856c.031.239.062.428.08.564.029.16.066.317.111.472.172.93.587 1.798 1.202 2.514.59.513 1.356.773 2.135.723h.452a5.24 5.24 0 0 1 .524-.109c.139-.023.276-.057.41-.102.23-.075.456-.162.677-.26v.93a5.69 5.69 0 0 1-1.346.446c-.255.053-.496.096-.739.13a6.037 6.037 0 0 1-.795.047 6.365 6.365 0 0 1-5.545-2.189 15.197 15.197 0 0 1-1.574-8.273 10.333 10.333 0 0 0-1.211-6.033 5.318 5.318 0 0 0-4.313-1.483h-5.2v16.434h4.769v.93l-13.656-.034Z" fill="#fff"/></mask><g mask="url(#u)"><path d="M396.648 69.477H356.37v46.475h40.278V69.477Z" fill="#287BAF"/></g><mask id="v" style="mask-type:luminance" maskUnits="userSpaceOnUse" x="390" y="74" width="30" height="37"><path fill-rule="evenodd" clip-rule="evenodd" d="M396.873 78.76v23.63a9.242 9.242 0 0 0 1.078 4.983 3.613 3.613 0 0 0 3.278 1.677h.795v.93h-11.18v-.93h.835a3.54 3.54 0 0 0 1.835-.36 3.57 3.57 0 0 0 1.4-1.246 9.386 9.386 0 0 0 1.026-4.961V77.895a3.155 3.155 0 0 0-1.297-1.631 5.211 5.211 0 0 0-2.582-.49h-1.232v-.93h8.508l13.792 26.665V82.493a9.276 9.276 0 0 0-1.1-5.02 3.68 3.68 0 0 0-3.321-1.69h-.773v-.93h11.238v.93h-.89a3.545 3.545 0 0 0-1.821.377 3.57 3.57 0 0 0-1.386 1.248 9.178 9.178 0 0 0-1.05 4.936v28.241h-.697L396.873 78.76Z" fill="#fff"/></mask><g mask="url(#v)"><path d="M424.506 69.477h-38.994v46.475h38.994V69.477Z" fill="#287BAF"/></g><mask id="w" style="mask-type:luminance" maskUnits="userSpaceOnUse" x="416" y="74" width="30" height="36"><path fill-rule="evenodd" clip-rule="evenodd" d="M424.792 97.875h10.03L429.86 80.82l-5.068 17.054Zm-1.488 4.889c-.089.31-.157.512-.175.62-.019.109-.065.332-.111.652l-.099 1.277a3.792 3.792 0 0 0 .946 2.744 3.463 3.463 0 0 0 2.581.977h.995v.93h-10.603v-.93a4.986 4.986 0 0 0 3.306-1.687 16.122 16.122 0 0 0 2.449-5.333l8.243-27.726h1.072l10.406 34.752h3.143v.93h-11.466v-.93h4.121l-2.997-10.282h-10.634l-1.177 4.006Z" fill="#fff"/></mask><g mask="url(#w)"><path d="M450.783 68.924h-39.28v46.419h39.28v-46.42Z" fill="#287BAF"/></g><mask id="x" style="mask-type:luminance" maskUnits="userSpaceOnUse" x="442" y="74" width="26" height="36"><path fill-rule="evenodd" clip-rule="evenodd" d="M447.73 109.977v-.93h4.738V75.752l-.36-.025h-.382a6.984 6.984 0 0 0-3.551.79 7.032 7.032 0 0 0-2.681 2.472 14.641 14.641 0 0 0-1.827 4.18 23.383 23.383 0 0 0-.761 6.158h-.548V74.844h24.663v14.483h-.576a22.712 22.712 0 0 0-2.773-10.691 8.04 8.04 0 0 0-3.121-2.327 7.992 7.992 0 0 0-3.841-.582h-.092v33.311h4.765v.93l-13.653.009Z" fill="#fff"/></mask><g mask="url(#x)"><path d="M472.35 69.477h-35.325v45.864h35.325V69.477Z" fill="#287BAF"/></g><mask id="y" style="mask-type:luminance" maskUnits="userSpaceOnUse" x="468" y="74" width="15" height="36"><path fill-rule="evenodd" clip-rule="evenodd" d="M477.581 109.039h4.759v.931h-13.665v-.931h4.765v-33.26h-4.765v-.93h13.665v.93h-4.759v33.26Z" fill="#fff"/></mask><g mask="url(#y)"><path d="M487.673 69.476h-24.328v45.864h24.328V69.476Z" fill="#287BAF"/></g><mask id="z" style="mask-type:luminance" maskUnits="userSpaceOnUse" x="484" y="74" width="26" height="37"><path fill-rule="evenodd" clip-rule="evenodd" d="M496.973 109.644a5.723 5.723 0 0 0 3.435-1.122 9.008 9.008 0 0 0 2.692-3.296 12.285 12.285 0 0 0 1.029-3.86c.28-2.97.392-5.952.336-8.933.09-3.344-.07-6.69-.478-10.01a10.718 10.718 0 0 0-1.626-4.188 7.353 7.353 0 0 0-2.464-2.254 5.942 5.942 0 0 0-2.927-.81 6.095 6.095 0 0 0-2.991.81 7.304 7.304 0 0 0-2.449 2.254 11.236 11.236 0 0 0-1.655 4.272 34.413 34.413 0 0 0-.332 3.78c-.08 1.654-.123 3.701-.127 6.143v1.131a70.537 70.537 0 0 0 .308 8.015 10.437 10.437 0 0 0 1.072 3.647 8.874 8.874 0 0 0 2.693 3.286 5.875 5.875 0 0 0 3.487 1.132m0-35.347a8.611 8.611 0 0 1 3.959.977 11.176 11.176 0 0 1 3.447 2.837 20.225 20.225 0 0 1 3.549 6.61 26.79 26.79 0 0 1 1.232 8.254 25.06 25.06 0 0 1-.943 7.132 18.96 18.96 0 0 1-2.896 5.838 12.08 12.08 0 0 1-3.816 3.411 9.134 9.134 0 0 1-4.52 1.24 9.257 9.257 0 0 1-4.51-1.24 12.356 12.356 0 0 1-3.896-3.426 19.111 19.111 0 0 1-2.872-5.814 24.373 24.373 0 0 1-.717-3.392 27.052 27.052 0 0 1-.244-3.752c.001-1.925.194-3.846.576-5.733.359-1.784.922-3.52 1.676-5.175a15.592 15.592 0 0 1 4.371-5.752 8.984 8.984 0 0 1 5.616-2.015" fill="#fff"/></mask><g mask="url(#z)"><path d="M514.477 68.924h-35.076v47.024h35.076V68.924Z" fill="#287BAF"/></g><mask id="A" style="mask-type:luminance" maskUnits="userSpaceOnUse" x="511" y="74" width="29" height="37"><path fill-rule="evenodd" clip-rule="evenodd" d="M517.231 78.76v23.63a9.377 9.377 0 0 0 1.081 4.983c.35.548.84.992 1.417 1.287a3.62 3.62 0 0 0 1.87.39h.786v.93h-11.174v-.93h.838a3.528 3.528 0 0 0 3.226-1.606 9.393 9.393 0 0 0 1.022-4.961V77.895a3.143 3.143 0 0 0-1.278-1.631 5.284 5.284 0 0 0-2.594-.49h-1.214v-.93h8.515l13.779 26.665V82.493a9.19 9.19 0 0 0-1.099-5.02 3.712 3.712 0 0 0-1.427-1.292 3.678 3.678 0 0 0-1.879-.398h-.791v-.93h11.231v.93h-.887a3.56 3.56 0 0 0-1.822.378 3.584 3.584 0 0 0-1.388 1.247 9.305 9.305 0 0 0-1.053 4.936v28.241h-.69L517.231 78.76Z" fill="#fff"/></mask><g mask="url(#A)"><path d="M544.867 69.477h-38.991v46.475h38.991V69.477Z" fill="#287BAF"/></g><mask id="B" style="mask-type:luminance" maskUnits="userSpaceOnUse" x="537" y="74" width="29" height="36"><path fill-rule="evenodd" clip-rule="evenodd" d="M545.153 97.875h10.034l-4.963-17.054-5.071 17.054Zm-1.485 4.889c-.092.31-.154.512-.178.62-.025.109-.062.332-.111.652l-.093 1.277a3.76 3.76 0 0 0 .955 2.744 3.435 3.435 0 0 0 2.582.977h.979v.93h-10.603v-.93a5.006 5.006 0 0 0 3.309-1.687 15.99 15.99 0 0 0 2.439-5.333l8.253-27.726h1.091l10.397 34.752h3.139v.93h-11.478v-.93h4.137l-3.001-10.282h-10.637l-1.18 4.006Z" fill="#fff"/></mask><g mask="url(#B)"><path d="M571.153 68.924h-39.289v46.419h39.289v-46.42Z" fill="#287BAF"/></g><mask id="C" style="mask-type:luminance" maskUnits="userSpaceOnUse" x="564" y="74" width="26" height="36"><path fill-rule="evenodd" clip-rule="evenodd" d="M578.288 74.844v.93h-4.769v33.254h4.313a8.886 8.886 0 0 0 4.209-.832 8.94 8.94 0 0 0 3.338-2.712 24.23 24.23 0 0 0 3.654-11.274h.539v15.755h-24.953v-.931h4.769V75.786h-4.769v-.93l13.669-.012Z" fill="#fff"/></mask><g mask="url(#C)"><path d="M594.892 69.477h-35.615v45.864h35.615V69.477Z" fill="#287BAF"/></g><mask id="D" style="mask-type:luminance" maskUnits="userSpaceOnUse" x="81" y="49" width="6" height="21"><path fill-rule="evenodd" clip-rule="evenodd" d="M82.057 69.51c.416.266 1.057-.029 1.731-.385 1.414-.741 1.698-2.01 2.181-9.662.395-6.241-1.078-8.53-1.728-9.224a1.761 1.761 0 0 0-1.232-.651c-1.053.074-1.146 1.259-1.146 2.366 0 1.34-.132 12.712-.262 15.345-.07 1.28.071 1.969.46 2.21" fill="#fff"/></mask><g mask="url(#D)"><path d="M91.364 44.224H76.247v30.758h15.117V44.224Z" fill="#287BAF"/></g><mask id="E" style="mask-type:luminance" maskUnits="userSpaceOnUse" x="50" y="123" width="4" height="7"><path d="m52.137 123.451-1.218.369 1.75 5.852 1.218-.369-1.75-5.852Z" fill="#fff"/></mask><g mask="url(#E)"><path d="M59.209 118.085H45.602v16.957h13.607v-16.957Z" fill="#287BAF"/></g><mask id="F" style="mask-type:luminance" maskUnits="userSpaceOnUse" x="54" y="121" width="7" height="8"><path fill-rule="evenodd" clip-rule="evenodd" d="m54.742 122.695 1.287-.332 3.33 3.532-1.032-4.112 1.143-.285 1.491 5.919-1.232.31-3.416-3.572 1.06 4.174-1.14.31-1.491-5.944Z" fill="#fff"/></mask><g mask="url(#F)"><path d="M66.29 116.125H49.41v17.869h16.88v-17.869Z" fill="#287BAF"/></g><mask id="G" style="mask-type:luminance" maskUnits="userSpaceOnUse" x="61" y="120" width="6" height="7"><path fill-rule="evenodd" clip-rule="evenodd" d="m66.528 120.004.206 1.048-1.78.357.98 4.945-1.233.257-.982-4.961-1.787.36-.207-1.033 4.803-.973Z" fill="#fff"/></mask><g mask="url(#G)"><path d="M72.067 114.637h-15.68v17.338h15.68v-17.338Z" fill="#287BAF"/></g><mask id="H" style="mask-type:luminance" maskUnits="userSpaceOnUse" x="68" y="118" width="7" height="8"><path fill-rule="evenodd" clip-rule="evenodd" d="m73.373 120.026-3.115.477.182 1.265 2.862-.428.154 1.045-2.852.435.23 1.55 3.27-.493.16 1.082-4.498.682-.91-6.043 4.35-.66.167 1.088Z" fill="#fff"/></mask><g mask="url(#H)"><path d="M79.596 113.573H63.527v17.435h16.069v-17.435Z" fill="#287BAF"/></g><mask id="I" style="mask-type:luminance" maskUnits="userSpaceOnUse" x="75" y="118" width="7" height="7"><path fill-rule="evenodd" clip-rule="evenodd" d="M79.76 118.379c.232.069.444.196.615.369.135.143.251.304.345.478.097.199.157.414.179.635.024.298-.024.597-.142.872a1.223 1.223 0 0 1-.653.666c.248.064.466.213.616.422.164.283.257.602.271.93l.037.4c.012.191.042.38.09.564a.518.518 0 0 0 .264.31v.152l-1.386.137a2.857 2.857 0 0 1-.114-.31 3.189 3.189 0 0 1-.098-.509l-.065-.567c0-.274-.096-.538-.271-.747a.967.967 0 0 0-.749-.121l-1.232.121.228 2.381-1.232.124-.588-6.09 2.883-.282a2.702 2.702 0 0 1 1.001.065Zm-2.52 1.163.16 1.631 1.361-.133c.206-.009.407-.064.588-.162a.68.68 0 0 0 .308-.716.778.778 0 0 0-.422-.71 1.238 1.238 0 0 0-.594-.053l-1.402.143Z" fill="#fff"/></mask><g mask="url(#I)"><path d="M86.737 112.935H70.573v17.118h16.164v-17.118Z" fill="#287BAF"/></g><mask id="J" style="mask-type:luminance" maskUnits="userSpaceOnUse" x="83" y="117" width="6" height="8"><path fill-rule="evenodd" clip-rule="evenodd" d="m83.428 117.933 1.328-.071 2.557 4.127-.195-4.226 1.184-.056.277 6.105-1.27.056-2.627-4.195.197 4.307-1.177.052-.274-6.099Z" fill="#fff"/></mask><g mask="url(#J)"><path d="M93.914 112.34H78.095v17.056h15.82V112.34Z" fill="#287BAF"/></g><mask id="K" style="mask-type:luminance" maskUnits="userSpaceOnUse" x="90" y="117" width="7" height="7"><path fill-rule="evenodd" clip-rule="evenodd" d="M92.756 117.663h1.448l2.11 6.121h-1.38l-.385-1.256-2.243-.016-.413 1.241h-1.327l2.19-6.09Zm-.093 3.792h1.54l-.745-2.403-.794 2.403Z" fill="#fff"/></mask><g mask="url(#K)"><path d="M101.643 112.296H85.224v16.867h16.419v-16.867Z" fill="#287BAF"/></g><mask id="L" style="mask-type:luminance" maskUnits="userSpaceOnUse" x="97" y="117" width="6" height="7"><path fill-rule="evenodd" clip-rule="evenodd" d="m102.392 117.979-.055 1.061-1.812-.099-.256 5.044L99 123.93l.256-5.051-1.82-.087.055-1.061 4.901.248Z" fill="#fff"/></mask><g mask="url(#L)"><path d="M107.721 112.364H92.103v16.989h15.618v-16.989Z" fill="#287BAF"/></g><mask id="M" style="mask-type:luminance" maskUnits="userSpaceOnUse" x="103" y="118" width="3" height="7"><path d="m104.491 118.149-.546 6.087 1.264.115.546-6.087-1.264-.115Z" fill="#fff"/></mask><g mask="url(#M)"><path d="M111.07 112.786H98.625v16.936h12.445v-16.936Z" fill="#287BAF"/></g><mask id="N" style="mask-type:luminance" maskUnits="userSpaceOnUse" x="107" y="118" width="7" height="8"><path fill-rule="evenodd" clip-rule="evenodd" d="M112.339 124.624a3.134 3.134 0 0 1-3.943-.511 3.329 3.329 0 0 1-.595-2.614 3.254 3.254 0 0 1 1.233-2.372 3.081 3.081 0 0 1 2.059-.463 3.101 3.101 0 0 1 1.878.968 3.317 3.317 0 0 1 .588 2.617 3.37 3.37 0 0 1-1.232 2.375m-.672-1.039c.377-.415.601-.948.635-1.51a2.53 2.53 0 0 0-.231-1.618 1.576 1.576 0 0 0-1.112-.706 1.55 1.55 0 0 0-1.254.396 2.49 2.49 0 0 0-.635 1.51 2.432 2.432 0 0 0 .238 1.615 1.526 1.526 0 0 0 1.107.716 1.526 1.526 0 0 0 1.252-.406" fill="#fff"/></mask><g mask="url(#N)"><path d="M118.935 113.263h-16.506v17.208h16.506v-17.208Z" fill="#287BAF"/></g><mask id="O" style="mask-type:luminance" maskUnits="userSpaceOnUse" x="115" y="119" width="7" height="8"><path fill-rule="evenodd" clip-rule="evenodd" d="m116.442 119.629 1.307.248 1.565 4.592.767-4.158 1.155.211-1.1 6.009-1.232-.226-1.611-4.682-.786 4.229-1.155-.208 1.09-6.015Z" fill="#fff"/></mask><g mask="url(#O)"><path d="M126.565 114.262H110.01v17.633h16.555v-17.633Z" fill="#287BAF"/></g><mask id="P" style="mask-type:luminance" maskUnits="userSpaceOnUse" x="122" y="121" width="6" height="8"><path fill-rule="evenodd" clip-rule="evenodd" d="m125.647 121.514 1.408.335.665 6.452-1.343-.326-.098-1.308-2.175-.524-.681 1.116-1.306-.31 3.53-5.435Zm-.949 3.674 1.498.369-.176-2.509-1.322 2.14Z" fill="#fff"/></mask><g mask="url(#P)"><path d="M133.041 116.146h-16.269v17.519h16.269v-17.519Z" fill="#287BAF"/></g><mask id="Q" style="mask-type:luminance" maskUnits="userSpaceOnUse" x="129" y="122" width="6" height="9"><path fill-rule="evenodd" clip-rule="evenodd" d="m131.331 122.975 1.232.359-1.414 4.819 2.902.865-.308 1.042-4.128-1.219 1.716-5.866Z" fill="#fff"/></mask><g mask="url(#Q)"><path d="M139.374 117.607h-15.085v17.82h15.085v-17.82Z" fill="#287BAF"/></g><mask id="R" style="mask-type:luminance" maskUnits="userSpaceOnUse" x="48" y="115" width="6" height="7"><path fill-rule="evenodd" clip-rule="evenodd" d="M53.676 118.308a2.258 2.258 0 0 1-1.325.85l-1.201.356.616 2.099-1.232.363-1.707-5.866 2.498-.732a2.053 2.053 0 0 1 1.507.05 1.887 1.887 0 0 1 .924 1.24 1.92 1.92 0 0 1-.08 1.625m-1.559-1.842a1.01 1.01 0 0 0-.69 0l-1.078.31.502 1.721 1.075-.31a1 1 0 0 0 .58-.403.903.903 0 0 0 .027-.726.856.856 0 0 0-.416-.589" fill="#fff"/></mask><g mask="url(#R)"><path d="M59.22 109.898H43.499v17.448H59.22v-17.448Z" fill="#287BAF"/></g><mask id="S" style="mask-type:luminance" maskUnits="userSpaceOnUse" x="56" y="112" width="7" height="8"><path fill-rule="evenodd" clip-rule="evenodd" d="m57.868 119.905-1.377-5.95 1.233-.288.523 2.272 2.265-.536-.518-2.27 1.232-.291 1.368 5.947-1.232.31-.616-2.651-2.277.53.616 2.651-1.217.276Z" fill="#fff"/></mask><g mask="url(#S)"><path d="M67.942 107.478H51.156v17.794h16.786v-17.794Z" fill="#287BAF"/></g><mask id="T" style="mask-type:luminance" maskUnits="userSpaceOnUse" x="64" y="111" width="4" height="8"><path d="m65.938 111.931-1.25.226 1.075 6.012 1.25-.226-1.075-6.012Z" fill="#fff"/></mask><g mask="url(#T)"><path d="M72.36 106.563H59.34v16.967h13.018v-16.967Z" fill="#287BAF"/></g><mask id="U" style="mask-type:luminance" maskUnits="userSpaceOnUse" x="69" y="111" width="6" height="7"><path fill-rule="evenodd" clip-rule="evenodd" d="m69.408 111.329 1.263-.195.709 4.961 2.985-.434.166 1.085-4.257.62-.866-6.037Z" fill="#fff"/></mask><g mask="url(#U)"><path d="M79.864 105.767H64.076v16.979h15.788v-16.979Z" fill="#287BAF"/></g><mask id="V" style="mask-type:luminance" maskUnits="userSpaceOnUse" x="76" y="110" width="3" height="7"><path fill-rule="evenodd" clip-rule="evenodd" d="m78.662 116.318-1.263.127-.616-6.077 1.266-.131.613 6.081Z" fill="#fff"/></mask><g mask="url(#V)"><path d="M83.992 104.864H71.445v16.939h12.547v-16.939Z" fill="#287BAF"/></g><mask id="W" style="mask-type:luminance" maskUnits="userSpaceOnUse" x="81" y="109" width="6" height="8"><path fill-rule="evenodd" clip-rule="evenodd" d="M85.862 113.143a2.27 2.27 0 0 1-1.482.533l-1.248.074.127 2.171-1.276.081-.354-6.109 2.603-.146a2.054 2.054 0 0 1 1.454.385 1.859 1.859 0 0 1 .616 1.436 1.922 1.922 0 0 1-.44 1.55m-1.106-2.143a.938.938 0 0 0-.672-.164l-1.121.059.105 1.804 1.118-.071a.885.885 0 0 0 .644-.263.884.884 0 0 0 .197-.707.845.845 0 0 0-.271-.658Z" fill="#fff"/></mask><g mask="url(#W)"><path d="M91.638 104.387H76.293v16.991h15.345v-16.991Z" fill="#287BAF"/></g><mask id="X" style="mask-type:luminance" maskUnits="userSpaceOnUse" x="93" y="109" width="7" height="7"><path fill-rule="evenodd" clip-rule="evenodd" d="m98.178 109.624 1.82.052-.184 6.115-1.177-.034.123-4.136c0-.115 0-.28.021-.5.022-.22 0-.375 0-.493l-1.293 5.095-1.233-.038-.982-5.165c0 .121-.016.285-.016.499v.496l-.12 4.13-1.186-.025.188-6.114 1.849.056.96 4.843 1.23-4.781Z" fill="#fff"/></mask><g mask="url(#X)"><path d="M105.328 104.142H88.625v17.016h16.703v-17.016Z" fill="#287BAF"/></g><mask id="Y" style="mask-type:luminance" maskUnits="userSpaceOnUse" x="103" y="109" width="6" height="8"><path fill-rule="evenodd" clip-rule="evenodd" d="M107.724 115.871a3.102 3.102 0 0 1-3.949-.366 3.32 3.32 0 0 1-.693-2.589 3.29 3.29 0 0 1 1.149-2.425 2.663 2.663 0 0 1 2.039-.53 2.632 2.632 0 0 1 1.91.902 3.233 3.233 0 0 1 .69 2.58 3.32 3.32 0 0 1-1.146 2.425m-.702-1.008a3.074 3.074 0 0 0 .283-3.141 1.45 1.45 0 0 0-1.127-.664 1.473 1.473 0 0 0-1.232.447 2.494 2.494 0 0 0-.589 1.55 2.48 2.48 0 0 0 .308 1.61 1.543 1.543 0 0 0 1.803.581 1.54 1.54 0 0 0 .566-.368" fill="#fff"/></mask><g mask="url(#Y)"><path d="M114.224 104.584H97.728v17.202h16.496v-17.202Z" fill="#287BAF"/></g><mask id="Z" style="mask-type:luminance" maskUnits="userSpaceOnUse" x="111" y="110" width="7" height="8"><path fill-rule="evenodd" clip-rule="evenodd" d="M116.316 111.598c.206.123.378.297.499.505.11.171.188.36.231.558.047.214.055.435.022.651-.051.295-.17.574-.345.816a1.23 1.23 0 0 1-.804.48c.232.123.413.324.511.568.092.316.102.649.031.97l-.059.407a3.14 3.14 0 0 0-.052.564.495.495 0 0 0 .179.375l-.022.152-1.377-.208a2.787 2.787 0 0 1-.006-.862l.074-.564a1.188 1.188 0 0 0-.083-.8 1.038 1.038 0 0 0-.687-.31l-1.232-.183-.352 2.369-1.232-.192.924-6.04 2.862.44c.322.043.634.146.918.304Zm-2.723.499-.243 1.631 1.346.198c.203.043.413.043.616 0a.666.666 0 0 0 .462-.62.81.81 0 0 0-.228-.791 1.358 1.358 0 0 0-.573-.192l-1.38-.226Z" fill="#fff"/></mask><g mask="url(#Z)"><path d="M122.419 105.492h-16.133v17.516h16.133v-17.516Z" fill="#287BAF"/></g><mask id="aa" style="mask-type:luminance" maskUnits="userSpaceOnUse" x="119" y="112" width="7" height="8"><path fill-rule="evenodd" clip-rule="evenodd" d="M124.665 113.197c.195.141.356.326.468.54.098.177.164.37.194.57a1.78 1.78 0 0 1-.413 1.436 1.185 1.185 0 0 1-.829.434c.225.139.396.351.484.601a1.96 1.96 0 0 1-.028.974l-.083.397a3.461 3.461 0 0 0-.086.564.547.547 0 0 0 .151.385l-.025.149-1.365-.292c0-.143-.018-.245-.018-.335.001-.176.023-.352.065-.524l.101-.561a1.129 1.129 0 0 0-.037-.797.967.967 0 0 0-.668-.344l-1.205-.257-.493 2.337-1.216-.257 1.257-5.975 2.84.596c.319.07.625.191.906.359Zm-2.748.344-.333 1.603 1.328.286c.201.052.411.061.616.028a.681.681 0 0 0 .49-.599.782.782 0 0 0 .024-.426.782.782 0 0 0-.206-.374 1.154 1.154 0 0 0-.549-.229l-1.37-.289Z" fill="#fff"/></mask><g mask="url(#aa)"><path d="M130.678 106.878h-16.343v17.736h16.343v-17.736Z" fill="#287BAF"/></g><mask id="ab" style="mask-type:luminance" maskUnits="userSpaceOnUse" x="127" y="114" width="4" height="7"><path fill-rule="evenodd" clip-rule="evenodd" d="m128.737 120.33-1.232-.329 1.522-5.916 1.232.31-1.522 5.935Z" fill="#fff"/></mask><g mask="url(#ab)"><path d="M135.582 108.718h-13.416v16.979h13.416v-16.979Z" fill="#287BAF"/></g><mask id="ac" style="mask-type:luminance" maskUnits="userSpaceOnUse" x="132" y="115" width="6" height="8"><path fill-rule="evenodd" clip-rule="evenodd" d="M133.324 119.659c-.044.22-.03.448.04.661a1.339 1.339 0 0 0 .903.679c.236.072.48.11.727.114a.71.71 0 0 0 .708-.53.518.518 0 0 0-.114-.521 2.825 2.825 0 0 0-.711-.511l-.576-.332a4.451 4.451 0 0 1-1.125-.831 1.52 1.52 0 0 1-.216-1.448 1.761 1.761 0 0 1 .968-1.135 2.603 2.603 0 0 1 1.848 0 2.721 2.721 0 0 1 1.439.977 1.848 1.848 0 0 1 .249 1.631l-1.173-.363a.88.88 0 0 0-.235-.893 1.842 1.842 0 0 0-.671-.363 1.381 1.381 0 0 0-.81-.031.622.622 0 0 0-.447.437.54.54 0 0 0 .136.555c.211.184.444.343.693.472l.924.555c.338.178.634.426.869.728a1.513 1.513 0 0 1 .16 1.355 1.747 1.747 0 0 1-1.011 1.144 2.648 2.648 0 0 1-1.888 0 2.935 2.935 0 0 1-1.636-1.066 1.835 1.835 0 0 1-.215-1.634l1.164.35Z" fill="#fff"/></mask><g mask="url(#ac)"><path d="M142.871 110.258h-16.149v17.273h16.149v-17.273Z" fill="#287BAF"/></g><mask id="ad" style="mask-type:luminance" maskUnits="userSpaceOnUse" x="68" y="39" width="50" height="60"><path fill-rule="evenodd" clip-rule="evenodd" d="M92.587 98.24h.015c13.502 0 24.472-13.295 24.472-29.614 0-16.319-10.973-29.614-24.472-29.62h-.016c-13.498 0-24.48 13.29-24.48 29.62 0 16.331 10.978 29.605 24.48 29.614Zm0-57.805c12.719 0 23.067 12.648 23.067 28.191 0 15.544-10.348 28.185-23.067 28.185-12.72 0-23.068-12.648-23.068-28.185 0-15.537 10.348-28.19 23.067-28.19Z" fill="#fff"/></mask><g mask="url(#ad)"><path d="M122.406 33.651H62.773v69.969h59.633V33.651Z" fill="#287BAF"/></g><mask id="ae" style="mask-type:luminance" maskUnits="userSpaceOnUse" x="69" y="40" width="47" height="57"><path fill-rule="evenodd" clip-rule="evenodd" d="M76.666 84.52c-.274.177-.471.217-.591.109a.31.31 0 0 1-.09-.245c.011-.147.042-.293.093-.431a106.676 106.676 0 0 0 1.639-22.173c0-3.364-.08-6.16-.21-7.562-.028-.31-.04-.57-.04-.803 0-1.08.333-1.262 1.008-1.523l.07-.025a2.559 2.559 0 0 0 1.645-1.07 3.665 3.665 0 0 1 1.26-1.737 3.627 3.627 0 0 1 2.012-.727c1.38 0 6.534 1.86 6.534 11.044a11.255 11.255 0 0 1-1.583 7.021 11.141 11.141 0 0 1-5.502 4.6l-.148.056c-.617.236-.684.788-.724 1.268l-.025.143c-.97 8.641-4.313 11.41-5.339 12.061m16.278-33.443c-.077-.384-.065-.52.03-.558.096-.037.226.096.441.474l.096.165a79.815 79.815 0 0 1 5.286 13.875.886.886 0 0 0 .099.27c.05-.085.088-.175.114-.27a82.48 82.48 0 0 1 5.668-14.322c.441-.62.588-.716.702-.666.114.05.093.275.031.604l-.037.195a96.65 96.65 0 0 0 3.081 33.32c.163.496.142.62.052.691-.089.072-.308-.093-.483-.276 0 0-.041-.052-.025-.043-4.51-3.02-6.811-12.585-6.879-13.333-.028-.335-.102-.41-.114-.425a.528.528 0 0 0-.037.066c-.367 1.24-1.408 6.052-2.104 9.243-.308 1.49-.554 2.573-.616 2.765l-.074.31c-.05.217-.068.31-.173.31-.104 0-.132-.08-.308-.62-.175-.54-1.075-4.058-1.802-6.917-.514-2.003-.955-3.721-1.026-3.944a1.707 1.707 0 0 0-.144-.39 1.393 1.393 0 0 0-.062.117l-.564 1.77A18.013 18.013 0 0 1 88.4 83.612c-.8.598-.924.589-1.014.514-.089-.074 0-.31.29-.734a65.676 65.676 0 0 0 5.237-32.312m-.36 45.737c12.719 0 23.067-12.647 23.067-28.184 0-15.538-10.348-28.194-23.067-28.194-12.72 0-23.068 12.647-23.068 28.194 0 15.546 10.348 28.184 23.068 28.184Z" fill="#fff"/></mask><g mask="url(#ae)"><path d="M120.992 35.084h-56.8v67.11h56.8v-67.11Z" fill="#287BAF"/></g><mask id="af" style="mask-type:luminance" maskUnits="userSpaceOnUse" x="89" y="5" width="6" height="7"><path fill-rule="evenodd" clip-rule="evenodd" d="M91.243 8.444a1.184 1.184 0 0 1 .723-1.089 1.163 1.163 0 0 1 1.276.255 1.181 1.181 0 0 1-.828 2.012 1.17 1.17 0 0 1-.827-.346 1.184 1.184 0 0 1-.344-.832Zm3.753 0a2.614 2.614 0 0 0-.433-1.447 2.589 2.589 0 0 0-1.159-.961 2.569 2.569 0 0 0-2.818.56 2.618 2.618 0 0 0-.563 2.836 2.576 2.576 0 0 0 2.388 1.607 2.583 2.583 0 0 0 1.824-.762 2.616 2.616 0 0 0 .76-1.833Z" fill="#fff"/></mask><g mask="url(#af)"><path d="M100.328.472H84.5v15.93h15.828V.473Z" fill="#287BAF"/></g><mask id="ag" style="mask-type:luminance" maskUnits="userSpaceOnUse" x="0" y="-1" width="185" height="137"><path d="M184.843-.003H0v136h184.843v-136Z" fill="#fff"/></mask><g mask="url(#ag)"><mask id="ah" style="mask-type:luminance" maskUnits="userSpaceOnUse" x="0" y="-1" width="186" height="138"><path d="M185.533-.003H0v136.301h185.533V-.002Z" fill="#fff"/></mask><g mask="url(#ah)"><mask id="ai" style="mask-type:luminance" maskUnits="userSpaceOnUse" x="0" y="-1" width="185" height="137"><path fill-rule="evenodd" clip-rule="evenodd" d="M183.06 49.355c.103.11.171.25.194.4a.16.16 0 0 1-.016.071c-.046.174-.289.419-.822.62a2.515 2.515 0 0 1-2.027-.164l-.092-.043-.207-.075c-2.609-.998-1.642-.756-2.005 1.718-.062.31-.105.676-.151 1.051a30.477 30.477 0 0 1-1.196 5.271l-.206.8a1.168 1.168 0 0 1-.031.155 8.786 8.786 0 0 1-1.016-.952l-.499-.527a12.743 12.743 0 0 1-4.427-7.243 3.793 3.793 0 0 1 1.044-2.576 1.686 1.686 0 0 0 .795-1.28.363.363 0 0 0 0-.094c-.059-.815-.884-1.222-1.482-1.516l-.277-.149a8.977 8.977 0 0 0-6.978-.105 7.52 7.52 0 0 0-2.697 2.538 7.582 7.582 0 0 0-1.166 3.526v.05a10.757 10.757 0 0 0 .477 5.873 10.687 10.687 0 0 0 3.497 4.725 5.432 5.432 0 0 0-.523 1.522 9.4 9.4 0 0 1-.308 1.157c-.145.49-.308 1.017-.413 1.522-1.417-2.17-3.367-5.488-3.965-6.604a14.263 14.263 0 0 1-.521-12.263 8.826 8.826 0 0 1 4.492-4.152 8.118 8.118 0 0 1 6.121-.31c1.035.48 2.124.83 3.244 1.045a9.643 9.643 0 0 0 3.484-.477 6.43 6.43 0 0 1 1.848-.329 13.38 13.38 0 0 1 2.573.877c.524.234 1.065.428 1.617.583.273.04.55.05.826.028a3.46 3.46 0 0 1 1.186.087c-.053.372-.2.724-.426 1.023h-.018v.019a4.73 4.73 0 0 0-.582 2.201c-.02.722.211 1.428.653 1.997Zm-2.077 6.902a16.266 16.266 0 0 0-1.666 6.071c.028.454.168.894.406 1.28.239.387.569.708.962.934.126.074.117.198-.028.288-.096.053-.49.283-.49.283a5.49 5.49 0 0 1-2.033.663 1.665 1.665 0 0 1-1.371-.48 9.397 9.397 0 0 1-1.916-5.721c.98.973 1.596 1.283 2.184 1.107.678-.208.801-.93.89-1.442l.121-.502a31.78 31.78 0 0 0 1.293-5.634c.045-.543.149-1.08.308-1.6a.36.36 0 0 1 .102.028l.086.043c.142.056.308.13.502.199a8.366 8.366 0 0 1 .872 3.336c.009.394-.066.785-.222 1.147ZM164.296 64.5c.154-.521.216-.862.345-1.334a7.604 7.604 0 0 1 1.882-3.134c0-.022.025-.031.031-.05.031.109.102.388.102.388l.151.508c.234.803.591 1.904.795 2.456.742 1.975.471 2.217 2.667 1.262l.589-.242a1.07 1.07 0 0 1 .132-.075c.038.158.064.32.077.481v.1c.049.505.872 3.742 1.069 4.517.709 2.76-.037 2.54 2.24 1.615 1.58-.648 2.48-.477 2.544-.344.561.93-2.156 5.361-3.407 6.487-.845.98-1.544 2.08-2.073 3.265l-.074.177a15.805 15.805 0 0 1-2.049 3.757 8.41 8.41 0 0 1-5.006 3.103 8.375 8.375 0 0 1-5.803-.95l-.164-.069a9.872 9.872 0 0 0 .69-2.958 6.407 6.407 0 0 0 4.35 1.479A7.035 7.035 0 0 0 168 82.687a7.123 7.123 0 0 0 1.881-4.803 5.512 5.512 0 0 0-1.575-3.748 5.441 5.441 0 0 0-3.705-1.628 5.821 5.821 0 0 0-3.204.62c0-.121-.031-.37-.031-.682 0-1.03.191-2.822 1.442-3.33.188-.072.518-.205.699-.255 2.123-.558 2.052-.58.617-1.612-.087-.062-.142-.084-.216-.146a.82.82 0 0 0-.059-.059.538.538 0 0 1-.061-.31c.088-.761.258-1.511.508-2.235Zm-3.327 27.595.379.282c.807.602 2.48 1.86 2.341 3.042-.105.893-.105 4.763-.105 4.803.087.939.237 1.872.447 2.791.179.902.354 1.841.401 2.297a16.35 16.35 0 0 1-.767 5.473 1.258 1.258 0 0 1-.925.577 1.313 1.313 0 0 1-1.032-.208l-.184-.192c-.804-2.267-1.137-1.052-1.889.21l-.308.208c-.795.509-1.54-.254-1.74-.502a.831.831 0 0 1-.265-.592 1.155 1.155 0 0 0 0-.186c.363-2.044.277-1.845-1.322-.949-.09.039-.176.088-.256.146-.178.111-.865.365-1.007.263-.373-.31-.505-.49-.505-1.212a7.433 7.433 0 0 1 3.388-4.099 4.64 4.64 0 0 0 1.703-1.86 4.68 4.68 0 0 0 .485-2.481 8.85 8.85 0 0 0-.037-.726 4.242 4.242 0 0 0-.656-1.985 4.21 4.21 0 0 0-1.522-1.425 22.702 22.702 0 0 0-4.005-.673 13.855 13.855 0 0 1-6.759-3.175 17.834 17.834 0 0 1-5.169-8.3 3.182 3.182 0 0 1-.074-.785 19.252 19.252 0 0 1 1.291-6.074 7.05 7.05 0 0 0 .73-3.21v-.378a24.99 24.99 0 0 1 2.344 2.028c2.563 2.53 2.114 1.367.773-.496a12.314 12.314 0 0 0-2.772-3.045 15.436 15.436 0 0 0-5.262-2.267 11.35 11.35 0 0 1-4.602-1.807c.172-.103.336-.19.462-.27.126-.08 1.232-.81 2.264-1.569.379.567.937.987 1.584 1.194a3.512 3.512 0 0 0 3.302-1.141 9.8 9.8 0 0 0 .869-1.73s.308-.682.308-.713a18.703 18.703 0 0 1 2.874-2.09c.653-.31.484-.444-.16-.35-.764.117-3.447.858-3.928 1.714l-.413.893c-.188.51-.428 1-.717 1.46a2.187 2.187 0 0 1-1.803.574 1.649 1.649 0 0 1-.797-.694 3.4 3.4 0 0 0 .465-.5.706.706 0 0 0-.234-.955.724.724 0 0 0-.977.22l.015-.027a28.985 28.985 0 0 1-3.422 2.52 18.493 18.493 0 0 1-2.847 1.575l-.794.397-.388.165a2.49 2.49 0 0 0-1.334.896 2.523 2.523 0 0 0-.515 1.528c-.148 1.489-.711 2.577-1.152 2.62a1.907 1.907 0 0 1-1.386-.675 2.977 2.977 0 0 1-.308-.407c-.447-1.24-.656-1.24-1.405-.31-.234.289-1.127 0-1.414-.09-.286-.09-.687-.375-.576-.852.49-2.48.49-2.608-1.331-2.096-.274.043-.462-.127-.616-.422-.154-.295.071-.97.416-2.05l.034-.105a6.286 6.286 0 0 1 1.944-2.366c.388-.381.924-.828 1.287-1.203a9.436 9.436 0 0 1 3.389-1.479 12.282 12.282 0 0 0 4.082-2.195 23.47 23.47 0 0 1 4.621-3.1c.736-.345.69-.602-.5-.261a19.828 19.828 0 0 0-5.113 2.372 4.12 4.12 0 0 1-.265.23 8.154 8.154 0 0 1 .597-7.907l.059-.087h.139l.382-.028 1.303-.078a1.533 1.533 0 0 0 .449 1.148 3.036 3.036 0 0 0 2.887.344c.04-.016 4.005-1.696 4.759-2.217.26-.17.53-.323.811-.456.101.878.308 2.397.542 3.5a2.53 2.53 0 0 0 1.346 1.972 1.627 1.627 0 0 0 1.516-.123l.172-.075a5.808 5.808 0 0 0 2.828-3.147c.102-.223.197-.41.271-.564.028.059.037.102.074.18l.222.465.24.508a43.075 43.075 0 0 1 4.929 15.755l.268 2.67a8.085 8.085 0 0 0 2.465 5.413c.171.148.322.317.449.505a12.835 12.835 0 0 1 1.208 4.106v.083c.003.314.043.626.12.93a10.783 10.783 0 0 1-.474 4.341c-.336-.49-.616-.908-.814-1.212-1.648-2.536-4.996-4.7-1.195.754a34.684 34.684 0 0 0 5.81 7.025l-.003-.006Zm4.408 18.009h16.768c-.924 1.628-4.405 7.702-4.405 7.702s3.327 6.511 4.146 8.12h-41.132l3.334-11.472-.592-.239c-1.898-.7-3.848-1.367-5.822-1.993 1.263-1.014 2.538-2.041 2.628-2.109h13.021c.182.245.399.461.644.642a2.278 2.278 0 0 0 2.018 0c.084.393.261.759.514 1.07.393.556.978.945 1.64 1.09a2.708 2.708 0 0 0 1.943-.303l.616-.428a2.655 2.655 0 0 0 2.227.599 2.63 2.63 0 0 0 1.975-1.299 5.49 5.49 0 0 0 .477-1.374v-.006Zm-28.504 24.061a138.223 138.223 0 0 0-44.197-7.569h-.083a137.904 137.904 0 0 0-44.2 7.578l-5.471-18.861a150.29 150.29 0 0 1 49.668-8.722h.086a150.642 150.642 0 0 1 49.717 8.74l-5.52 18.834Zm-134.159-8.24c.82-1.612 4.15-8.12 4.15-8.12s-3.475-6.071-4.415-7.702h13.736c0 .059-.015.121-.015.186a1.79 1.79 0 0 0 .228.896 1.99 1.99 0 0 0 1.488.93c.79.137 1.592.193 2.393.168h.308c1.686-.056 3.558-.124 4.131-2.171h20.169c.092.068 1.445 1.079 2.8 2.081a135.358 135.358 0 0 0-5.911 2.018l-.589.217 3.358 11.504-41.831-.007Zm13.037-19.224-1.319-.077a.407.407 0 0 1-.246-.084c-.132-.192.062-1.032.166-1.479.1-.455.164-.917.191-1.383.034-.461.093-.919.18-1.373.358-1.586.537-3.208.532-4.834 0-.599-.015-1.256-.065-1.972a24.47 24.47 0 0 1-.061-1.532c0-1.318.175-1.677.258-1.78.053-.055.22-.068.484-.087l.475-.04.425-.043a8.327 8.327 0 0 0 3.823-.978 8.388 8.388 0 0 0 2.954-2.631c1.386-2.23 1.728-4.44 2.027-9.922a14.76 14.76 0 0 1 1.817-5.783 14.664 14.664 0 0 1 3.984-4.552l.964-.54c1.278-.706 2.825-1.714 4.122-2.502a2.917 2.917 0 0 0 1.49-1.485c.282-.797.605-1.58.968-2.344a28.21 28.21 0 0 0 1.571-4.276 15.7 15.7 0 0 0-.542-9.202c.173.049.35.083.53.102.374.071.762.02 1.104-.148a1.78 1.78 0 0 0 .8-.782c.487.403 1.05.705 1.654.887 1.645.62 3.696 1.138 4.691.26.053.06.102.121.148.186a49.651 49.651 0 0 0 7.086 5.122c2.772 1.86 5.65 3.774 6.903 4.837.69.583.961.856.961 1.613a4.984 4.984 0 0 1-.058.7c-.074.59-.244 1.433-.425 2.314a34.42 34.42 0 0 0-.561 4.62 43.62 43.62 0 0 0 .157 4.855l.062.744c.038.277.059.555.061.834a1.017 1.017 0 0 1-.477 1.02 34.8 34.8 0 0 1-3.98 1.55c-.94.31-1.488.51-1.75.64a1.097 1.097 0 0 1-.961.024c-.308-.198-.376-.732-.391-1.14l-.05-1.018c-.092-1.404-.098-1.485.924-1.86a.808.808 0 0 1 .69.025 2.285 2.285 0 0 0 1.633 0 3.83 3.83 0 0 0 2.292-2.27c.518-.955.228-2.127.355-4.248l.083-1.454c.098-1.067.671-2.583-2.123-3.482-4.725-1.526-7.489-2.341-8.444-2.5a8.314 8.314 0 0 1-3.028-1.069.672.672 0 0 0-.741-.15.67.67 0 0 0-.22.15.718.718 0 0 0 0 1.002 8.61 8.61 0 0 0 3.777 1.475c.6.106 2.507.658 8.259 2.465.139.04.271.098.394.174-.225.465-.459.93-.712 1.426a28.103 28.103 0 0 1-4.559 6.016 12.089 12.089 0 0 1-6.635 3.258c-2.27.152-4.458.914-6.334 2.208a12.758 12.758 0 0 0-4.334 5.147 47.092 47.092 0 0 0-2.104 4.738 14.32 14.32 0 0 1-1.482 3.144c-.924 1.088-3.367 2.384-4.584 1.86a3.536 3.536 0 0 0-3.589-.173c-.57.328-.373.772-1.479.682-.397-.034-1.793-.118-1.82.279-.028.397.96.75 1.34.781 2.178.183 1.925-.077 2.662-.496.388-.223.708-.41 1.919.068a2.762 2.762 0 0 1-.64 1.185 2.731 2.731 0 0 1-1.12.738 8.962 8.962 0 0 1-3.81.108c-1.365-.149-3.358.233-3.543 1.368l-.126.573c-.18.735-.32 1.48-.419 2.23a6.822 6.822 0 0 0 .89 4.309c.308.311 1.134 1.008 1.95 1.7l1.316 1.119.222.189c.597.509 1.207 1.036 1.152 3.126-.059 1.835-.749 1.934-2.94 2.012h-.307a3.621 3.621 0 0 1-2.465-.555c-.422-.279.265-1.188.36-1.479a1.82 1.82 0 0 0 .102-.447c.392-1.64 1.46-1.59-1.512-1.621-.268-.044-.6-.047-.952-.056v-.016ZM14.716 79.05c-1.46-2.98-.185-7.525 3.389-12.164l.964-1.305.428-.512a8.453 8.453 0 0 0 1.925-4.552 3.047 3.047 0 0 0-.104-.812 2.415 2.415 0 0 0-1.612-1.634 2.455 2.455 0 0 1-.69-.332 4.74 4.74 0 0 1 .792-.654l.348-.236a3.105 3.105 0 0 1 2.243-.48l.363.093a1.805 1.805 0 0 0 1.54-.031c.617-.36 1.014-1.163 1.353-2.716a9.924 9.924 0 0 0-1.519-7.278 8.032 8.032 0 0 0-2.838-2.695 7.97 7.97 0 0 0-3.766-1.025 3.298 3.298 0 0 0-1.802.954 3.335 3.335 0 0 0-.903 1.836c-.161.49-.25 1-.265 1.517a6.439 6.439 0 0 0 1.848 4.539c.033.031.068.06.105.087a3.043 3.043 0 0 1-.277.056 2.2 2.2 0 0 1-.37-.029c-.86-.093-3.61-.703-3.934 1.467v.17a6.11 6.11 0 0 1-1.204 3.101 6.16 6.16 0 0 1-1.11 1.513c-.092-.207-.184-.545-.24-.713l-.095-.34a8.31 8.31 0 0 1-.308-2.348v-.202c0-.284.04-.567.117-.84a2.43 2.43 0 0 0 .237-.88.804.804 0 0 0-.333-.66c-.616-.457-1.146.123-2.495 1.01-1.118.732-1.47.732-2.129.636a8.583 8.583 0 0 1-1.404-.4c-.268-.08-.472-.09-.616-.14a16.92 16.92 0 0 0 3.533-4.34 1.485 1.485 0 0 0-.102-.714 5.46 5.46 0 0 0-2.64-2.034 32.19 32.19 0 0 1 3.746-1.079 14.523 14.523 0 0 0 5.742-2.341 18.251 18.251 0 0 1 5.38-2.307c2.852-.654 5.36.906 8.446 5.29a10.09 10.09 0 0 1 1.503 5.913 16.282 16.282 0 0 1-1.121 6.077l-.179.344a4.246 4.246 0 0 0-.616 1.895 2.199 2.199 0 0 0 1.112 1.826c.65.443.97.753.97 1.188a2.518 2.518 0 0 1-.47 1.19l-1.042 1.656a25.91 25.91 0 0 0-1.62 2.729c-.065.148-.505.88-.56.706l-.133-.542-.24-1.039c-.367-2.204-.718-2.654-1.304-2.74a.895.895 0 0 0-.942.545l-.616 1.094-.617 1.014-.64.84-.687.95c-1.849 2.53-4.658 6.35-1.732 9.993a5.86 5.86 0 0 0 6.506 1.048 42.648 42.648 0 0 1-.243 2.682c-4.47.009-7.858-1.334-9.075-3.83l.003-.015ZM11.56 59.727l-.708 1.1c-1.06 1.78-1.922 3.52-2.554 4.797l-.271.561c-.511 1.107-.616 1.148-.924 1.086a4.64 4.64 0 0 1 .145-.748c.13-.428.206-.872.224-1.32a.98.98 0 0 0 0-.202 16.196 16.196 0 0 0-2.701-5.293l-.194-.31a4.561 4.561 0 0 1-.496-2.39c0-.686.061-1.374.11-1.904v-.019a4.021 4.021 0 0 0 3.198-.815v.151a10.43 10.43 0 0 0 .493 2.959l.074.26c.182.673.478 1.795 1.47 1.922.853.118 1.654-.589 2.677-2.344a7.282 7.282 0 0 0 1.42-3.98v-.078l.04-.05c.021-.025.098-.031.215-.034a10.852 10.852 0 0 1-2.22 6.666l.002-.015Zm27.58-13.882a15.465 15.465 0 0 0-1.54-2.601v-.022a2.991 2.991 0 0 0-.227-.264c-2.755-3.47-2.117-2.13-2.44.484a8.948 8.948 0 0 0-.071.62 6.99 6.99 0 0 1-.117.89 1.07 1.07 0 0 1-.24.54c-.06.03-.228.056-.808-.127a5.278 5.278 0 0 1-2.352-1.4 5.33 5.33 0 0 1-1.344-2.396l-.025-.058a6.85 6.85 0 0 0-.308-.782c-1.34-3.479-.952-2.077-2.06-.828-.115.1-.219.21-.309.332l-.102.118a.98.98 0 0 1-.265.267.617.617 0 0 1-.117-.109 12.552 12.552 0 0 1-1.78-2.936 2.472 2.472 0 0 1-.123-.875c.035-.806.138-1.608.308-2.396l.058-.335.043-.224c.33-1.162.487-1.789.028-2.248-.459-.458-1.026-.282-2.067 0l-.206.056a4.997 4.997 0 0 1-.57.143c.202-.997.315-2.01.338-3.026a3.96 3.96 0 0 0-.41-2.367 3.925 3.925 0 0 0-1.7-1.686 4.043 4.043 0 0 1-.616-.335 18.24 18.24 0 0 0 8.45-4.303l.567-.599a6.322 6.322 0 0 1 2.49-1.944 2.571 2.571 0 0 1 1.814.62c.188.13.582.496.838.723.44.397.893.806 1.383.344a.753.753 0 0 0 0-1.051c-.872-1.076-1.396-2.335-1.208-2.608 0 0 .265-.239 1.818.059h-.059c1.254.31 4.726 1.922 2.819.31.41-.093.832-.242 1.263-.356l.616-.124c.32-.045.644-.045.964 0 .863.148 1.476.232 1.913.344l.127.028h.566c-.027.08-.061.173-.101.282a.618.618 0 0 0-.117.27c-.124.858 1.771 2.53 1.783 2.548.364.31 1.738 1.665 3.186 3.1 2.134 2.116 4.562 4.522 5.47 5.29 1.288 1.098 1.103 2.109.925 2.4-.234.397-.672.757-1.023.658l-.407-.177c-.566-.264-1.337-.62-1.9-.109a1.126 1.126 0 0 0-.34.866c.023.474.127.94.309 1.38.06.172.11.348.148.526-.234.419-1.128.44-1.704.103-.64-.456-1.25-.953-1.827-1.488l-1.222-1.03a10.553 10.553 0 0 0-4.196-1.7 5.21 5.21 0 0 1-.847-.284 9.637 9.637 0 0 0-.641-.236 4.5 4.5 0 0 1-1.793-2.983c-.09-.397-.345-.576-.397-.046a6.136 6.136 0 0 0 1.016 4.282 8.85 8.85 0 0 0 1.232 1.65l.617.777a17.85 17.85 0 0 0 5.81 5.296l1.98 1.045c3.697 1.86 9.039 3.895 11.189 9.767.829 2.556.93 5.294.29 7.904-1.458-1.042-3.361-2.316-5.238-3.566a364.12 364.12 0 0 1-3.357-2.257l.714-.366a3.89 3.89 0 0 0 2.04-2.422c.25-1.274-.712-2.403-1.58-3.817-2.046-3.302-6.898-4.03-10.016-4.44l-2.104-.331a21.457 21.457 0 0 1-9.626-4.341c-3.355-3.011-2.896-8.775-2.551-10.493.07-.394 0-1.24-.308-.34-.465 1.894-2.012 8.37 1.916 11.9a23.71 23.71 0 0 0 10.502 4.725l1.999.31c2.859.366 7.375 1.175 9.07 3.897.73 1.178 1.444 2.006 1.32 2.68-.086.446-.56.93-1.407 1.472l-1.328.62a13.675 13.675 0 0 1-2.033-1.606 3.598 3.598 0 0 0-.7-.754c-2.285-1.835-1.253-.71-1.438.382-.259.198-1.34.23-3.3-.524-1.13-.44-1.198-.493-1.675-1.166-1.414-1.839-1.143-1.104-1.47.453-.117.558-.2.728-.739.67a3.02 3.02 0 0 1-1.47-.655Zm-4.374-31.834h-.132a1.532 1.532 0 0 0-1.319.62c-.035.054-.068.11-.098.168a23.13 23.13 0 0 1-2.674-2.016 3.503 3.503 0 0 1-.792-.893 7.082 7.082 0 0 1 3.364.62l.05.022h.043c.378.091.762.155 1.149.192l.41 1.287Zm5.336-.707-.03.043-.029.063a1.942 1.942 0 0 1-.616.706l-.88-2.79a8.4 8.4 0 0 0 .686-.75l.025-.031.021-.025a7.253 7.253 0 0 1 2.363-2.506c0 .072.015.124.015.208-.005.333-.05.664-.135.986a16.385 16.385 0 0 1-1.423 4.108l.003-.012Zm-11.066 1.274a4.038 4.038 0 0 1-1.27-1.415 4.066 4.066 0 0 1-.485-1.843 1.868 1.868 0 0 1 1.065-1.433 6.921 6.921 0 0 1 5.314.338c.346.098.704.148 1.063.146h.308l-.687-2.17a59.387 59.387 0 0 0 1.584-.518l.705 2.198.253-.22c.284-.255.532-.547.74-.868a6.875 6.875 0 0 1 4.004-3.225 1.837 1.837 0 0 1 1.691.533c.477.603.716 1.361.672 2.13a6.258 6.258 0 0 1-.204 1.55 23.94 23.94 0 0 1-1.377 4.174c-.117 0-.243-.05-.375-.071a3.286 3.286 0 0 0-.71-.047c-.068.002-.137.01-.206.022a18.006 18.006 0 0 0 1.516-4.369c.107-.415.163-.842.166-1.27a1.984 1.984 0 0 0-.382-1.288.643.643 0 0 0-.616-.158c-1.004.174-2.174 1.203-3.474 3.1-.33.416-.711.787-1.134 1.105.139.421.896 2.648.896 2.648s.164.477.308.883h-.123a44.59 44.59 0 0 0-2.008-.36l-.087-.31-.733-2.437h-.17a6.735 6.735 0 0 1-1.724-.198h-.025a6.55 6.55 0 0 0-4.741-.44.824.824 0 0 0-.53.66v.136a3.501 3.501 0 0 0 1.426 2.273 26.27 26.27 0 0 0 2.9 2.17.425.425 0 0 1-.146.029 2.557 2.557 0 0 0-1.05-.016c-.12.03-.236.068-.351.112-.66-.431-1.319-.955-2.006-1.535l.004-.015ZM72.19 103.31c-.548.034-1.207.137-1.907.255-1.463.226-3.46.555-4.146 0a.788.788 0 0 1-.253-.67 11.458 11.458 0 0 1 .925-4.713 11.39 11.39 0 0 1 2.772-3.91c3.87 5.256 9.3 9.14 15.504 11.091h.617c-2.693.139-5.416.353-8.149.648-.163-.161-.332-.341-.363-.366l-.123-.108a6.842 6.842 0 0 0-2.216-1.606 6.792 6.792 0 0 0-2.664-.605l.003-.016Zm-11.062 2.84a1.96 1.96 0 0 0 1.075-.291 2.03 2.03 0 0 0 .829-1.423 8.214 8.214 0 0 0-.56-3.281 8.166 8.166 0 0 0-1.813-2.784 17.997 17.997 0 0 1 5.706-8.945l.058-.053a37.823 37.823 0 0 0 2.314 3.72 12.828 12.828 0 0 0-3.204 4.459 12.903 12.903 0 0 0-1.054 5.399 2.181 2.181 0 0 0 .764 1.689c1.171.974 3.349.621 5.268.311.66-.103 1.282-.202 1.756-.23a6.34 6.34 0 0 1 3.303 1.479 164.17 164.17 0 0 0-12.363 1.978 5.937 5.937 0 0 1-1.54-1.181 4.427 4.427 0 0 1-.542-.834l.003-.013Zm-10.97-27.477a2.236 2.236 0 0 1 1.511.002c.489.176.902.517 1.169.965l.678 1.188c.523.815.96 1.684 1.303 2.592.163 1.045-2.773 4.198-4.575 5.165a30.725 30.725 0 0 0-3.389 2.199 2.957 2.957 0 0 0-.572 1.606c.001.179.025.357.07.53a2.874 2.874 0 0 0 1.728 1.68 21.895 21.895 0 0 0 5.484 1.904 7.567 7.567 0 0 1 3.734 1.793 6.108 6.108 0 0 0 2.005 1.175l.72.183a8.677 8.677 0 0 1 1.64 4.207 1.89 1.89 0 0 1-.028.31.734.734 0 0 1-.206.475c-.244.158-.872.021-1.387-.109l-.52-.124-.44-.099-.617-.09c-1.272-.164-2.178-.329-2.273-1.051a9.903 9.903 0 0 0-.157-.971c-.617-2.48-.524-1.404-1.593-1.014l-.234.056c-.549.137-1.054.053-2.757-.856a9.396 9.396 0 0 1-1.895-1.392 7.834 7.834 0 0 0-2.033-1.407l-1.888-.726a24.843 24.843 0 0 1-3.155-1.305l-.154-.08c-.878-.466-2.06-1.105-2.246-1.936a2.11 2.11 0 0 1 .589-1.637 9.253 9.253 0 0 1 2.156-2.372c.265-.127 1.208-.93.98-1.597-.185-.564-.758-1.19-2.702-.862a7.53 7.53 0 0 1-4.796-.899l-.194-.08a44.288 44.288 0 0 1 1.863-4.146c.444-.858.971-1.669 1.574-2.422l.4-.446c3.4.46 6.85.326 10.204-.397l.003-.012ZM59.79 70.2c-.552 1.026-.703 1.305-1.556 1.615a.919.919 0 0 1-.758-.019 2.199 2.199 0 0 0-1.54 0c-2.018.742-1.956 1.82-1.848 3.309l.055.97c.001.538.126 1.069.364 1.55a3 3 0 0 0 .687.76 2.364 2.364 0 0 0 2.224.056c.215-.102.905-.344 1.623-.589.964-.338 2.086-.716 2.991-1.091a42.566 42.566 0 0 0 3.719 11.298l-.342.335a19.1 19.1 0 0 0-6.094 9.538 5.018 5.018 0 0 1-1.09-.726A8.986 8.986 0 0 0 53.79 95.1a22.022 22.022 0 0 1-5.114-1.796c-.53-.241-.863-.517-.943-.778a1.215 1.215 0 0 1 .309-.93 14.6 14.6 0 0 1 2.895-1.712c1.457-.796 5.672-4.415 5.314-6.672-.343-1.1-.84-2.144-1.478-3.1l-.669-1.166a3.612 3.612 0 0 0-1.83-1.603 3.582 3.582 0 0 0-2.424-.072 33.091 33.091 0 0 1-8.626.592 10.985 10.985 0 0 1 6.282-2.48 13.372 13.372 0 0 0 7.458-3.612 29.057 29.057 0 0 0 4.873-6.419c.058-.102.102-.198.16-.31 0 .168-.025.335-.034.527l-.03.419a15.56 15.56 0 0 1-.142 4.226v-.012Zm-36.563 34.417-.213-.171-1.337-1.138c-.752-.645-1.602-1.364-1.848-1.618a5.961 5.961 0 0 1-.521-2.592c0-.178.009-.356.028-.534.092-.702.224-1.399.394-2.086 0 0 .074-.35.108-.53a3.369 3.369 0 0 1 2.024-.31 9.596 9.596 0 0 0 4.497-.2 4.15 4.15 0 0 0 1.645-1.105 4.188 4.188 0 0 0 .95-1.747 7.355 7.355 0 0 0 2.887-.696 7.398 7.398 0 0 0 2.383-1.784 10.795 10.795 0 0 0 1.368-2.657l.142.062a8.829 8.829 0 0 0 5.603.992 5 5 0 0 1 .542-.062 11.864 11.864 0 0 0-2.34 2.62 3.84 3.84 0 0 0-.904 2.27c0 .181.02.362.062.539.308 1.485 1.849 2.291 2.954 2.89l.164.083a24.333 24.333 0 0 0 3.333 1.387l1.808.703a6.234 6.234 0 0 1 1.667 1.172 11.227 11.227 0 0 0 2.156 1.566c1.707.912 2.656 1.268 3.768.98l.132-.019c.05.251.096.62.114.76.244 1.86 2.197 2.105 3.487 2.276l.567.074.616.146a6.757 6.757 0 0 0 1.094 2.046l.825.648c-4.121.878-8.16 1.914-12.075 3.101l-3.971-3.001H24.863v-.109a4.342 4.342 0 0 0-1.636-3.938v-.018Zm117.077-20.616c0 .086.055.186.08.31a7.407 7.407 0 0 0-.693.62c-1.146.52-2.841-.685-3.697-1.284l-.105-.074c-1.824-1.414-3.475-1.718-.819.8l.108.074a10.072 10.072 0 0 0 3.444 1.913 4.712 4.712 0 0 0 .471 4.561l.148.26c.17.306.388.582.647.816.486.5.721.735.409 1.526-.449 1.135-3.271 1.113-4.312 1.107h-.308c-2.058.24-4.069.782-5.971 1.609a9.949 9.949 0 0 0-3.453 3.69 14.11 14.11 0 0 1-1.272 1.662.554.554 0 0 1-.431.089.707.707 0 0 1-.5-.443l-.345-1.163c-.252-1.169-.037-1.792-1.429-.793a.742.742 0 0 1-.733 0c-.339-.218-.712-.586-.548-.906.027-.046.308-.595.308-.595.868-1.6.261-1.55-1.106-1.408-.109.006-.217.02-.324.043-.172.035-.736-.31-.958-.954-.277-.77.086-1.452 1.029-1.97a7.465 7.465 0 0 1 1.895-.706 10.978 10.978 0 0 1 1.565-.264 29.097 29.097 0 0 1 4.192-.065l1.174.037a4.927 4.927 0 0 0 3.792-1.293 2.01 2.01 0 0 0 .382-.892 2.026 2.026 0 0 0-.074-.968 7.942 7.942 0 0 0-2.101-3.051 17.768 17.768 0 0 1-1.765-2.09 7.909 7.909 0 0 1-1.029-3.739 7.91 7.91 0 0 1 .869-3.78 3.05 3.05 0 0 1 1.207-1.637c.339-.137.724 0 1.27.254l.385.165c3.37.838 6.899.785 10.243-.155a3.808 3.808 0 0 1-.308.8 17.02 17.02 0 0 0-1.337 7.912v-.018Zm-27.451 20.724c.486.028 1.115.127 1.765.23 1.928.31 4.097.66 5.271-.31a2.17 2.17 0 0 0 .767-1.69c.067-.911.014-1.826-.157-2.723a2.048 2.048 0 0 0 1.931.456c.071.202.136.472.191.676l.052.205c.106.367.309.699.588.958.279.26.624.438.996.515.196.047.399.054.598.021a8.36 8.36 0 0 1-1.39 3.941 8.795 8.795 0 0 1-1.568 1.144 164.896 164.896 0 0 0-12.257-1.95 5.767 5.767 0 0 1 3.21-1.442l.003-.031Zm3.502-11.664a38.42 38.42 0 0 0 2.311-3.721l.114.115c.634.62 1.364 1.302 2.091 2.142a8.403 8.403 0 0 0-1.611.658 3.269 3.269 0 0 0-1.756 2.086c-.428-.518-.841-.942-1.149-1.28Zm2.902 9.835a.819.819 0 0 1-.262.67c-.677.567-2.68.241-4.14 0-.699-.118-1.355-.221-1.904-.255a6.841 6.841 0 0 0-4.901 2.205 7.87 7.87 0 0 0-.471.459 141.87 141.87 0 0 0-8.09-.62h.478a30.697 30.697 0 0 0 15.538-11.122 11.525 11.525 0 0 1 3.743 8.663h.009Zm33.612 5.792h-13.021l-3.796 3.023a151.564 151.564 0 0 0-12.208-3.132c.253-.194.49-.409.709-.641a10.664 10.664 0 0 0 1.817-5.755.494.494 0 0 0 .056-.056l.85-1.222a10.229 10.229 0 0 1 2.973-3.373 20.35 20.35 0 0 1 5.415-1.495h.308c1.571 0 4.849.044 5.659-2.003a2.508 2.508 0 0 0-.717-3.048 2.307 2.307 0 0 1-.382-.459l-.185-.338a3.026 3.026 0 0 1-.703-2.113 3.02 3.02 0 0 1 .931-2.023c.034-.025.077-.04.117-.071a.621.621 0 0 0 .222-.242 17.98 17.98 0 0 0 5.092 7.33 15.045 15.045 0 0 0 7.492 3.463c1.235.105 2.461.313 3.662.62a3.105 3.105 0 0 1 1.233 2.171 3.584 3.584 0 0 1-1.464 3.721 8.33 8.33 0 0 0-2.595 2.236 8.387 8.387 0 0 0-1.483 3.097c-.022.099.003.201.009.307l.009.003ZM132.79 68.333l.019.022a11.688 11.688 0 0 0 5.591 2.48c1.264.281 2.484.736 3.626 1.352.14.521.2 1.06.178 1.6a19.55 19.55 0 0 1-10.002.344l-.308-.13a2.955 2.955 0 0 0-2.354-.273 4.078 4.078 0 0 0-1.999 2.41 9.308 9.308 0 0 0-.973 4.48 9.3 9.3 0 0 0 1.281 4.403 18.613 18.613 0 0 0 1.901 2.257 7.021 7.021 0 0 1 1.765 2.453c.041.1.056.21.043.319a.643.643 0 0 1-.114.3 3.73 3.73 0 0 1-2.674.733l-1.118-.035a26.762 26.762 0 0 0-5.237.183 31.035 31.035 0 0 0-2.68-2.79l-.398-.388a43.366 43.366 0 0 0 4.171-14.536 1.89 1.89 0 0 0 .595-.145c.08.12.163.226.163.226a3.29 3.29 0 0 0 2.625 1.19c1.272-.136 2.246-2.126 2.409-3.906.086-.89.354-.998.961-1.24l.505-.224.783-.381c1.133-.592-.173.031 1.229-.707l.012.003Zm-68.653-.728a31.37 31.37 0 0 1 .532-4.41c.191-.93.367-1.776.447-2.44a3.223 3.223 0 0 0-.973-3.212 40.713 40.713 0 0 1 6.777-14.065 26.242 26.242 0 0 1 9.396-8.438 26.05 26.05 0 0 1 12.223-3.048c4.26 0 8.456 1.047 12.224 3.048a26.249 26.249 0 0 1 9.396 8.438 41.574 41.574 0 0 1 7.747 18.725l-.73.692a7.34 7.34 0 0 0-2.35 2.998l-.031.108a8.488 8.488 0 0 0-.53 2.267 1.73 1.73 0 0 0 .231.908 2.125 2.125 0 0 0 1.577 1.117c.114 0 .201.384.201.67v.117a.932.932 0 0 0-.022.217c0 .562.265 1.38 1.614 1.929.084.03.176.05.259.084-1.934 17.84-14.479 31.707-29.573 31.707-14.325 0-26.315-12.428-29.189-28.889a3.035 3.035 0 0 0 1.001-3.197l-.058-.564a43.103 43.103 0 0 1-.182-4.766l.013.004ZM77.615 25.56a6.86 6.86 0 0 0-.453-.62c.045-.194.069-.391.071-.59a2.607 2.607 0 0 0-.758-1.836 2.574 2.574 0 0 0-1.827-.756 2.75 2.75 0 0 0-.511.047c.21-.423.316-.891.308-1.364a3.048 3.048 0 0 0-.883-2.139 3.009 3.009 0 0 0-2.124-.89 1.991 1.991 0 0 0-.277.015 3.61 3.61 0 0 0 .638-2.053 3.6 3.6 0 0 1-1.752-1.182 3.637 3.637 0 0 1-.357-4.044 3.612 3.612 0 0 1 1.517-1.474 3.72 3.72 0 0 0-.172-1.092c.567.31 1.203.47 1.848.462.927 0 1.824-.333 2.53-.939A3.928 3.928 0 0 0 76.73 4.74a2.985 2.985 0 0 0 3.81.974c.418-.21.782-.515 1.063-.89.094.563.37 1.08.785 1.468a2.565 2.565 0 0 0 4.166-1h.015l1.008 5.445a15.306 15.306 0 0 0-9.396-2.689 5.44 5.44 0 0 0-2.485.81 5.484 5.484 0 0 0-1.828 1.879 6.94 6.94 0 0 0 1.288 7.283 29.96 29.96 0 0 0 5.597 6.223l.052.053a48.352 48.352 0 0 0-3.203 1.265h.012Zm-2.967 0a1.168 1.168 0 0 1-1.084-.729 1.19 1.19 0 0 1 .253-1.287 1.171 1.171 0 0 1 2.005.831 1.184 1.184 0 0 1-.734 1.09 1.163 1.163 0 0 1-.452.086l.012.009Zm-3.197-3.482a1.588 1.588 0 0 1-1.47-.995 1.617 1.617 0 0 1 .348-1.747 1.592 1.592 0 0 1 1.736-.35 1.613 1.613 0 0 1 .988 1.479 1.618 1.618 0 0 1-.475 1.142 1.598 1.598 0 0 1-1.14.465l.013.006Zm-3.244-4.474c-.434 0-.859-.129-1.22-.371a2.221 2.221 0 0 1-.334-3.398 2.188 2.188 0 0 1 2.392-.478c.4.167.743.45.984.814.24.364.369.791.368 1.228a2.218 2.218 0 0 1-.65 1.556 2.19 2.19 0 0 1-1.552.64l.012.009ZM65.416 8.7a2.203 2.203 0 0 1 1.354-2.037 2.18 2.18 0 0 1 2.388.477 2.212 2.212 0 0 1 .48 2.402 2.205 2.205 0 0 1-.804.992 2.184 2.184 0 0 1-2.062.211 2.202 2.202 0 0 1-1.2-1.2 2.23 2.23 0 0 1-.168-.852l.012.007Zm7.486-7.06c.493 0 .975.148 1.385.424.41.277.73.669.918 1.128a2.527 2.527 0 0 1-.543 2.736 2.49 2.49 0 0 1-2.719.543 2.498 2.498 0 0 1-1.12-.925 2.523 2.523 0 0 1-.42-1.395 2.522 2.522 0 0 1 .726-1.778 2.49 2.49 0 0 1 1.76-.743l.013.01Zm6.312-.211a1.588 1.588 0 0 1 1.472.993 1.616 1.616 0 0 1-.348 1.75 1.593 1.593 0 0 1-1.739.346 1.614 1.614 0 0 1-.984-1.484 1.607 1.607 0 0 1 .459-1.14 1.588 1.588 0 0 1 1.127-.475l.013.01ZM84.16 3.23a1.161 1.161 0 0 1 1.079.726 1.182 1.182 0 0 1-.632 1.535 1.161 1.161 0 0 1-1.272-.255 1.179 1.179 0 0 1 0-1.662c.219-.22.516-.344.825-.344Zm6.161-1.361c0-.353.432-.412.687-.412h3.127c.25 0 .684.058.684.412.04.673.313 1.31.773 1.8.46.491 1.075.803 1.74.882l-3.308 17.9v.018c-.484-.018-.964-.03-1.45-.03-.487 0-.925 0-1.409.03v-.018l-3.302-17.91a2.84 2.84 0 0 0 1.698-.899 2.875 2.875 0 0 0 .745-1.78l.015.007Zm5.108 20.675h.018l1.849-10.034a15.38 15.38 0 0 1 9.509-3.209 4.042 4.042 0 0 1 1.856.592 4.08 4.08 0 0 1 1.37 1.393 5.926 5.926 0 0 1-1.199 6.133 25.729 25.729 0 0 1-6.013 6.4l-.031.037a37.048 37.048 0 0 0-7.38-1.321l.02.009ZM82.405 23.8a25.26 25.26 0 0 1-6.013-6.39 5.927 5.927 0 0 1-1.208-6.133 4.09 4.09 0 0 1 1.375-1.394 4.057 4.057 0 0 1 1.86-.591 15.371 15.371 0 0 1 9.507 3.209l1.848 10.034a37.362 37.362 0 0 0-7.335 1.293l-.034-.028Zm24.029 10.716a26.47 26.47 0 0 0-13.828-3.939 26.47 26.47 0 0 0-13.845 3.876 13.4 13.4 0 0 0 .419-3.336 31.046 31.046 0 0 1 13.448-3.02 31.047 31.047 0 0 1 13.43 3.104 12.305 12.305 0 0 0 .357 3.305l.019.01Zm-.228-4.819a32.346 32.346 0 0 0-27.128-.093 8.547 8.547 0 0 0-.84-2.753 36.069 36.069 0 0 1 28.889.071 8.114 8.114 0 0 0-.937 2.766l.016.01ZM98.634 5.33l.03-.028c.194.54.559 1 1.039 1.307a2.562 2.562 0 0 0 3.135-.284 2.6 2.6 0 0 0 .789-1.472 3.002 3.002 0 0 0 3.798.872 2.98 2.98 0 0 0 1.073-.956 3.947 3.947 0 0 0 1.324 2.364 3.901 3.901 0 0 0 2.529.941 3.781 3.781 0 0 0 1.849-.462 3.55 3.55 0 0 0-.17 1.092 3.62 3.62 0 0 1 1.51 1.477 3.65 3.65 0 0 1-.358 4.038 3.604 3.604 0 0 1-1.746 1.185c-.002.734.221 1.45.638 2.053a2.991 2.991 0 0 0-2.837 1.424 3.044 3.044 0 0 0-.121 2.951 2.817 2.817 0 0 0-.517-.047 2.564 2.564 0 0 0-1.825.758 2.606 2.606 0 0 0-.757 1.834c.004.232.034.461.089.686-.129.127-.36.362-.514.53a34.166 34.166 0 0 0-3.207-1.24l.056-.069a30.137 30.137 0 0 0 5.591-6.223 6.888 6.888 0 0 0 1.284-7.283 5.478 5.478 0 0 0-1.827-1.879 5.433 5.433 0 0 0-2.485-.81 15.288 15.288 0 0 0-9.393 2.69l1.023-5.449Zm2.464-2.099a1.162 1.162 0 0 1 1.078.724 1.183 1.183 0 0 1-.25 1.28 1.166 1.166 0 0 1-1.27.259 1.168 1.168 0 0 1-.725-1.082 1.182 1.182 0 0 1 .325-.828 1.17 1.17 0 0 1 .808-.362l.034.01Zm4.948-1.801a1.59 1.59 0 0 1 1.476.989 1.62 1.62 0 0 1-.344 1.751 1.591 1.591 0 0 1-2.456-.242 1.617 1.617 0 0 1 1.293-2.508l.031.01Zm6.312.21a2.488 2.488 0 0 1 2.309 1.547 2.519 2.519 0 0 1-.537 2.74 2.487 2.487 0 0 1-3.841-.379 2.526 2.526 0 0 1-.42-1.396 2.522 2.522 0 0 1 .716-1.765 2.496 2.496 0 0 1 1.739-.756l.034.01Zm5.298 4.85a2.193 2.193 0 0 1 2.029 1.364 2.219 2.219 0 0 1-.475 2.409 2.19 2.19 0 0 1-3.379-.332 2.221 2.221 0 0 1-.371-1.227 2.224 2.224 0 0 1 .624-1.566c.405-.418.958-.66 1.538-.67l.034.022Zm1.596 8.914a2.218 2.218 0 0 1-1.357 2.043 2.184 2.184 0 0 1-2.395-.482 2.218 2.218 0 0 1 .34-3.402c.362-.242.787-.37 1.222-.37.574.01 1.121.246 1.525.658.403.412.63.966.631 1.544l.034.01Zm-5.437 6.679a1.599 1.599 0 0 1-1.476-.988 1.609 1.609 0 0 1 1.156-2.192 1.586 1.586 0 0 1 1.64.677c.176.263.271.573.272.89a1.61 1.61 0 0 1-1.626 1.604l.034.009Zm-3.201 3.482a1.169 1.169 0 0 1-1.084-.729 1.188 1.188 0 0 1 .253-1.287 1.174 1.174 0 0 1 1.278-.258 1.185 1.185 0 0 1 .727 1.09 1.196 1.196 0 0 1-.359.841 1.183 1.183 0 0 1-.849.33l.034.013Zm17.781 33.521c-.639.337-1.304.619-1.99.843a13.812 13.812 0 0 0-3.222 1.24 45.272 45.272 0 0 0-1.818-7.047l6.208.4c.054 1.548.323 3.081.797 4.555l.025.009Zm-9.574-13.829a4.993 4.993 0 0 0 1.433 2.824 4.941 4.941 0 0 0 2.836 1.38 4.404 4.404 0 0 0 3.207-1.646c.036.624.289 1.215.716 1.67.427.453.999.74 1.616.81a7.327 7.327 0 0 0-.961 2.791l-6.83-.43a41.747 41.747 0 0 0-3.727-7.42 9.163 9.163 0 0 0 1.676.009l.034.012Zm9.799-6.632 2.982-.186a10.932 10.932 0 0 0 6.41-2.107 11.05 11.05 0 0 0 3.978-5.48l.052-.159a9.203 9.203 0 0 0 .136-3.283l-.108-.93-.854.34a27.14 27.14 0 0 1-4.679 1.176 8.896 8.896 0 0 0-4.784 1.656l-.099.074-.071.1a.318.318 0 0 1-.215.148c-.102 0-.308-.118-.555-.465a24.091 24.091 0 0 0-1.54-1.938s-.074-.087-.129-.164c.021-.165.231-.509 1.146-.75l1.016-.227c1.18-.232 2.406-.474 2.465-2.394v-.068a1.869 1.869 0 0 0-.749-1.482 6.717 6.717 0 0 0-4.858-.679h-.031l-.031.019a.908.908 0 0 1-.184.043 1.563 1.563 0 0 1-.284-.62 2.75 2.75 0 0 1-.129-.77c0-.31.095-.384.157-.43a1.632 1.632 0 0 0 .582-1.277 4 4 0 0 0-.487-1.65l-.141-.31a2.581 2.581 0 0 1-.225-.822.45.45 0 0 1 .04-.208.922.922 0 0 1 .634-.31c.867-.148 1.75-.182 2.625-.102.583.065 1.17.065 1.753 0a6.841 6.841 0 0 0 1.848-.738 4.938 4.938 0 0 1 1.71-.654c.709-.04 2.277 0 3.53.028l1.812.03a14.041 14.041 0 0 0 6.663-2.706c.134-.154.303-.274.493-.347a.3.3 0 0 0 .037.043 6.85 6.85 0 0 1 .496 1.86 9.34 9.34 0 0 0 .887 2.93 11.914 11.914 0 0 0 1.999 2.342c.446.416.866.86 1.257 1.33.451.738.829 1.519 1.128 2.331a11.916 11.916 0 0 0 2.014 3.7c.925.886 3.223 3.075 5.595 2.592a1.225 1.225 0 0 1-.071.127l-.684.62c-.856.729-1.738 1.479-1.738 2.353v.093c.036.671.236 1.323.583 1.898l.052.09c.095.12.151.266.16.418a1.504 1.504 0 0 1-.533.946c-.902.949-1.198 1.55-1.198 2.149.012.324.074.644.185.949l.037.102c.105.268.177.548.215.834v.078l-.033.021-.235.127a3.413 3.413 0 0 1-.924.413l-.123.024c-1.605.354-2.412 1.24-2.412 2.645a2.264 2.264 0 0 0 0 .26l.031.51c.021.31.043.62.043.843a.747.747 0 0 1 0 .176c-.099.05-.202.09-.308.121l-.398.09c-.942.23-2.381.565-2.507 3.219l-.04 1.05c-.062 2.041-.163 3.005-.792 3.083a2.392 2.392 0 0 1-2.156-1.16c-.111-.27-.339-1.166-.379-1.293-.884-2.728-.592-2.08-1.867.329-.188.332-.382.778-.669 1.315a5.354 5.354 0 0 1-2.091 2.48l-.308.164a.348.348 0 0 1-.308.016c-.154-.059-.367-.357-.515-.986a28.158 28.158 0 0 1-.567-3.79c-.074-1.915 1.944-3.915-2.156-.64 0 0-.514.343-.801.526-.539.332-3.647 1.715-4.528 2.084-.308.127-1.344.205-1.356-.062.001-.115.018-.228.049-.338a.945.945 0 0 1 .025-.118c.484-1.724 1.282-1.358-1.54-1.082l-1.346.074-.422.028a3.155 3.155 0 0 1-2.222-.31 1.592 1.592 0 0 1-.415-1.215 4.136 4.136 0 0 1 .83-2.685 4.089 4.089 0 0 1 2.349-1.523c1.722-.347 8.388-1.07 11.339-1.33a11.428 11.428 0 0 0 5.172-1.441 11.508 11.508 0 0 0 3.956-3.65 21.522 21.522 0 0 0 1.115-10.679c-.237-1.088-1.355-2.775-.678.31a19.052 19.052 0 0 1-1.657 9.634 10.186 10.186 0 0 1-3.498 3.157 10.12 10.12 0 0 1-4.536 1.237c-2.911.263-9.664.976-11.497 1.342a5.462 5.462 0 0 0-2.355 1.173 5.516 5.516 0 0 0-1.542 2.142c-.643.93-2.116 3.01-3.558 2.97-1.682-.043-2.994-2.074-2.994-3.783-.148-5.16 2.375-5.296 8.487-5.634l.037.013Zm55.201 8.771a3.39 3.39 0 0 1 .416-1.55 3.562 3.562 0 0 0 .616-1.736 1.43 1.43 0 0 0-.191-.726c-.499-.852-1.63-.815-2.465-.784h-.502a11.357 11.357 0 0 1-1.352-.5 13.736 13.736 0 0 0-2.933-.976 6.613 6.613 0 0 0-2.387.375 8.758 8.758 0 0 1-2.955.434 13.162 13.162 0 0 1-2.883-.952 9.388 9.388 0 0 0-6.888.183 10.432 10.432 0 0 0-5.508 4.93 15.56 15.56 0 0 0 .533 13.59c.761 1.417 3.459 6.003 4.879 7.96a.803.803 0 0 0 .148.142.195.195 0 0 1-.049.022 4.696 4.696 0 0 0-1.854 1.96 4.733 4.733 0 0 0-.475 2.663c-.001.31.015.621.049.93.093.763.345 1.24.746 1.411a.832.832 0 0 0 .835-.109 4.51 4.51 0 0 1 2.892-.744c1.04.03 2.031.455 2.773 1.188a4.164 4.164 0 0 1 1.232 2.769 5.644 5.644 0 0 1-1.451 3.812 5.575 5.575 0 0 1-3.632 1.819 4.079 4.079 0 0 1-2.615-.534 4.119 4.119 0 0 1-1.735-2.04 15.383 15.383 0 0 0-1.509-5.646 5.026 5.026 0 0 0-.656-.757c-.814-.775-2.027-1.956-2.323-7.131a40.996 40.996 0 0 0-4.313-14.719 3.22 3.22 0 0 0 1.128.068c1.9-.235 1.968-2.378 2.033-4.45l.04-1.032c.083-1.581.582-1.696 1.414-1.897l.502-.127c1.078-.335 1.303-.84 1.303-1.697 0-.26-.019-.564-.04-.896l-.04-.502v-.161c0-.806.462-1.073 1.297-1.262l.163-.034a4.357 4.357 0 0 0 1.266-.543l.231-.13a1.391 1.391 0 0 0 .764-1.318 4.26 4.26 0 0 0-.277-1.314l-.031-.1a1.521 1.521 0 0 1-.114-.474c0-.276.185-.533.798-1.188.548-.5.88-1.195.924-1.938a2.083 2.083 0 0 0-.388-1.178l-.031-.05a2.813 2.813 0 0 1-.382-1.24c.059-.31.854-.967 1.232-1.302l.82-.74c.35-.41.546-.93.551-1.47a1.555 1.555 0 0 0-.28-.946.844.844 0 0 0-1.1-.205l.056-.022c-1.565.76-3.389-.703-4.821-2.065a11.48 11.48 0 0 1-1.692-3.227 12.81 12.81 0 0 0-1.327-2.66 15.027 15.027 0 0 0-1.374-1.47 10.458 10.458 0 0 1-1.765-2.038 8.513 8.513 0 0 1-.715-2.48 7.338 7.338 0 0 0-.687-2.35 1.435 1.435 0 0 0-1.094-.729 2.249 2.249 0 0 0-1.663.81 13.044 13.044 0 0 1-5.635 2.257l-1.777-.031c-1.34-.031-2.871-.072-3.647-.028-.806.113-1.58.39-2.277.812a5.321 5.321 0 0 1-1.42.59 6.47 6.47 0 0 1-1.451 0 11.104 11.104 0 0 0-2.982.123 2.184 2.184 0 0 0-1.599 1.036 2.68 2.68 0 0 0 .111 2.23l.185.415c.308.638.456 1.044.259 1.215a2.511 2.511 0 0 0-.463 2.691 2.273 2.273 0 0 0 1.008 1.476 1.578 1.578 0 0 0 1.306.019l-.062.022a5.343 5.343 0 0 1 3.608.415.448.448 0 0 1 .158.167.45.45 0 0 1 .057.224c-.033.763-.123.803-1.33 1.045l-1.103.238a2.748 2.748 0 0 0-2.107 1.55 1.461 1.461 0 0 0 .064 1.284l.308.388a20.192 20.192 0 0 1 1.451 1.82 2.06 2.06 0 0 0 1.722 1.07 1.656 1.656 0 0 0 1.251-.642 7.482 7.482 0 0 1 4.005-1.352 26.506 26.506 0 0 0 4.202-.952v.428c.019.45-.031.901-.148 1.336l-.059.174a9.503 9.503 0 0 1-3.482 4.832 9.407 9.407 0 0 1-5.658 1.791l-2.963.183c-5.887.31-9.824.536-9.824 6.626a8.01 8.01 0 0 1-2.616-.226l-.098-.031c-.234-.31-.465-.642-.703-.955a33.396 33.396 0 0 0-6.903-6.822 8.612 8.612 0 0 1 .838-9.243 2.54 2.54 0 0 0 1.383.406 2.58 2.58 0 0 0 1.827-.762 2.616 2.616 0 0 0 .758-1.839 2.7 2.7 0 0 0-.198-.992c.265.076.539.117.814.12a3.01 3.01 0 0 0 2.127-.89 3.047 3.047 0 0 0 .885-2.142 3.001 3.001 0 0 0-.397-1.497 18.446 18.446 0 0 1 4.83-10.27 3.635 3.635 0 0 0-1.715-3.098 3.586 3.586 0 0 0-3.522-.142c.153-.419.23-.862.228-1.308a3.934 3.934 0 0 0-.813-2.41 3.897 3.897 0 0 0-2.11-1.401 3.877 3.877 0 0 0-2.521.196 3.908 3.908 0 0 0-1.872 1.711 3.026 3.026 0 0 0-1.171-1.685 2.993 2.993 0 0 0-3.832.308 3.037 3.037 0 0 0-.89 1.851 2.545 2.545 0 0 0-1.956-.93 2.596 2.596 0 0 0-1.427.439 2.62 2.62 0 0 0-.954 1.155h-.681a1.626 1.626 0 0 1-1.204-.39 1.645 1.645 0 0 1-.568-1.139c0-.955-.871-1.628-2.107-1.628h-3.108c-1.232 0-2.107.67-2.107 1.628a1.665 1.665 0 0 1-.57 1.135 1.642 1.642 0 0 1-1.201.394h-.589a2.61 2.61 0 0 0-.953-1.157 2.522 2.522 0 0 0-3.378.493 3.033 3.033 0 0 0-.913-1.83 2.997 2.997 0 0 0-3.82-.268 3.027 3.027 0 0 0-1.157 1.683 3.912 3.912 0 0 0-1.873-1.71 3.88 3.88 0 0 0-2.52-.195c-.838.218-1.58.71-2.11 1.4a3.945 3.945 0 0 0-.592 3.716 3.53 3.53 0 0 0-1.602-.387c.214 1.838.056 3.7-.463 5.476a13.774 13.774 0 0 1-2.559 4.855 3.652 3.652 0 0 0 1.06 2.569 3.605 3.605 0 0 0 2.554 1.065c.212-.002.423-.023.631-.062a2.943 2.943 0 0 0-.397 1.497c0 .804.318 1.574.882 2.143a3.01 3.01 0 0 0 2.128.89c.275-.005.548-.045.813-.121a2.614 2.614 0 0 0 .784 3.03 2.572 2.572 0 0 0 3.11.07c1.826 1.387 2.156 5.876.653 9.256a32.961 32.961 0 0 0-7.02 6.886 41.677 41.677 0 0 0-6.11 11.6 13.376 13.376 0 0 0-.748-6.868c-2.615-6.26-8.164-8.623-11.851-10.486l-1.916-1.005a16.58 16.58 0 0 1-5.382-4.924l-.672-.852-.083-.109c.071.022.154.056.222.065a9.244 9.244 0 0 1 3.564 1.423l1.15.968a17.178 17.178 0 0 0 2.026 1.634 3.514 3.514 0 0 0 3.454-.143 1.24 1.24 0 0 0 .416-1.008 3.514 3.514 0 0 0-.256-1.187 6.665 6.665 0 0 1-.133-.431l.133.065.616.257c.516.1 1.05.028 1.522-.204a2.439 2.439 0 0 0 1.096-1.082 3.362 3.362 0 0 0 .178-2.34 3.341 3.341 0 0 0-1.394-1.88c-.878-.747-3.389-3.228-5.391-5.222-1.593-1.587-2.856-2.834-3.247-3.178a9.684 9.684 0 0 1-1.232-1.358 1.715 1.715 0 0 0 0-1.69 1.355 1.355 0 0 0-1.356-.378h-.2a.358.358 0 0 0-.08 0c-.059-.022-.117-.028-.188-.05l-.062.028a.304.304 0 0 0-.095-.021 25.992 25.992 0 0 0 1.318-4.09 5.334 5.334 0 0 0-.792-4.961 3.21 3.21 0 0 0-2.92-.965 7.417 7.417 0 0 0-4.214 2.893l-.376-1.144-.727.236-3.466 1.122.404 1.24a7.538 7.538 0 0 0-5.277.09 3.227 3.227 0 0 0-1.22 1.019c-.317.436-.52.945-.591 1.48a5.358 5.358 0 0 0 2.233 4.478c.588.502 1.115.905 1.571 1.24a3.034 3.034 0 0 1-.253.192c-.483.416-.924.89-1.343 1.312l-.53.57a16.35 16.35 0 0 1-8.539 4.075.876.876 0 0 0-.795.738c-.117.74.66 1.609 1.932 2.17 1.272.561 1.54 2.251.924 5.674l-.028.13a1.189 1.189 0 0 0 .225 1.188c.431.403 1.066.31 2.175.016l.206-.056.441-.124c-.05.18-.102.434-.15.62l-.066.335-.061.34c-.187.87-.296 1.756-.327 2.646a3.99 3.99 0 0 0 .222 1.416 13.802 13.802 0 0 0 2.095 3.411 1.578 1.578 0 0 0 1.177.53 1.858 1.858 0 0 0 1.293-.784.06.06 0 0 0 .025-.043c.116.24.218.486.308.737l.022.066a6.692 6.692 0 0 0 1.694 2.96 6.629 6.629 0 0 0 2.926 1.73 2.393 2.393 0 0 0 1.917 0 2.12 2.12 0 0 0 .924-1.428c.077-.366.129-.735.157-1.107.003-.096.01-.191.025-.286.061.069.126.13.2.224a17.17 17.17 0 0 1 3.034 9.354c0 1.066-.135 2.128-.403 3.16a26.11 26.11 0 0 1-1.504 4.07c-.357.807-.616 1.58-.902 2.332a26.233 26.233 0 0 1-5.065 3.33l-.98.54a16.088 16.088 0 0 0-4.478 5.046 16.196 16.196 0 0 0-2.027 6.451 3.088 3.088 0 0 0-.019.31c-2.73.93-4.535.806-5.508-.409-2.08-2.586-.502-5.156 1.762-8.263l.706-.977.708-.955s.616-.775.675-.859c.027.165.058.31.086.512l.29 1.218.237.974a1.172 1.172 0 0 0 .958 1.051c.308.04.844.596 2.255-2.046.308-.57.868-1.55 1.518-2.54l1.063-1.68a2.733 2.733 0 0 0 .625-2.377 2.737 2.737 0 0 0-1.527-1.918c-.687-.483-.647-.731-.04-1.897l.175-.357a16.148 16.148 0 0 0-.465-13.435c-2.298-3.562-5.545-6.883-9.926-5.875a19.542 19.542 0 0 0-5.776 2.461 13.867 13.867 0 0 1-5.237 2.106 43.03 43.03 0 0 0-4.885 1.37c-.44.143-1.054.347-1.088 1.002a.462.462 0 0 0 0 .059c0 .703.761 1.048 1.72 1.491a5.12 5.12 0 0 1 1.847 1.206 24.232 24.232 0 0 1-3.08 3.485 1.276 1.276 0 0 0-.653 1.082c0 .069.006.138.018.205.136.72.863 1.181 2.178 1.408h.022l-.022.23a8.586 8.586 0 0 0 .616 5.202l.198.31a19.6 19.6 0 0 1 2.464 4.651 3.497 3.497 0 0 1-.173 1.054 2.464 2.464 0 0 0 0 1.86 1.345 1.345 0 0 0 .881.6c1.516.356 2.092-.875 2.548-1.861l.256-.534c.616-1.24 1.466-2.958 2.492-4.69l.678-1.043a12.281 12.281 0 0 0 2.464-7.441l.508.025c.297.058.603.058.9 0l.274-.056c.524-.109 1.232-.251 1.402-.93.17-.68-.41-1.219-.986-1.675a5.462 5.462 0 0 1-1.124-4.48c.308-1.11.828-1.715 1.605-1.842 1.05.077 2.07.4 2.975.944a6.799 6.799 0 0 1 2.24 2.185 8.645 8.645 0 0 1 1.43 4.722c.003.478-.044.955-.142 1.423-.36 1.628-.672 1.792-.684 1.792a1.794 1.794 0 0 1-.42-.096l-.526-.13a4.542 4.542 0 0 0-3.34.738l-.276.201c-.672.46-1.593 1.076-1.47 2.019.114.843 1.017 1.24 1.682 1.479a.981.981 0 0 1 .709.691 6.106 6.106 0 0 1-1.54 4.075l-.417.502-.995 1.336c-4.004 5.153-5.283 10.136-3.56 13.668 1.044 2.136 3.65 4.666 10.134 4.682a8.868 8.868 0 0 1-1.232 3.293 6.948 6.948 0 0 1-2.497 2.177 6.9 6.9 0 0 1-3.214.768l-.468.05-.37.018a1.894 1.894 0 0 0-1.451.568c-.564.639-.724 1.86-.56 4.34a20.903 20.903 0 0 1-.444 6.428 14.15 14.15 0 0 0-.26 1.551 9.081 9.081 0 0 1-.212 1.153 7.011 7.011 0 0 0-.243 1.575c-.019.402.089.799.308 1.135a1.736 1.736 0 0 0 1.306.735l1.485.09c.308 0 .705.018.958.053a.225.225 0 0 0-.021.046c-.04.115-.08.226-.124.332H0l5.237 9.156c-.33.639-4.858 9.519-4.858 9.519h44.576l2.517 8.635a135.921 135.921 0 0 1 45.12-7.987h.084a136.245 136.245 0 0 1 45.161 7.956l2.505-8.619h43.864s-4.535-8.881-4.858-9.519c.345-.621 5.237-9.157 5.237-9.157h-18.94a18.2 18.2 0 0 0 .207-3.506c-.05-.515-.234-1.448-.422-2.422a24.867 24.867 0 0 1-.425-2.53c0-.97.021-3.984.101-4.651.228-1.99-1.885-3.581-2.895-4.341l-.336-.254a19.708 19.708 0 0 1-2.634-2.707c1.937.8 4.083.937 6.105.387a9.523 9.523 0 0 0 5.08-3.429c.94-1.26 1.7-2.646 2.258-4.117l.081-.171c.45-.99 1.022-1.917 1.703-2.763.955-.858 4.969-6.154 3.697-8.29-.872-1.452-3.179-.62-3.934-.33-.425.15-.641-.133-.924-1.24-.247-.93-.774-3.29-.814-3.634v-.083c-.049-.425-.129-1.318-.837-1.669a1.508 1.508 0 0 0-1.541.202.864.864 0 0 1-.702.177.99.99 0 0 1-.502-.549c-.197-.477-.539-1.622-.74-2.307l-.166-.527-.086-.36c-.108-.474-.25-1.131-.89-1.302-.641-.17-1.128.31-1.568.8-.339.378-.641.75-.925 1.116a9.162 9.162 0 0 1-2.993-4.105 9.214 9.214 0 0 1-.352-5.079 6.276 6.276 0 0 1 .915-2.897 6.223 6.223 0 0 1 2.165-2.12 7.566 7.566 0 0 1 5.696.062l.348.186c.216.096.422.21.617.345a1.466 1.466 0 0 1-.21.183l-.071.04-.052.062a5.085 5.085 0 0 0-1.426 3.507 12.863 12.863 0 0 0 4.242 7.661v.044a12.77 12.77 0 0 0 2.415 8.263 3.225 3.225 0 0 0 2.504.84 13.983 13.983 0 0 0 4.085-1.643c.376-.17 1.473-1.271-.293-1.733-1.765-.462-1.309-2.072-1.232-2.878a14.784 14.784 0 0 1 1.393-4.09 4.093 4.093 0 0 0 .335-1.733 9.14 9.14 0 0 0-.64-3.128c.315-.034.625-.105.924-.211a2.46 2.46 0 0 0 1.709-1.575c.042-.144.063-.294.062-.444a2.068 2.068 0 0 0-.517-1.314 1.634 1.634 0 0 1-.339-1.02Z" fill="#fff"/></mask><g mask="url(#ai)"><mask id="aj" style="mask-type:luminance" maskUnits="userSpaceOnUse" x="0" y="-1" width="186" height="138"><path d="M185.533-.004H0v136.301h185.533V-.003Z" fill="#fff"/></mask><g mask="url(#aj)"><path d="M190.176-5.371H-5.332v146.734h195.508V-5.371Z" fill="#287BAF"/></g></g></g></g><mask id="ak" style="mask-type:luminance" maskUnits="userSpaceOnUse" x="136" y="15" width="6" height="4"><path fill-rule="evenodd" clip-rule="evenodd" d="M140.015 16.551a4.104 4.104 0 0 0-3.108-.567.737.737 0 0 0-.616.638c0 .372.776 1.083 1.232 1.377a2.098 2.098 0 0 0 1.706.152 8.444 8.444 0 0 1 1.374-.446c.586-.15.475-.447.33-.555a10.553 10.553 0 0 1-.896-.599" fill="#fff"/></mask><g mask="url(#ak)"><path d="M146.358 10.524h-15.412v13.104h15.412V10.524Z" fill="#287BAF"/></g><mask id="al" style="mask-type:luminance" maskUnits="userSpaceOnUse" x="41" y="20" width="5" height="3"><path fill-rule="evenodd" clip-rule="evenodd" d="M41.973 21.317a13.35 13.35 0 0 0 1.768.986c1.001.41 1.137-.028 1.436-1.014.298-.986-.309-.98-.678-.98-.37 0-1.383.063-2.089.137-1.463.167-.764.741-.44.874" fill="#fff"/></mask><g mask="url(#al)"><path d="M50.586 14.94H36.188v12.88h14.398V14.94Z" fill="#287BAF"/></g></svg>